<svg width="120" height="120" viewBox="0 0 120 120" fill="none" xmlns="http://www.w3.org/2000/svg">
<path d="M99.375 35.625V19.6875C99.375 15.9579 97.8934 12.381 95.2562 9.74381C92.619 7.10658 89.0421 5.625 85.3125 5.625H72.1875C68.4579 5.625 64.881 7.10658 62.2438 9.74381C59.6066 12.381 58.125 15.9579 58.125 19.6875V35.625H99.375Z" fill="#FB8656"/>
<path d="M78.75 60C96.3541 60 110.625 80.9866 110.625 106.875H43.125C43.1241 104.413 43.2548 101.953 43.5166 99.5058C43.6512 98.2526 47.5695 97.016 47.7701 95.798C51.1547 75.2557 63.7409 60 78.75 60Z" fill="#FDBF67"/>
<path d="M110.625 106.875C110.625 92.7422 106.372 80.0698 99.645 71.4757C95.4436 76.3852 89.895 80.3475 84.1572 83.4084C79.4064 85.9427 74.3573 88.0697 70.2515 91.5532C65.1857 95.8516 61.9218 102.162 61.1606 108.75H110.625V106.875Z" fill="#FDB651"/>
<path d="M69.375 61.875L78.75 75L88.125 61.875L86.25 52.5H71.25L69.375 61.875Z" fill="#FFD4CF"/>
<path d="M86.2499 52.5H71.2499L70.1987 57.7556L71.5708 58.613C73.7223 59.9575 76.2071 60.6731 78.7441 60.679C81.2812 60.6848 83.7693 59.9806 85.9269 58.646L87.3081 57.7915L86.2499 52.5Z" fill="#FBB8B0"/>
<path d="M98.4375 30H93.75V28.125H89.3672C86.1293 28.125 82.9466 27.2866 80.129 25.6913C77.3114 24.096 74.9549 21.7983 73.2891 19.0219L73.125 18.75L63.75 28.125V30H59.0625C57.8193 30 56.627 30.4939 55.7479 31.3729C54.8689 32.252 54.375 33.4443 54.375 34.6875V38.4375C54.375 39.6807 54.8689 40.873 55.7479 41.7521C56.627 42.6311 57.8193 43.125 59.0625 43.125H63.75V42.255C63.75 44.2426 64.2555 46.1975 65.219 47.9359C66.1825 49.6743 67.5724 51.1391 69.2578 52.1925L73.8066 55.0355C75.2903 55.9629 77.0039 56.4567 78.7537 56.4608C80.5034 56.465 82.2194 55.9793 83.7075 55.0589L88.1953 52.2813C89.8936 51.231 91.2953 49.7641 92.2674 48.0199C93.2396 46.2757 93.7499 44.3121 93.75 42.3152V43.125H98.4375C99.6807 43.125 100.873 42.6311 101.752 41.7521C102.631 40.873 103.125 39.6807 103.125 38.4375V34.6875C103.125 33.4443 102.631 32.252 101.752 31.3729C100.873 30.4939 99.6807 30 98.4375 30Z" fill="#FFD4CF"/>
<path d="M46.875 43.125C46.8744 41.0731 46.3126 39.0604 45.2505 37.3047C44.1883 35.5491 42.6662 34.1174 40.8488 33.1646C39.0315 32.2118 36.9882 31.7741 34.9401 31.899C32.8919 32.024 30.917 32.7067 29.2289 33.8733C27.5409 35.0399 26.204 36.646 25.3631 38.5177C24.5222 40.3894 24.2092 42.4555 24.458 44.4923C24.7068 46.5291 25.5079 48.4591 26.7747 50.0733C28.0414 51.6876 29.7256 52.9246 31.6448 53.6506L30 61.875H41.25L39.6051 53.6506C41.7422 52.8416 43.5823 51.4013 44.8809 49.5211C46.1795 47.641 46.875 45.4101 46.875 43.125Z" fill="#FDBF67"/>
<path d="M114.375 114.375H5.625V106.875H114.375V114.375Z" fill="#25B1FA"/>
<path d="M99.375 100.071L113.5 78.6797C113.913 78.1018 114.189 77.4376 114.308 76.7373C114.426 76.037 114.384 75.3189 114.184 74.6373C113.984 73.9557 113.632 73.3283 113.155 72.8027C112.677 72.2771 112.086 71.8668 111.427 71.603L111.383 71.5854C110.333 71.1655 109.166 71.1393 108.099 71.5117C107.031 71.8842 106.133 72.6301 105.572 73.6121L93.75 96.3212L99.375 100.071Z" fill="#FB8656"/>
<path d="M103.125 106.875H84.375V105C84.375 102.514 85.3627 100.129 87.1209 98.3709C88.879 96.6127 91.2636 95.625 93.75 95.625C96.2364 95.625 98.621 96.6127 100.379 98.3709C102.137 100.129 103.125 102.514 103.125 105V106.875Z" fill="#FFD4CF"/>
<path d="M7.96875 99.375H63.2812C64.5757 99.375 65.625 98.3257 65.625 97.0312V64.2188C65.625 62.9243 64.5757 61.875 63.2812 61.875H7.96875C6.67433 61.875 5.625 62.9243 5.625 64.2188V97.0312C5.625 98.3257 6.67433 99.375 7.96875 99.375Z" fill="#4DCCFF"/>
<path d="M46.4583 93.75L43.5328 80.5854C43.4171 80.0648 43.1274 79.5992 42.7114 79.2655C42.2955 78.9319 41.7781 78.75 41.2448 78.75H30.0052C29.4719 78.75 28.9545 78.9319 28.5386 79.2655C28.1226 79.5992 27.8329 80.0648 27.7172 80.5854L24.7917 93.75H5.625V97.0312C5.625 97.6529 5.87193 98.249 6.31147 98.6885C6.75101 99.1281 7.34715 99.375 7.96875 99.375H63.2812C63.9029 99.375 64.499 99.1281 64.9385 98.6885C65.3781 98.249 65.625 97.6529 65.625 97.0312V93.75H46.4583Z" fill="#25B1FA"/>
<path d="M35.625 54.375C39.7671 54.375 43.125 51.0171 43.125 46.875C43.125 42.7329 39.7671 39.375 35.625 39.375C31.4829 39.375 28.125 42.7329 28.125 46.875C28.125 51.0171 31.4829 54.375 35.625 54.375Z" fill="#FB8656"/>
<path d="M26.25 106.875H45V101.25L41.25 80.625H30L26.25 101.25V106.875Z" fill="#4DCCFF"/>
<path d="M84.375 33.75H88.125V37.5H84.375V33.75Z" fill="black"/>
<path d="M69.375 33.75H73.125V37.5H69.375V33.75Z" fill="black"/>
<path d="M78.75 50.625C81.9042 50.625 84.375 48.566 84.375 45.9375H80.625C80.625 46.268 79.9132 46.875 78.75 46.875C77.5868 46.875 76.875 46.268 76.875 45.9375H73.125C73.125 48.566 75.5958 50.625 78.75 50.625Z" fill="black"/>
<path d="M115.984 74.1105C115.707 73.1553 115.215 72.276 114.546 71.5399C113.878 70.8038 113.049 70.2303 112.125 69.8634L112.078 69.8449C110.607 69.263 108.976 69.2294 107.483 69.7503C105.989 70.2712 104.733 71.3118 103.943 72.6823C103.931 72.7036 103.92 72.7249 103.908 72.7467L92.9602 93.7777C90.1215 93.9809 87.4649 95.2511 85.5245 97.333C83.584 99.4149 82.5035 102.154 82.5 105H46.875V101.25H63.2813C64.3997 101.249 65.472 100.804 66.2629 100.013C67.0538 99.222 67.4987 98.1497 67.5 97.0312V65.1731C67.952 64.8967 68.4088 64.637 68.8702 64.3941L77.2242 76.0894C77.3977 76.3323 77.6266 76.5302 77.892 76.6668C78.1574 76.8034 78.4515 76.8746 78.75 76.8746C79.0485 76.8746 79.3426 76.8034 79.608 76.6668C79.8734 76.5302 80.1023 76.3323 80.2758 76.0894L88.6296 64.3941C92.5861 66.483 96.2658 69.8494 99.3382 74.2055L102.403 72.0441C98.8484 67.005 94.515 63.1334 89.8202 60.7903L88.5195 54.2862L89.1827 53.8758C90.7691 52.9024 92.137 51.6114 93.2005 50.084C94.264 48.5565 95 46.8256 95.3623 45H98.4375C100.177 44.998 101.845 44.306 103.076 43.0757C104.306 41.8454 104.998 40.1774 105 38.4375V34.6875C104.999 33.4458 104.646 32.2297 103.983 31.1803C103.319 30.1308 102.371 29.2909 101.25 28.7578V19.6875C101.245 15.4621 99.5646 11.4111 96.5767 8.42326C93.5889 5.43543 89.5379 3.75478 85.3125 3.75H72.1875C67.9621 3.75478 63.9111 5.43543 60.9233 8.42326C57.9354 11.4111 56.2548 15.4621 56.25 19.6875V20.625H60V19.6875C60.0037 16.4563 61.2889 13.3585 63.5737 11.0737C65.8585 8.78887 68.9563 7.50366 72.1875 7.5H85.3125C88.5437 7.50366 91.6415 8.78887 93.9263 11.0737C96.2111 13.3585 97.4963 16.4563 97.5 19.6875V28.125H95.625C95.625 27.6277 95.4275 27.1508 95.0758 26.7992C94.7242 26.4475 94.2473 26.25 93.75 26.25H89.3672C86.4548 26.2417 83.5935 25.4835 81.0592 24.0485C78.5248 22.6136 76.4026 20.5501 74.8971 18.057L74.733 17.7853C74.5865 17.541 74.3861 17.3333 74.1472 17.1779C73.9083 17.0226 73.6371 16.9238 73.3543 16.889C73.0715 16.8542 72.7845 16.8843 72.5151 16.977C72.2456 17.0697 72.0009 17.2227 71.7994 17.4241L62.4244 26.7991C62.2502 26.9732 62.1121 27.1799 62.0178 27.4074C61.9236 27.6349 61.875 27.8788 61.875 28.125H60V24.375H56.25V28.7578C55.1285 29.2909 54.181 30.1308 53.5173 31.1803C52.8536 32.2297 52.5009 33.4458 52.5 34.6875V38.4375C52.502 40.1774 53.194 41.8454 54.4243 43.0757C55.6546 44.306 57.3226 44.998 59.0625 45H62.1504C62.5174 46.8032 63.249 48.5123 64.3003 50.0226C65.3516 51.5328 66.7005 52.8123 68.2641 53.7825L68.9906 54.2365L67.6798 60.7903C67.2685 60.9952 66.8597 61.2119 66.4533 61.4405C66.058 60.9879 65.5704 60.6252 65.0233 60.3767C64.4761 60.1282 63.8822 59.9998 63.2813 60H42.7873L41.7349 54.7392C44.3312 53.3736 46.3952 51.1776 47.5973 48.5017C48.7995 45.8258 49.0705 42.8243 48.3672 39.9764C47.6639 37.1284 46.0267 34.5981 43.7171 32.7895C41.4075 30.9808 38.5585 29.9981 35.625 29.9981C32.6915 29.9981 29.8425 30.9808 27.5329 32.7895C25.2233 34.5981 23.5861 37.1284 22.8828 39.9764C22.1795 42.8243 22.4505 45.8258 23.6527 48.5017C24.8548 51.1776 26.9188 53.3736 29.5151 54.7392L28.4627 60H7.96875C6.85027 60.0013 5.77797 60.4462 4.98708 61.2371C4.1962 62.028 3.7513 63.1003 3.75 64.2188V73.125H7.5V64.2188C7.5 64.0944 7.54939 63.9752 7.63729 63.8873C7.7252 63.7994 7.84443 63.75 7.96875 63.75H63.2813C63.4056 63.75 63.5248 63.7994 63.6127 63.8873C63.7006 63.9752 63.75 64.0944 63.75 64.2188V97.0312C63.75 97.1556 63.7006 97.2748 63.6127 97.3627C63.5248 97.4506 63.4056 97.5 63.2813 97.5H46.2239L43.0948 80.2896C43.0162 79.8576 42.7885 79.4668 42.4514 79.1855C42.1143 78.9041 41.6891 78.75 41.25 78.75H30C29.5609 78.75 29.1357 78.9041 28.7986 79.1855C28.4615 79.4668 28.2338 79.8576 28.1552 80.2896L25.0261 97.5H7.96875C7.84443 97.5 7.7252 97.4506 7.63729 97.3627C7.54939 97.2748 7.5 97.1556 7.5 97.0312V76.875H3.75V97.0312C3.7513 98.1497 4.1962 99.222 4.98708 100.013C5.77797 100.804 6.85027 101.249 7.96875 101.25H24.375V105H5.625C5.12772 105 4.65081 105.198 4.29917 105.549C3.94754 105.901 3.75 106.378 3.75 106.875V114.375C3.75 114.872 3.94754 115.349 4.29917 115.701C4.65081 116.052 5.12772 116.25 5.625 116.25H82.5V112.5H7.5V108.75H112.5V112.5H86.25V116.25H114.375C114.872 116.25 115.349 116.052 115.701 115.701C116.052 115.349 116.25 114.872 116.25 114.375V106.875C116.25 106.378 116.052 105.901 115.701 105.549C115.349 105.198 114.872 105 114.375 105H112.477C112.379 101.099 111.952 97.2142 111.199 93.3858L107.52 94.1142C108.225 97.7028 108.628 101.344 108.724 105H105C105.003 102.589 104.226 100.241 102.787 98.3067L115.047 79.7398C115.62 78.9338 116.002 78.0082 116.164 77.033C116.326 76.0578 116.264 75.0584 115.984 74.1105ZM35.5519 52.5C34.0665 52.4807 32.6491 51.8746 31.6089 50.814C30.5688 49.7534 29.9905 48.3244 30.0001 46.8389C30.0098 45.3534 30.6067 43.9321 31.6605 42.8851C32.7143 41.8381 34.1395 41.2505 35.625 41.2505C37.1105 41.2505 38.5357 41.8381 39.5895 42.8851C40.6434 43.9321 41.2402 45.3534 41.2499 46.8389C41.2595 48.3244 40.6812 49.7534 39.6411 50.814C38.6009 51.8746 37.1835 52.4807 35.6981 52.5H35.625H35.5519ZM35.625 33.75C37.0151 33.7505 38.3877 34.06 39.6435 34.6561C40.8993 35.2522 42.0069 36.12 42.8862 37.1966C43.7654 38.2733 44.3944 39.5319 44.7276 40.8815C45.0607 42.2311 45.0897 43.6378 44.8125 45C44.3801 42.8827 43.2296 40.9797 41.5556 39.6131C39.8816 38.2464 37.787 37.4999 35.6259 37.4999C33.4649 37.4999 31.3702 38.2464 29.6963 39.6131C28.0223 40.9797 26.8718 42.8827 26.4394 45C26.1622 43.638 26.1912 42.2314 26.5242 40.882C26.8573 39.5325 27.4861 38.274 28.3651 37.1973C29.2442 36.1207 30.3516 35.2529 31.6071 34.6567C32.8627 34.0605 34.2351 33.7508 35.625 33.75ZM32.287 60L33.0865 56.0037C34.7629 56.3321 36.4871 56.3321 38.1635 56.0037L38.963 60H32.287ZM98.4375 31.875C99.1832 31.8758 99.8981 32.1724 100.425 32.6997C100.953 33.2269 101.249 33.9418 101.25 34.6875V38.4375C101.249 39.1832 100.953 39.8981 100.425 40.4253C99.8981 40.9526 99.1832 41.2492 98.4375 41.25H95.625V31.875H98.4375ZM56.25 38.4375V34.6875C56.2508 33.9418 56.5474 33.2269 57.0747 32.6997C57.6019 32.1724 58.3168 31.8758 59.0625 31.875H61.875V41.25H59.0625C58.3168 41.2492 57.6019 40.9526 57.0747 40.4253C56.5474 39.8981 56.2508 39.1832 56.25 38.4375ZM65.625 42.255V28.9017L72.829 21.6977C74.755 24.2672 77.2512 26.3544 80.1211 27.7951C82.9909 29.2358 86.156 29.9905 89.3672 30H91.875V42.3152C91.881 43.9935 91.4552 45.6452 90.6383 47.1113C89.8215 48.5774 88.6412 49.8088 87.2109 50.6869L82.722 53.4637C81.5334 54.2053 80.1599 54.5969 78.759 54.5937C77.358 54.5904 75.9864 54.1925 74.8013 53.4455L70.2516 50.6016C68.8322 49.7208 67.6619 48.4914 66.8521 47.0304C66.0422 45.5694 65.6198 43.9254 65.625 42.255ZM72.8128 56.625C74.5905 57.7457 76.648 58.3427 78.7494 58.3475C80.8508 58.3523 82.911 57.7647 84.6937 56.6522L85.1156 56.3911L86.1267 61.4456L78.75 71.7741L71.3728 61.4461L72.39 56.3602L72.8128 56.625ZM28.125 105V101.419L31.5649 82.5H39.6851L43.125 101.419V105H28.125ZM86.25 105C86.25 103.011 87.0402 101.103 88.4467 99.6967C89.8532 98.2902 91.7609 97.5 93.75 97.5C95.7391 97.5 97.6468 98.2902 99.0533 99.6967C100.46 101.103 101.25 103.011 101.25 105H86.25ZM111.975 77.5903C111.961 77.6091 111.948 77.6278 111.936 77.647L100.033 95.6719C99.0889 95.0334 98.053 94.5426 96.9609 94.2164L107.217 74.5151C107.559 73.9364 108.097 73.4988 108.733 73.2808C109.368 73.0628 110.061 73.0788 110.686 73.3259L110.733 73.3444C111.129 73.5026 111.483 73.7487 111.77 74.0641C112.057 74.3795 112.268 74.7558 112.388 75.1648C112.507 75.5738 112.533 76.0046 112.462 76.4248C112.391 76.845 112.225 77.2435 111.977 77.5903H111.975Z" fill="black"/>
<path d="M33.75 45H37.5V48.75H33.75V45Z" fill="black"/>
<path d="M24.375 69.375H37.5V73.125H24.375V69.375Z" fill="black"/>
<path d="M41.25 69.375H46.875V73.125H41.25V69.375Z" fill="black"/>
</svg>
