<svg width="40" height="40" viewBox="0 0 40 40" fill="none" xmlns="http://www.w3.org/2000/svg">
<path d="M20 40C31.0457 40 40 31.0457 40 20C40 8.9543 31.0457 0 20 0C8.9543 0 0 8.9543 0 20C0 31.0457 8.9543 40 20 40Z" fill="#222435"/>
<path d="M24.6272 8.55212H15.3729C11.6119 8.55212 8.55225 11.6118 8.55225 15.3727V24.627C8.55225 28.3878 11.6119 31.4477 15.3729 31.4477H24.6272C28.388 31.4477 31.4479 28.388 31.4479 24.627V15.3727C31.4479 11.6118 28.3881 8.55212 24.6272 8.55212ZM29.1446 24.6271C29.1446 27.122 27.1221 29.1445 24.6272 29.1445H15.3729C12.8781 29.1445 10.8556 27.122 10.8556 24.6271V15.3728C10.8556 12.878 12.8781 10.8554 15.3729 10.8554H24.6272C27.1221 10.8554 29.1446 12.8781 29.1446 15.3728V24.6271Z" fill="white"/>
<path d="M20.0001 14.0782C16.7349 14.0782 14.0784 16.7348 14.0784 20C14.0784 23.2649 16.7349 25.9214 20.0001 25.9214C23.2652 25.9214 25.9216 23.2651 25.9216 20C25.9216 16.7348 23.2652 14.0782 20.0001 14.0782ZM20.0001 23.6182C18.0017 23.6182 16.3817 21.9984 16.3817 20C16.3817 18.0015 18.0017 16.3815 20.0001 16.3815C21.9984 16.3815 23.6183 18.0014 23.6183 20C23.6183 21.9983 21.9984 23.6182 20.0001 23.6182Z" fill="white"/>
</svg>
