<svg width="250" height="166" viewBox="0 0 250 166" fill="none" xmlns="http://www.w3.org/2000/svg">
<g clip-path="url(#clip0)">
<path fill-rule="evenodd" clip-rule="evenodd" d="M6.92811 143.373C13.1399 130.22 11.9752 130.877 9.06338 118.999C6.15164 107.12 0.910463 75.6726 15.6634 49.8549C30.4165 24.037 49.246 20.7369 58.3697 23.843C67.4932 26.9489 74.8698 31.996 90.5936 24.2311C106.317 16.4663 145.141 -6.43967 173.871 6.95452C202.6 20.3487 190.692 42.7305 200.786 52.2424C210.88 61.7542 234.629 64.2196 242.006 87.3198C249.383 110.42 237.153 161.176 209.394 164.237L15.6634 165.55C15.6634 165.55 0.716296 156.526 6.92811 143.373Z" fill="#FEEFDC"/>
<path fill-rule="evenodd" clip-rule="evenodd" d="M205.663 82.2686C208.447 82.2662 214.967 82.3558 220.596 83.1516C222.924 83.4808 225.049 81.7259 225.128 79.3757C225.161 78.4138 224.88 77.2768 224.06 75.96C220.901 70.8902 214.67 75.2104 214.588 77.6889C214.588 77.6889 213.592 73.8937 209.891 74.3395C206.189 74.7853 207.179 80.2789 207.179 80.2789C207.179 80.2789 206.011 79.9623 205.159 80.4756C204.323 80.9805 204.685 82.2696 205.663 82.2686Z" fill="white"/>
<path fill-rule="evenodd" clip-rule="evenodd" d="M203.085 164.484C203.909 163.672 210.327 152.309 214.771 158.152C214.771 158.152 222.033 141.676 231.23 144.902C231.23 144.902 237.093 148.25 232.834 156.591C232.834 156.591 247.03 155.697 246.845 164.484H203.085Z" fill="#258D8C"/>
<path fill-rule="evenodd" clip-rule="evenodd" d="M225.05 146.821C225.029 146.821 225.008 146.811 224.993 146.793C224.969 146.762 224.974 146.718 225.006 146.693C225.078 146.638 226.778 145.329 228.335 145.145C228.374 145.14 228.41 145.168 228.414 145.207C228.419 145.247 228.391 145.282 228.352 145.286C226.837 145.465 225.112 146.792 225.095 146.805C225.081 146.816 225.066 146.821 225.05 146.821Z" fill="black"/>
<path fill-rule="evenodd" clip-rule="evenodd" d="M225.05 147.646C225.029 147.646 225.008 147.637 224.994 147.62C224.969 147.589 224.974 147.544 225.005 147.519C225.016 147.511 226.183 146.587 227.671 146.158C227.708 146.147 227.748 146.169 227.76 146.207C227.771 146.244 227.749 146.284 227.711 146.295C226.252 146.714 225.107 147.621 225.096 147.631C225.082 147.641 225.066 147.646 225.05 147.646Z" fill="black"/>
<path fill-rule="evenodd" clip-rule="evenodd" d="M238.067 141.496C236.428 143.446 235.957 145.73 237.017 146.596C238.077 147.463 240.265 146.583 241.904 144.633C243.544 142.681 244.014 140.398 242.955 139.532C241.895 138.666 239.707 139.544 238.067 141.496Z" fill="#258D8C"/>
<path fill-rule="evenodd" clip-rule="evenodd" d="M240.569 149.172C239.598 150.327 239.32 151.679 239.947 152.192C240.575 152.704 241.87 152.184 242.841 151.029C243.81 149.874 244.089 148.523 243.461 148.009C242.835 147.497 241.539 148.017 240.569 149.172Z" fill="#258D8C"/>
<path fill-rule="evenodd" clip-rule="evenodd" d="M92.9094 48.8898C98.8217 48.421 113.246 47.4853 121.956 48.6915C123.214 48.8658 124.033 47.3835 123.199 46.4251C122.598 45.7338 121.535 45.1589 119.676 45.0944C119.676 45.0944 121.314 37.0071 113.501 36.324C105.472 35.622 105.446 44.1107 105.446 44.1107C105.446 44.1107 100.712 39.7059 98.4927 45.2381C98.4927 45.2381 93.5176 43.1192 91.2977 45.8325C90.2521 47.1106 91.2642 49.0203 92.9094 48.8898Z" fill="white"/>
<path fill-rule="evenodd" clip-rule="evenodd" d="M126.396 163.127H106.28L106.292 120.982H126.408L126.396 163.127Z" fill="#49263E"/>
<path fill-rule="evenodd" clip-rule="evenodd" d="M176.924 136.3V78.5686C176.924 75.8255 174.701 73.6018 171.958 73.6018H60.0214C57.2783 73.6018 55.0547 75.8255 55.0547 78.5686V136.3H176.924Z" fill="#49263E"/>
<path fill-rule="evenodd" clip-rule="evenodd" d="M55.0547 136.3V145.552C55.0547 147.476 56.3266 149.036 57.8956 149.036H174.084C175.652 149.036 176.924 147.476 176.924 145.552V136.3H55.0547Z" fill="#3A1F33"/>
<path fill-rule="evenodd" clip-rule="evenodd" d="M174.072 133.793V78.7227C174.072 77.2792 172.86 76.1089 171.364 76.1089H60.6157C59.1201 76.1089 57.9077 77.2792 57.9077 78.7227V133.793H174.072Z" fill="#E8F2FC"/>
<path fill-rule="evenodd" clip-rule="evenodd" d="M143.554 164.329C143.895 162.337 142.557 160.722 140.566 160.722H92.1564C90.1648 160.722 88.2731 162.337 87.9316 164.329H143.554Z" fill="#3A1F33"/>
<path fill-rule="evenodd" clip-rule="evenodd" d="M174.084 149.181H57.8957C56.2489 149.181 54.9092 147.553 54.9092 145.552V78.5686C54.9092 75.7497 57.2024 73.4563 60.0214 73.4563V73.7475C57.3631 73.7475 55.2003 75.9103 55.2003 78.5686V145.552C55.2003 147.393 56.4096 148.89 57.8957 148.89H174.084V149.181Z" fill="#21111D"/>
<path fill-rule="evenodd" clip-rule="evenodd" d="M169.173 142.752L168.936 142.582L171.71 138.721L171.946 138.891L169.173 142.752Z" fill="#21111D"/>
<path fill-rule="evenodd" clip-rule="evenodd" d="M169.171 144.58L168.937 144.407L171.711 140.65L171.945 140.823L169.171 144.58Z" fill="#21111D"/>
<path fill-rule="evenodd" clip-rule="evenodd" d="M111.247 152.426L110.994 152.281L112.374 149.867L112.626 150.011L111.247 152.426Z" fill="#21111D"/>
<path fill-rule="evenodd" clip-rule="evenodd" d="M111.477 153.814L111.226 153.667L112.474 151.54L112.726 151.688L111.477 153.814Z" fill="#21111D"/>
<path fill-rule="evenodd" clip-rule="evenodd" d="M112.067 73.25C112.067 73.25 113 69.7684 113.851 69.4029C114.702 69.0375 115.651 69.649 115.651 69.649C115.651 69.649 116.563 68.4059 117.183 68.5243C117.803 68.6427 117.955 69.198 117.955 69.198C117.955 69.198 119.051 69.3144 119.163 70.216C119.163 70.216 120.025 70.425 120.014 71.1333C120.014 71.1333 120.46 71.3351 120.431 72.1931C120.431 72.1931 118.95 75.0885 116.774 76.1139C114.598 77.1392 112.067 73.25 112.067 73.25Z" fill="#FE9F73"/>
<path fill-rule="evenodd" clip-rule="evenodd" d="M92.3301 133.793L92.5891 109.147L92.0346 105.981L78.5864 110.808C78.5864 110.808 79.0006 121.226 79.873 133.793H92.3301Z" fill="#3AA1C9"/>
<path fill-rule="evenodd" clip-rule="evenodd" d="M82.0038 133.793L83.5152 116.408L86.071 103.719L68.6853 111.117C68.6853 111.117 68.5609 121.353 68.7723 133.793H82.0038Z" fill="#4CB7D8"/>
<path fill-rule="evenodd" clip-rule="evenodd" d="M108.341 55.7498L122.485 79.3114L121.308 80.206L110.107 59.4413L108.341 55.7498Z" fill="#683D46"/>
<path fill-rule="evenodd" clip-rule="evenodd" d="M115.548 69.5742C115.548 69.5742 116.174 68.928 116.549 68.7355C116.925 68.5431 119.163 72.6602 119.163 72.6602L119.487 73.6775C119.487 73.6775 119.2 74.2155 119.015 74.1934C118.83 74.1714 118.269 73.7431 118.269 73.7431L118.123 73.1815L117.898 73.1185L117.603 72.8466L117.456 72.4011L117.144 72.5424L116.697 72.3658L116.492 71.9505L116.404 71.9103L115.076 69.776L115.548 69.5742Z" fill="#FE9F73"/>
<path fill-rule="evenodd" clip-rule="evenodd" d="M116.363 71.9868C116.165 71.9868 115.938 71.8504 115.702 71.7088C115.537 71.6097 115.366 71.5074 115.19 71.438C114.668 71.2321 114.429 71.3217 114.427 71.3227C114.39 71.3375 114.348 71.3197 114.332 71.2828C114.317 71.246 114.334 71.204 114.371 71.1884C114.382 71.1836 114.656 71.0715 115.244 71.3025C115.431 71.3764 115.606 71.4818 115.777 71.5839C116.146 71.8057 116.381 71.9326 116.539 71.7584C116.679 71.6035 116.74 71.4199 116.721 71.2129C116.681 70.7718 116.264 70.2087 115.607 69.7069C114.799 69.0891 114.089 69.3942 114.059 69.4074C114.022 69.4236 113.978 69.4073 113.962 69.3707C113.946 69.3341 113.962 69.2911 113.998 69.2746C114.032 69.2597 114.816 68.9187 115.695 69.5911C116.395 70.1252 116.821 70.7115 116.866 71.1997C116.889 71.4487 116.815 71.6695 116.647 71.8559C116.563 71.9495 116.467 71.9868 116.363 71.9868Z" fill="#F07162"/>
<path fill-rule="evenodd" clip-rule="evenodd" d="M116.61 70.7481C116.592 70.7481 116.575 70.7419 116.561 70.7291C116.531 70.7022 116.529 70.6561 116.556 70.6263L117.9 69.149C117.928 69.1193 117.973 69.1172 118.004 69.1441C118.033 69.1712 118.035 69.2172 118.008 69.247L116.663 70.7243C116.649 70.7402 116.63 70.7481 116.61 70.7481Z" fill="#F07162"/>
<path fill-rule="evenodd" clip-rule="evenodd" d="M118.081 73.2384C117.975 73.2384 117.877 73.2044 117.793 73.1364C117.645 73.0541 117.371 72.7825 117.457 72.3897C117.466 72.3507 117.504 72.326 117.544 72.3345C117.584 72.3432 117.608 72.3821 117.6 72.4213C117.514 72.8055 117.859 73.0077 117.873 73.0162C117.961 73.0851 118.052 73.1059 118.159 73.0852C118.881 72.9479 119.941 71.1156 119.951 71.0971C119.971 71.062 120.016 71.0503 120.051 71.0702C120.085 71.0902 120.098 71.1348 120.078 71.1696C120.033 71.2475 118.973 73.0784 118.186 73.2283C118.15 73.2351 118.116 73.2384 118.081 73.2384Z" fill="#F07162"/>
<path fill-rule="evenodd" clip-rule="evenodd" d="M117.105 72.5976C116.945 72.5976 116.807 72.5519 116.694 72.4612C116.442 72.2594 116.41 71.9093 116.409 71.8943C116.406 71.8543 116.436 71.8193 116.475 71.8158C116.513 71.8116 116.551 71.842 116.554 71.8821C116.555 71.8851 116.583 72.1862 116.786 72.3482C116.895 72.4358 117.039 72.4686 117.214 72.4442C117.743 72.3717 118.754 70.785 119.099 70.1798C119.119 70.1449 119.163 70.1328 119.198 70.1526C119.233 70.1725 119.246 70.217 119.225 70.2519C119.174 70.3434 117.942 72.4914 117.233 72.5886C117.189 72.5945 117.147 72.5976 117.105 72.5976Z" fill="#F07162"/>
<path fill-rule="evenodd" clip-rule="evenodd" d="M110.678 72.4496L111.204 71.7903C111.204 71.7903 115.865 73.1007 117.553 76.9223L116.814 77.9175C116.814 77.9175 113.406 73.6639 110.678 72.4496Z" fill="#E2F2F1"/>
<path fill-rule="evenodd" clip-rule="evenodd" d="M94.0388 112.65L94.1242 112.538L93.6772 87.4578C93.6772 87.4578 101.926 92.9903 104.399 93.0967C106.871 93.2023 117.091 78.0308 117.091 78.0308C114.938 73.0866 110.402 72.4012 110.402 72.4012L101.962 81.654L92.0732 72.6838C90.7541 71.8833 80.6189 71.7101 80.6189 71.7101C80.6189 71.7101 69.0824 71.4478 67.7639 72.2482C66.4454 73.0487 61.5953 86.2337 60.842 92.2132C60.0885 98.1936 60.842 102.066 65.4095 102.772L67.071 102.808L67.1988 112.65C67.1988 112.65 76.4045 114.722 94.0388 112.65Z" fill="#EF3A4C"/>
<path fill-rule="evenodd" clip-rule="evenodd" d="M90.1123 104.562H80.0972C79.4632 104.562 78.9492 104.048 78.9492 103.414V90.1361C78.9492 89.502 79.4632 88.9878 80.0972 88.9878H90.1123C90.7464 88.9878 91.2606 89.502 91.2606 90.1361V103.414C91.2606 104.048 90.7464 104.562 90.1123 104.562Z" fill="#49263E"/>
<path fill-rule="evenodd" clip-rule="evenodd" d="M88.23 88.3989H82.4954C82.1703 88.3989 81.9067 88.6627 81.9067 88.9879H88.8187C88.8187 88.6627 88.5552 88.3989 88.23 88.3989Z" fill="#E2F2F1"/>
<path fill-rule="evenodd" clip-rule="evenodd" d="M91.5551 97.0069C92.8857 95.8346 91.4918 95.638 91.4918 95.638C92.1413 94.9357 91.9897 94.6077 91.7518 94.457C91.5772 94.3458 91.3575 94.3342 91.1647 94.4091C90.5536 94.646 88.689 95.378 87.5498 95.9037C86.7399 95.8462 86.9982 94.481 87.3605 93.7817C87.5471 93.421 87.56 92.8262 86.6811 93.4258C85.963 93.916 84.8838 95.5286 84.8838 95.5286L80.3701 95.095L81.0426 101.315C81.0426 101.315 86.1951 101.243 86.9714 101.238C87.7479 101.232 90.3473 100.346 91.133 99.6633C92.5576 98.4229 91.6616 98.3596 91.6616 98.3596C93.021 96.9321 91.5551 97.0069 91.5551 97.0069Z" fill="#FE9F73"/>
<path fill-rule="evenodd" clip-rule="evenodd" d="M89.8628 96.6646C89.8236 96.6675 89.7851 96.6454 89.7693 96.607C89.7496 96.56 89.7724 96.5053 89.8199 96.4852C90.4883 96.2098 91.4294 95.567 91.439 95.5603C91.4812 95.5315 91.5397 95.5421 91.5685 95.5853C91.5983 95.6275 91.5867 95.686 91.5445 95.7148C91.5052 95.7417 90.5775 96.3748 89.8911 96.6579C89.8818 96.6617 89.8723 96.6636 89.8628 96.6646Z" fill="#F07162"/>
<path fill-rule="evenodd" clip-rule="evenodd" d="M89.9555 97.8435C89.9116 97.8464 89.87 97.8185 89.8581 97.7744C89.8449 97.7245 89.8744 97.6737 89.9241 97.6603C90.7734 97.4319 91.4948 96.9351 91.5024 96.9303C91.5447 96.9005 91.6032 96.9111 91.6319 96.9533C91.6617 96.9955 91.6511 97.054 91.6089 97.0837C91.5782 97.1048 90.854 97.6037 89.9725 97.8406L89.9555 97.8435Z" fill="#F07162"/>
<path fill-rule="evenodd" clip-rule="evenodd" d="M90.2677 99.1712C90.2245 99.1741 90.1842 99.1472 90.1708 99.105C90.1564 99.0551 90.1842 99.0033 90.2341 98.9889C90.9613 98.7702 91.5993 98.2906 91.605 98.2849C91.6463 98.2542 91.7048 98.2618 91.7365 98.3031C91.7672 98.3443 91.7595 98.4028 91.7183 98.4345C91.6914 98.4546 91.0467 98.94 90.2869 99.1674L90.2677 99.1712Z" fill="#F07162"/>
<path fill-rule="evenodd" clip-rule="evenodd" d="M69.6001 93.9255L69.4121 93.703L71.2495 92.1498L71.9509 83.6313L72.2412 83.6552L71.5298 92.2947L69.6001 93.9255Z" fill="#21111D"/>
<path fill-rule="evenodd" clip-rule="evenodd" d="M67.0676 102.954L65.3871 102.917C63.1453 102.57 61.7081 101.459 60.9935 99.5214C60.3735 97.8397 60.2793 95.5124 60.6972 92.1951L60.9862 92.2315C60.1346 98.9919 61.4198 102.004 65.4221 102.628L67.0739 102.663L67.0676 102.954Z" fill="#21111D"/>
<path fill-rule="evenodd" clip-rule="evenodd" d="M83.2204 93.6101H84.127C84.127 93.6101 85.0924 99.8179 83.7739 102.667H82.6465C82.6465 102.667 83.9617 96.844 83.2204 93.6101Z" fill="#E2F2F1"/>
<path fill-rule="evenodd" clip-rule="evenodd" d="M78.4787 92.6755L83.0203 92.9672C83.0203 92.9672 83.9384 95.8624 82.8349 101.734C82.7278 102.304 82.5022 103.279 82.5022 103.279C82.5022 103.279 77.8907 103.646 77.1669 102.149C76.7124 101.208 77.706 97.145 77.706 97.145L78.4787 92.6755Z" fill="#EF3A4C"/>
<path fill-rule="evenodd" clip-rule="evenodd" d="M82.6143 103.429L67.0664 102.954L67.0752 102.663L82.3888 103.13C82.6077 102.224 84.0099 96.1262 82.9167 93.1063L71.3802 92.3676L71.3987 92.0769L83.1223 92.8271L83.1558 92.9144C84.4295 96.2164 82.7166 103.027 82.6431 103.315L82.6143 103.429Z" fill="#21111D"/>
<path fill-rule="evenodd" clip-rule="evenodd" d="M102.064 84.1289L101.822 81.7241L92.2468 73.0379C91.5446 72.4012 90.1804 72.3928 90.167 72.3928V72.1016C90.2293 72.1016 91.6568 72.1099 92.4425 72.8222L102.101 81.5837L102.353 84.1001L102.064 84.1289Z" fill="#21111D"/>
<path fill-rule="evenodd" clip-rule="evenodd" d="M102.069 81.7521L101.854 81.5559L110.347 72.2449L110.425 72.2575C110.47 72.2649 114.961 73.0501 117.224 77.9699L116.959 78.0916C114.923 73.6661 111.045 72.6853 110.455 72.5599L102.069 81.7521Z" fill="#21111D"/>
<path fill-rule="evenodd" clip-rule="evenodd" d="M86.0924 71.9097C83.3055 71.756 80.6188 71.71 80.6188 71.71C80.6188 71.71 78.3852 71.6593 75.7717 71.6706C75.7715 71.6859 75.7705 71.701 75.7705 71.7163C75.7705 74.568 78.0822 76.8798 80.9339 76.8798C83.7207 76.8798 85.9905 74.6716 86.0924 71.9097Z" fill="#E2F2F1"/>
<path fill-rule="evenodd" clip-rule="evenodd" d="M83.0155 113.66C82.9289 113.66 82.844 113.659 82.7603 113.658L82.763 113.367C86.4032 113.406 92.8942 112.641 93.8919 112.521L93.5302 85.0461L93.8219 85.0422L94.1864 112.778L94.0569 112.794C93.9849 112.803 87.0095 113.66 83.0155 113.66Z" fill="#21111D"/>
<path fill-rule="evenodd" clip-rule="evenodd" d="M77.854 77.151C76.3878 76.2373 75.3235 74.8223 74.8569 73.1669L75.1372 73.0879C75.584 74.6734 76.6036 76.0286 78.0081 76.9039L77.854 77.151Z" fill="#21111D"/>
<path fill-rule="evenodd" clip-rule="evenodd" d="M78.9727 61.2551C78.9727 61.2551 81.0297 60.3802 82.8559 61.008C83.9133 61.3715 84.6158 62.3768 84.6158 63.4951V64.5885L78.9869 62.1848C78.9869 62.1848 78.0967 62.6059 78.1681 62.478C78.2395 62.3501 78.9727 61.2551 78.9727 61.2551Z" fill="#FE9F73"/>
<path fill-rule="evenodd" clip-rule="evenodd" d="M84.6155 63.372V67.9835C84.6155 67.9835 84.6842 69.631 83.2424 69.837L83.5116 72.0353C83.6116 72.8524 83.1231 73.6347 82.3382 73.8832C81.9545 74.0047 81.4964 74.0934 80.977 74.0934C79.3293 74.0934 78.4368 72.8577 78.2995 72.2398C78.1622 71.622 78.5741 68.67 78.5741 68.67L78.524 67.2194L78.7114 61.5989L84.6155 63.372Z" fill="#FE9F73"/>
<path fill-rule="evenodd" clip-rule="evenodd" d="M80.638 65.5463C80.6209 65.5463 80.6037 65.54 80.5905 65.5271C80.5631 65.501 80.5622 65.4575 80.5885 65.4302C80.5979 65.4203 81.5421 64.4544 82.4049 65.1497C82.4344 65.1734 82.4391 65.2166 82.4154 65.2462C82.3916 65.2758 82.3484 65.2804 82.3187 65.2565C81.5543 64.6406 80.7225 65.4889 80.6876 65.5252C80.674 65.5392 80.656 65.5463 80.638 65.5463Z" fill="#21111D"/>
<path fill-rule="evenodd" clip-rule="evenodd" d="M83.4676 65.1345C83.4484 65.1345 83.4293 65.1265 83.4157 65.1108C83.3909 65.0822 83.3939 65.0389 83.4226 65.014C83.4502 64.99 84.1051 64.43 84.5191 64.785C84.5479 64.8097 84.5512 64.853 84.5265 64.8817C84.5019 64.9106 84.4585 64.914 84.4298 64.8892C84.1054 64.6111 83.5184 65.1127 83.5126 65.1178C83.4995 65.129 83.4835 65.1345 83.4676 65.1345Z" fill="#21111D"/>
<path fill-rule="evenodd" clip-rule="evenodd" d="M82.0257 65.8239C82.0257 65.9377 81.9335 66.0299 81.8197 66.0299C81.7061 66.0299 81.6138 65.9377 81.6138 65.8239C81.6138 65.7102 81.7061 65.6179 81.8197 65.6179C81.9335 65.6179 82.0257 65.7102 82.0257 65.8239Z" fill="black"/>
<path fill-rule="evenodd" clip-rule="evenodd" d="M84.2151 65.6177C84.2151 65.7315 84.1229 65.8237 84.0092 65.8237C83.8955 65.8237 83.8032 65.7315 83.8032 65.6177C83.8032 65.5041 83.8955 65.4119 84.0092 65.4119C84.1229 65.4119 84.2151 65.5041 84.2151 65.6177Z" fill="black"/>
<path fill-rule="evenodd" clip-rule="evenodd" d="M78.9733 61.1832C78.9733 61.1832 77.2293 61.0994 76.7869 62.6251C76.3445 64.1507 77.0985 64.9571 77.1137 65.412C77.129 65.8668 76.8206 68.9332 78.9733 68.7044L79.5547 63.6394L78.8054 61.6229L78.9733 61.1832Z" fill="#21111D"/>
<path fill-rule="evenodd" clip-rule="evenodd" d="M80.325 65.7523C80.325 66.4348 79.7717 66.988 79.0892 66.988C78.4068 66.988 77.8535 66.4348 77.8535 65.7523C77.8535 65.0698 78.4068 64.5166 79.0892 64.5166C79.7717 64.5166 80.325 65.0698 80.325 65.7523Z" fill="#FE9F73"/>
<path fill-rule="evenodd" clip-rule="evenodd" d="M78.9976 66.5096C78.7409 66.5096 78.5695 66.3166 78.5131 66.1238C78.4463 65.8957 78.5227 65.6741 78.708 65.5592C78.9817 65.3893 79.2298 65.4983 79.3569 65.5818C79.3036 65.4417 79.2199 65.3395 79.1074 65.2776C78.8639 65.1436 78.562 65.2413 78.5589 65.2422C78.5409 65.2483 78.5215 65.2385 78.5156 65.2204C78.5095 65.2025 78.5192 65.1831 78.5372 65.1771C78.5507 65.1726 78.8699 65.069 79.14 65.2173C79.2959 65.3028 79.402 65.4543 79.4553 65.6675L79.4852 65.787L79.3978 65.7001C79.3854 65.6877 79.0916 65.402 78.7442 65.6175C78.5519 65.7369 78.5349 65.9544 78.5789 66.1045C78.6245 66.2603 78.7613 66.4409 78.9973 66.4409L79.0044 66.4408C79.0232 66.4408 79.0385 66.4559 79.0388 66.4747C79.0391 66.4936 79.0239 66.5092 79.0049 66.5095L78.9976 66.5096Z" fill="#F07162"/>
<path fill-rule="evenodd" clip-rule="evenodd" d="M79.9004 68.4373C79.9004 68.4373 79.9971 71.195 83.4412 71.4584L83.2427 69.8369C83.2427 69.8369 81.009 70.2858 79.9004 68.4373Z" fill="#F07162"/>
<path fill-rule="evenodd" clip-rule="evenodd" d="M84.8545 67.2081C84.8545 67.2081 85.3035 70.509 83.1115 70.6264C79.9752 70.7942 79.6715 69.0042 79.4851 67.5395L79.4536 64.5167L79.5542 63.6394V63.6395C79.7759 63.8902 79.9114 64.2048 79.9412 64.5381C80.0062 65.263 80.1668 67.2159 80.3477 67.3023C80.6032 67.4243 84.3664 66.8902 84.8545 67.2081Z" fill="#21111D"/>
<path fill-rule="evenodd" clip-rule="evenodd" d="M82.7526 67.2131C82.7382 67.2131 82.7248 67.204 82.72 67.1895C82.7141 67.1714 82.7238 67.1521 82.7419 67.1461L83.4299 66.9186L83.2125 65.2992C83.21 65.2804 83.2232 65.2632 83.2419 65.2607C83.2609 65.2576 83.278 65.2713 83.2806 65.29L83.5055 66.966L82.7635 67.2113L82.7526 67.2131Z" fill="#F07162"/>
<path fill-rule="evenodd" clip-rule="evenodd" d="M78.5234 69.0536L78.7628 66.729L79.3399 66.793V69.1207L78.5234 69.0536Z" fill="#FE9F73"/>
<path fill-rule="evenodd" clip-rule="evenodd" d="M79.2957 61.1372C79.2957 61.1372 78.8915 62.102 79.5545 63.7112C80.2176 65.3205 77.8535 63.111 77.8535 63.111C77.8535 63.111 78.0176 60.7558 79.2957 61.1372Z" fill="#21111D"/>
<path fill-rule="evenodd" clip-rule="evenodd" d="M81.954 67.9181C82.5088 68.6353 83.2667 68.2952 83.2744 68.2916C83.2983 68.2804 83.3087 68.2521 83.2976 68.2282C83.2865 68.2044 83.2582 68.1939 83.2343 68.2049C83.2055 68.2181 82.5368 68.5155 82.0299 67.8602C82.0206 67.8483 82.0114 67.8361 82.0024 67.8235C81.9883 67.8036 81.9571 67.7974 81.9357 67.8129C81.9144 67.8284 81.9097 67.8583 81.9251 67.8796C81.9346 67.8927 81.9443 67.9056 81.954 67.9181Z" fill="#F07162"/>
<path fill-rule="evenodd" clip-rule="evenodd" d="M119.099 74.2464L119.087 74.2454C118.687 74.177 118.403 74.0208 118.242 73.781C118.045 73.4872 118.11 73.1787 118.113 73.1658C118.122 73.1267 118.16 73.1017 118.201 73.1107C118.239 73.1193 118.264 73.1581 118.255 73.1973C118.255 73.1999 118.201 73.4608 118.364 73.7019C118.502 73.9061 118.754 74.0407 119.112 74.1019C119.151 74.1086 119.178 74.1462 119.171 74.1859C119.166 74.2214 119.135 74.2464 119.099 74.2464Z" fill="#F07162"/>
<path fill-rule="evenodd" clip-rule="evenodd" d="M174.217 133.939H57.9077V133.647H173.927V78.7228C173.927 77.3618 172.776 76.2545 171.364 76.2545V75.9634C172.938 75.9634 174.217 77.2013 174.217 78.7228V133.939Z" fill="#21111D"/>
<path fill-rule="evenodd" clip-rule="evenodd" d="M79.5544 63.7114C79.5544 63.7114 84.8022 63.4006 85.1257 62.1711C85.4492 60.9417 84.215 60.9093 84.215 60.9093C84.215 60.9093 84.4463 59.1622 82.861 59.6799C81.2757 60.1975 78.3388 60.1298 77.5132 61.599C76.6874 63.0682 79.5544 63.7114 79.5544 63.7114Z" fill="#21111D"/>
<path fill-rule="evenodd" clip-rule="evenodd" d="M100.928 114.755L99.8571 115.539L98.821 112.005L100.928 114.755ZM99.1069 116.088L97.8425 117.013C97.6477 117.155 97.6055 117.428 97.7475 117.623C97.8329 117.74 97.9662 117.802 98.1005 117.802C98.1898 117.802 98.2799 117.774 98.3586 117.718L99.3678 116.978L100.257 120.01C100.313 120.2 100.486 120.324 100.675 120.324C100.717 120.324 100.758 120.318 100.799 120.306C101.03 120.239 101.163 119.995 101.095 119.764L100.118 116.43L101.459 115.449L103.047 117.521C103.194 117.713 103.468 117.749 103.659 117.603C103.851 117.456 103.887 117.182 103.74 116.991L102.164 114.933L103.017 114.309C103.212 114.167 103.254 113.894 103.111 113.699C102.969 113.504 102.696 113.462 102.501 113.605L101.633 114.239L98.6857 110.392C98.5015 110.152 98.184 110.079 97.9135 110.217C97.6429 110.353 97.5134 110.652 97.5988 110.943L99.1069 116.088Z" fill="#F75553"/>
<path fill-rule="evenodd" clip-rule="evenodd" d="M105.918 104.308C105.93 104.317 105.955 104.339 105.991 104.389C106.304 104.829 106.126 106.02 105.754 107.33L105.149 105.258C105.576 104.507 105.805 104.33 105.918 104.308ZM109.085 107.664C109.439 107.72 109.713 107.955 109.924 108.384C110.137 108.818 110.162 109.249 110 109.7C109.568 110.896 107.987 111.868 107.201 112.289L106.263 109.077C106.943 108.46 108.195 107.523 109.085 107.664ZM103.802 107.377C104.11 107.377 104.192 107.2 104.465 106.612C104.5 106.535 104.535 106.461 104.568 106.389L105.274 108.806C105.265 108.831 105.256 108.856 105.246 108.881C105.232 108.91 105.222 108.94 105.214 108.971C105.039 109.443 104.855 109.895 104.676 110.3C104.578 110.521 104.677 110.779 104.897 110.877C104.955 110.903 105.015 110.914 105.074 110.914C105.242 110.914 105.401 110.817 105.474 110.655C105.522 110.548 105.592 110.387 105.676 110.183L106.705 113.706C106.76 113.897 106.934 114.02 107.124 114.02C107.164 114.02 107.205 114.015 107.246 114.003C107.478 113.935 107.61 113.692 107.543 113.461L107.451 113.146C108.262 112.73 110.251 111.574 110.82 109.998C111.066 109.321 111.027 108.648 110.708 107.999C110.283 107.134 109.663 106.871 109.219 106.801C108.312 106.66 107.32 107.172 106.561 107.712C106.989 106.248 107.251 104.655 106.704 103.883C106.399 103.454 106.037 103.42 105.848 103.437C105.46 103.473 105.104 103.779 104.771 104.232C104.663 104.142 104.515 104.106 104.37 104.148C104.138 104.216 104.005 104.459 104.073 104.69L104.208 105.151C104.023 105.497 103.845 105.87 103.671 106.245C103.6 106.399 103.522 106.569 103.482 106.643C103.409 106.721 103.365 106.826 103.365 106.941C103.365 107.181 103.561 107.377 103.802 107.377Z" fill="#258D8C"/>
<path fill-rule="evenodd" clip-rule="evenodd" d="M116.909 112.369C117.384 112.369 117.922 112.312 118.533 112.184C118.769 112.134 118.921 111.903 118.871 111.667C118.821 111.431 118.591 111.279 118.354 111.329C116.313 111.757 115.018 111.363 114.505 110.158C113.657 108.166 115.089 104.783 116.101 104.094C116.535 103.798 116.942 103.696 117.314 103.791C118.013 103.97 118.432 104.776 118.441 104.792C118.549 105.007 118.811 105.093 119.027 104.986C119.242 104.878 119.33 104.615 119.222 104.4C119.198 104.353 118.626 103.229 117.537 102.946C116.911 102.783 116.261 102.927 115.609 103.371C114.202 104.331 112.728 108.216 113.701 110.501C114.088 111.409 114.959 112.369 116.909 112.369Z" fill="#397FA1"/>
<path fill-rule="evenodd" clip-rule="evenodd" d="M110.294 118.756L101.015 125.126L100.636 128.913L98.7278 126.227L96.3861 127.906C96.1904 128.047 96.1453 128.319 96.2863 128.516C96.4263 128.712 96.6998 128.757 96.8955 128.616L98.5234 127.448L101.274 131.318L101.844 125.616L110.789 119.476C110.988 119.34 111.039 119.068 110.902 118.869C110.765 118.67 110.494 118.62 110.294 118.756Z" fill="#61A3C5"/>
<path fill-rule="evenodd" clip-rule="evenodd" d="M123.269 121.547C123.178 121.324 122.924 121.216 122.701 121.307L114.634 124.586C114.41 124.676 114.303 124.931 114.394 125.154C114.463 125.324 114.626 125.427 114.799 125.427C114.853 125.427 114.909 125.416 114.963 125.394L123.03 122.116C123.253 122.025 123.361 121.771 123.269 121.547Z" fill="#F75553"/>
<path fill-rule="evenodd" clip-rule="evenodd" d="M118.243 120.417C117.838 120.417 117.51 120.745 117.51 121.151C117.51 121.556 117.838 121.884 118.243 121.884C118.648 121.884 118.977 121.556 118.977 121.151C118.977 120.745 118.648 120.417 118.243 120.417Z" fill="#F75553"/>
<path fill-rule="evenodd" clip-rule="evenodd" d="M119.71 124.99C119.306 124.99 118.978 125.319 118.978 125.723C118.978 126.128 119.306 126.456 119.71 126.456C120.115 126.456 120.444 126.128 120.444 125.723C120.444 125.319 120.115 124.99 119.71 124.99Z" fill="#F75553"/>
<path fill-rule="evenodd" clip-rule="evenodd" d="M115.876 100.005C115.961 100.086 116.07 100.127 116.179 100.127C116.293 100.127 116.408 100.082 116.494 99.9933L118.702 97.6986L120.912 99.9933C120.997 100.082 121.111 100.127 121.226 100.127C121.335 100.127 121.444 100.086 121.528 100.005C121.703 99.8369 121.708 99.5606 121.541 99.387L119.309 97.0693L121.541 94.7515C121.708 94.5779 121.703 94.3016 121.528 94.1337C121.355 93.9668 121.079 93.9716 120.912 94.1453L118.702 96.44L116.494 94.1453C116.326 93.9716 116.05 93.9668 115.876 94.1337C115.702 94.3016 115.697 94.5779 115.865 94.7515L118.096 97.0693L115.865 99.387C115.697 99.5606 115.702 99.8369 115.876 100.005Z" fill="#FE9F73"/>
<path fill-rule="evenodd" clip-rule="evenodd" d="M31.7806 125.812H25.6766L23.2178 161.134H34.2395L31.7806 125.812Z" fill="#258D8C"/>
<path fill-rule="evenodd" clip-rule="evenodd" d="M32.1706 126.521H25.2329C24.7305 126.521 24.3232 126.114 24.3232 125.612V122.25H33.0803V125.612C33.0803 126.114 32.6729 126.521 32.1706 126.521Z" fill="#F99247"/>
<path fill-rule="evenodd" clip-rule="evenodd" d="M30.4705 126.667H25.7037C24.8623 126.667 24.1777 125.982 24.1777 125.141V122.25H24.4689V125.141C24.4689 125.822 25.0228 126.376 25.7037 126.376H30.4705V126.667Z" fill="#21111D"/>
<path fill-rule="evenodd" clip-rule="evenodd" d="M47.1861 106.031C47.1861 116.276 38.8813 124.58 28.637 124.58C18.3926 124.58 10.0879 116.276 10.0879 106.031C10.0879 95.7866 18.3926 87.4817 28.637 87.4817C38.8813 87.4817 47.1861 95.7866 47.1861 106.031Z" fill="#FECC86"/>
<path fill-rule="evenodd" clip-rule="evenodd" d="M44.6413 106.031C44.6413 114.87 37.4761 122.035 28.6373 122.035C19.7985 122.035 12.6333 114.87 12.6333 106.031C12.6333 97.1921 19.7985 90.0269 28.6373 90.0269C37.4761 90.0269 44.6413 97.1921 44.6413 106.031Z" fill="#E2F2F1"/>
<path fill-rule="evenodd" clip-rule="evenodd" d="M28.6371 124.726C18.3289 124.726 9.94238 116.339 9.94238 106.031C9.94238 95.7224 18.3289 87.3359 28.6371 87.3359C33.4697 87.3359 38.0547 89.174 41.5479 92.5105L41.3468 92.7206C37.9081 89.4369 33.3943 87.6276 28.6371 87.6276C18.4894 87.6276 10.2335 95.8835 10.2335 106.031C10.2335 116.179 18.4894 124.435 28.6371 124.435C33.3473 124.435 37.8284 122.656 41.255 119.428L41.4547 119.64C37.9739 122.919 33.4218 124.726 28.6371 124.726Z" fill="#21111D"/>
<path fill-rule="evenodd" clip-rule="evenodd" d="M39.8327 103.003C38.7117 104.124 35.8997 103.129 33.5521 100.782C31.2046 98.4344 30.2104 95.6226 31.3316 94.5011C32.4527 93.3807 35.2646 94.3745 37.6122 96.722C39.9598 99.0694 40.9539 101.881 39.8327 103.003Z" fill="#F3FFFE"/>
<path fill-rule="evenodd" clip-rule="evenodd" d="M23.4534 159.848L23.1631 159.827L25.5586 126.511L25.8489 126.532L23.4534 159.848Z" fill="#21111D"/>
<path fill-rule="evenodd" clip-rule="evenodd" d="M18.7875 96.2845L18.5571 96.107C18.5795 96.0782 20.8293 93.2089 24.2497 92.4731L24.3109 92.7581C20.997 93.4708 18.8092 96.2567 18.7875 96.2845Z" fill="#21111D"/>
<path fill-rule="evenodd" clip-rule="evenodd" d="M19.6991 98.0746L19.4688 97.8972C19.4911 97.8684 21.7409 94.999 25.1613 94.2632L25.2224 94.5481C21.9086 95.2609 19.7209 98.0468 19.6991 98.0746Z" fill="#21111D"/>
<path fill-rule="evenodd" clip-rule="evenodd" d="M50.1409 156.427H9.052C8.54 156.427 8.125 156.843 8.125 157.354V164.328H50.1409V156.427Z" fill="#F99247"/>
<path fill-rule="evenodd" clip-rule="evenodd" d="M11.4253 160.378H11.9429V156.427H11.4253V160.378Z" fill="#FECC86"/>
<path fill-rule="evenodd" clip-rule="evenodd" d="M16.8281 160.378H17.3458V156.427H16.8281V160.378Z" fill="#FECC86"/>
<path fill-rule="evenodd" clip-rule="evenodd" d="M14.1431 158.826H14.6607V156.427H14.1431V158.826Z" fill="#FECC86"/>
<path fill-rule="evenodd" clip-rule="evenodd" d="M22.7329 160.378H23.2506V156.427H22.7329V160.378Z" fill="#FECC86"/>
<path fill-rule="evenodd" clip-rule="evenodd" d="M20.0474 158.826H20.565V156.427H20.0474V158.826Z" fill="#FECC86"/>
<path fill-rule="evenodd" clip-rule="evenodd" d="M28.6372 160.378H29.1549V156.427H28.6372V160.378Z" fill="#FECC86"/>
<path fill-rule="evenodd" clip-rule="evenodd" d="M25.9517 158.826H26.4693V156.427H25.9517V158.826Z" fill="#FECC86"/>
<path fill-rule="evenodd" clip-rule="evenodd" d="M34.5415 160.378H35.0591V156.427H34.5415V160.378Z" fill="#FECC86"/>
<path fill-rule="evenodd" clip-rule="evenodd" d="M31.8564 158.826H32.3741V156.427H31.8564V158.826Z" fill="#FECC86"/>
<path fill-rule="evenodd" clip-rule="evenodd" d="M40.4463 160.378H40.9639V156.427H40.4463V160.378Z" fill="#FECC86"/>
<path fill-rule="evenodd" clip-rule="evenodd" d="M37.7607 158.826H38.2784V156.427H37.7607V158.826Z" fill="#FECC86"/>
<path fill-rule="evenodd" clip-rule="evenodd" d="M65.3345 129.756L85.0205 158.274L65.3049 158.254L65.3345 129.756ZM60.2676 112.425L60.295 164.291L96.438 164.329L60.2676 112.425Z" fill="#FECC86"/>
<path fill-rule="evenodd" clip-rule="evenodd" d="M61.649 119.326L61.3838 118.944L63.6936 117.337L63.9589 117.719L61.649 119.326Z" fill="#F99247"/>
<path fill-rule="evenodd" clip-rule="evenodd" d="M65.4103 124.665L65.145 124.283L67.426 122.697L67.6912 123.078L65.4103 124.665Z" fill="#F99247"/>
<path fill-rule="evenodd" clip-rule="evenodd" d="M64.7633 121.308L64.498 120.927L65.6393 120.133L65.9045 120.514L64.7633 121.308Z" fill="#F99247"/>
<path fill-rule="evenodd" clip-rule="evenodd" d="M69.2092 130.124L68.9438 129.743L71.2287 128.153L71.494 128.534L69.2092 130.124Z" fill="#F99247"/>
<path fill-rule="evenodd" clip-rule="evenodd" d="M68.5621 126.767L68.2969 126.386L69.4422 125.589L69.7074 125.971L68.5621 126.767Z" fill="#F99247"/>
<path fill-rule="evenodd" clip-rule="evenodd" d="M73.0074 135.583L72.7422 135.202L75.0311 133.61L75.2964 133.991L73.0074 135.583Z" fill="#F99247"/>
<path fill-rule="evenodd" clip-rule="evenodd" d="M72.3605 132.227L72.0952 131.845L73.2444 131.046L73.5096 131.426L72.3605 132.227Z" fill="#F99247"/>
<path fill-rule="evenodd" clip-rule="evenodd" d="M76.8059 141.043L76.5405 140.661L78.8335 139.066L79.0988 139.447L76.8059 141.043Z" fill="#F99247"/>
<path fill-rule="evenodd" clip-rule="evenodd" d="M76.1588 137.686L75.8936 137.304L77.0484 136.5L77.3136 136.882L76.1588 137.686Z" fill="#F99247"/>
<path fill-rule="evenodd" clip-rule="evenodd" d="M80.6041 146.501L80.3389 146.12L82.6358 144.522L82.901 144.903L80.6041 146.501Z" fill="#F99247"/>
<path fill-rule="evenodd" clip-rule="evenodd" d="M79.9571 143.145L79.6919 142.764L80.8468 141.96L81.1121 142.341L79.9571 143.145Z" fill="#F99247"/>
<path fill-rule="evenodd" clip-rule="evenodd" d="M84.4029 151.961L84.1377 151.579L86.4384 149.979L86.7037 150.36L84.4029 151.961Z" fill="#F99247"/>
<path fill-rule="evenodd" clip-rule="evenodd" d="M83.7555 148.604L83.4902 148.222L84.6511 147.415L84.9163 147.796L83.7555 148.604Z" fill="#F99247"/>
<path fill-rule="evenodd" clip-rule="evenodd" d="M88.2008 157.419L87.9355 157.039L90.2406 155.435L90.5053 155.816L88.2008 157.419Z" fill="#F99247"/>
<path fill-rule="evenodd" clip-rule="evenodd" d="M87.5538 154.063L87.2886 153.682L88.4536 152.871L88.7188 153.252L87.5538 154.063Z" fill="#F99247"/>
<path fill-rule="evenodd" clip-rule="evenodd" d="M91.9992 162.879L91.7344 162.498L94.0435 160.89L94.3093 161.272L91.9992 162.879Z" fill="#F99247"/>
<path fill-rule="evenodd" clip-rule="evenodd" d="M91.3526 159.522L91.0869 159.14L92.2563 158.328L92.5211 158.709L91.3526 159.522Z" fill="#F99247"/>
<path fill-rule="evenodd" clip-rule="evenodd" d="M55.2319 135.076C54.9235 135.076 54.6546 134.848 54.6113 134.534C54.6035 134.477 53.7973 128.813 50.8446 124.183C50.6583 123.891 50.7441 123.504 51.0361 123.316C51.3282 123.13 51.716 123.217 51.9022 123.508C55.0068 128.377 55.8209 134.121 55.8541 134.363C55.901 134.707 55.661 135.023 55.318 135.07C55.289 135.074 55.2603 135.076 55.2319 135.076Z" fill="#21111D"/>
<path fill-rule="evenodd" clip-rule="evenodd" d="M72.1865 134.647C68.5626 128.236 62.9876 128.793 59.9213 130.466C57.4359 131.822 55.2256 132.17 54.4772 132.253C53.7288 132.17 51.5185 131.822 49.0332 130.466C45.9669 128.793 40.3918 128.236 36.768 134.647C33.1442 141.058 39.1373 163.638 47.9181 164.613C47.9181 164.613 50.5663 164.613 51.5419 164.613C51.9282 164.613 52.4249 164.591 52.9864 164.574C53.0194 164.603 53.0545 164.616 53.0919 164.613C53.5589 164.574 54.0254 164.558 54.4772 164.553C54.9291 164.558 55.3955 164.574 55.8626 164.613C55.8999 164.616 55.935 164.603 55.968 164.574C56.5296 164.591 57.0263 164.613 57.4125 164.613C58.3881 164.613 61.0363 164.613 61.0363 164.613C69.817 163.638 75.8102 141.058 72.1865 134.647Z" fill="#FF424D"/>
<path fill-rule="evenodd" clip-rule="evenodd" d="M39.5297 135.967C39.5102 135.967 39.4901 135.962 39.4708 135.955C39.3974 135.922 39.3643 135.836 39.3968 135.762C39.4103 135.731 40.7893 132.694 44.1497 131.936C44.2279 131.918 44.306 131.968 44.3237 132.045C44.3412 132.124 44.2921 132.202 44.2137 132.22C40.9997 132.944 39.676 135.851 39.663 135.88C39.6389 135.934 39.5857 135.967 39.5297 135.967Z" fill="#21111D"/>
<path fill-rule="evenodd" clip-rule="evenodd" d="M40.3476 137.322C40.3279 137.322 40.3079 137.318 40.2887 137.309C40.2152 137.277 40.1821 137.191 40.2147 137.117C40.2282 137.087 41.6071 134.048 44.9675 133.291C45.0455 133.273 45.1239 133.322 45.1416 133.401C45.1591 133.48 45.11 133.557 45.0315 133.575C41.8176 134.3 40.4939 137.206 40.4809 137.235C40.4568 137.29 40.4034 137.322 40.3476 137.322Z" fill="#21111D"/>
<path fill-rule="evenodd" clip-rule="evenodd" d="M66.5148 129.692C60.5106 137.994 48.9339 152.302 38.8691 154.826C41.0666 160.024 44.2486 164.206 47.9182 164.613C47.9182 164.613 50.5663 164.613 51.5419 164.613C51.9282 164.613 52.4249 164.591 52.9864 164.574C53.0194 164.603 53.0545 164.616 53.0919 164.613C53.5589 164.574 54.0254 164.558 54.4773 164.553C54.9291 164.558 55.3955 164.574 55.8626 164.613C55.8999 164.616 55.9351 164.603 55.9681 164.574C56.5296 164.591 57.0263 164.613 57.4125 164.613C58.3881 164.613 61.0364 164.613 61.0364 164.613C69.8171 163.638 75.8103 141.058 72.1865 134.647C70.5557 131.762 68.5296 130.289 66.5148 129.692Z" fill="#EF3A4C"/>
<path fill-rule="evenodd" clip-rule="evenodd" d="M68.265 137.309C67.7673 138.171 65.9008 138.025 64.0961 136.983C62.2913 135.941 61.2316 134.398 61.7292 133.535C62.2269 132.674 64.0934 132.82 65.8982 133.861C67.7029 134.903 68.7626 136.447 68.265 137.309Z" fill="#F46E6E"/>
<path fill-rule="evenodd" clip-rule="evenodd" d="M51.542 164.759L47.9022 164.758C44.2039 164.347 41.4374 160.37 39.7677 157.107C35.8241 149.397 34.334 138.658 36.6415 134.576C38.2643 131.705 40.4911 129.909 43.0808 129.382C45.0581 128.981 47.2531 129.329 49.1029 130.339C51.5361 131.665 53.6833 132.018 54.4934 132.109C54.5135 132.111 56.1959 132.315 58.3987 131.039C58.4681 130.999 58.5573 131.023 58.5976 131.092C58.638 131.162 58.6143 131.251 58.5445 131.291C56.2497 132.62 54.5297 132.407 54.4578 132.397C53.6339 132.306 51.4421 131.945 48.9636 130.594C46.1992 129.086 40.5467 128.258 36.8949 134.719C35.8109 136.637 35.5479 140.229 36.1733 144.576C36.7922 148.878 38.197 153.396 40.027 156.973C42.3388 161.493 45.144 164.154 47.9264 164.468H51.542C51.6225 164.468 51.6877 164.533 51.6877 164.613C51.6877 164.694 51.6225 164.759 51.542 164.759Z" fill="#21111D"/>
<path fill-rule="evenodd" clip-rule="evenodd" d="M8.14699 164.474C8.06651 164.474 8.00146 164.409 8.00146 164.329V157.834C8.00146 156.978 8.69784 156.282 9.55384 156.282H39.5936C39.674 156.282 39.7392 156.347 39.7392 156.428C39.7392 156.508 39.674 156.573 39.5936 156.573H9.55384C8.85843 156.573 8.29262 157.139 8.29262 157.834V164.329C8.29262 164.409 8.22748 164.474 8.14699 164.474Z" fill="#21111D"/>
<path fill-rule="evenodd" clip-rule="evenodd" d="M200.433 41.1053C200.433 27.7536 189.609 16.9299 176.258 16.9299C162.906 16.9299 152.083 27.7536 152.083 41.1053C152.083 47.728 154.747 53.7277 159.06 58.0941L159.059 58.0943C159.059 58.0943 166.375 65.9184 168.846 74.4462C168.846 74.4462 173.07 75.8808 176.258 75.9604C179.445 75.8808 183.669 74.4462 183.669 74.4462C186.14 65.9184 193.456 58.0943 193.456 58.0943L193.455 58.0941C197.769 53.7277 200.433 47.728 200.433 41.1053Z" fill="#FECC86"/>
<path fill-rule="evenodd" clip-rule="evenodd" d="M176.252 88.6522C174.177 88.6522 172.494 86.9695 172.494 84.8945H180.009C180.009 86.9695 178.328 88.6522 176.252 88.6522Z" fill="#4CB7D8"/>
<path fill-rule="evenodd" clip-rule="evenodd" d="M177.243 85.9228H175.262C171.357 85.9228 168.192 82.7581 168.192 78.8541V72.5186H184.311V78.8541C184.311 82.7581 181.146 85.9228 177.243 85.9228Z" fill="#4CB7D8"/>
<path fill-rule="evenodd" clip-rule="evenodd" d="M184.311 72.5196V72.5186C187.135 64.9765 193.134 58.4427 193.444 58.1077C193.134 58.4424 187.135 64.977 184.311 72.5196ZM168.204 72.5186C166.77 68.6855 164.515 65.1126 162.603 62.4817C164.515 65.1128 166.77 68.6852 168.204 72.5186ZM162.601 62.4789C162.597 62.4743 162.594 62.4699 162.59 62.4654C162.594 62.4699 162.597 62.4743 162.601 62.4789Z" fill="#FEE1BD"/>
<path fill-rule="evenodd" clip-rule="evenodd" d="M198.814 49.8206V49.8205C199.86 47.1168 200.434 44.178 200.434 41.1052C200.434 44.178 199.86 47.1168 198.814 49.8206Z" fill="#FFF0DA"/>
<path fill-rule="evenodd" clip-rule="evenodd" d="M193.457 58.0942L193.456 58.0941C195.768 55.7537 197.606 52.944 198.814 49.8206V49.8207C197.606 52.944 195.768 55.7536 193.456 58.094L193.457 58.0942Z" fill="#FEE1BD"/>
<path fill-rule="evenodd" clip-rule="evenodd" d="M200.434 41.1052C200.434 41.0938 200.434 41.0816 200.434 41.0702C200.434 41.082 200.434 41.0935 200.434 41.1052ZM200.434 41.0598C200.434 41.0517 200.434 41.0418 200.434 41.0336C200.434 41.0424 200.434 41.051 200.434 41.0598ZM200.434 41.0234C200.434 41.0112 200.433 41.0006 200.433 40.9884C200.433 41.0002 200.434 41.0117 200.434 41.0234ZM200.433 40.9857C200.433 40.975 200.433 40.9644 200.433 40.9538C200.433 40.9644 200.433 40.9751 200.433 40.9857ZM200.433 40.9423C200.433 40.9342 200.433 40.9248 200.433 40.9166C200.433 40.925 200.433 40.9339 200.433 40.9423ZM200.433 40.9067C200.433 40.8945 200.433 40.8842 200.433 40.872C200.433 40.8838 200.433 40.895 200.433 40.9067ZM200.432 40.8661C200.432 40.8564 200.432 40.8465 200.432 40.8367C200.432 40.8467 200.432 40.8562 200.432 40.8661ZM200.432 40.8258C200.432 40.8169 200.432 40.8094 200.432 40.8004C200.432 40.8089 200.432 40.8175 200.432 40.8258ZM200.432 40.7896C200.431 40.7783 200.431 40.7673 200.431 40.756C200.431 40.7671 200.431 40.7785 200.432 40.7896ZM200.431 40.7466C200.431 40.7385 200.431 40.7292 200.431 40.7211C200.431 40.7295 200.431 40.7382 200.431 40.7466ZM200.43 40.7085C200.43 40.7004 200.43 40.6919 200.43 40.6838C200.43 40.6919 200.43 40.7004 200.43 40.7085ZM200.43 40.6732C200.43 40.6619 200.429 40.6515 200.429 40.6401C200.429 40.6513 200.43 40.6621 200.43 40.6732ZM200.429 40.6279C200.429 40.6206 200.429 40.6129 200.428 40.6056C200.429 40.6131 200.429 40.6204 200.429 40.6279ZM200.428 40.5913C200.428 40.584 200.428 40.5765 200.428 40.5692C200.428 40.5764 200.428 40.584 200.428 40.5913ZM200.427 40.5563C200.427 40.5457 200.427 40.5353 200.427 40.5247C200.427 40.5352 200.427 40.5457 200.427 40.5563ZM200.426 40.5095C200.426 40.5029 200.426 40.4974 200.426 40.4909C200.426 40.4969 200.426 40.5034 200.426 40.5095ZM200.425 40.4738C200.425 40.4673 200.425 40.462 200.425 40.4555C200.425 40.4619 200.425 40.4674 200.425 40.4738ZM200.424 40.4307C200.424 40.4234 200.424 40.4167 200.423 40.4095C200.424 40.4167 200.424 40.4235 200.424 40.4307ZM200.423 40.3921C200.423 40.3865 200.423 40.3812 200.422 40.3755C200.423 40.3813 200.423 40.3864 200.423 40.3921ZM200.422 40.3575C200.422 40.3526 200.422 40.3471 200.421 40.3423C200.422 40.3473 200.422 40.3523 200.422 40.3575ZM200.42 40.3083C200.42 40.3034 200.42 40.2994 200.42 40.2946C200.42 40.2994 200.42 40.3035 200.42 40.3083ZM200.419 40.2748C200.419 40.2699 200.419 40.2661 200.419 40.2612C200.419 40.2657 200.419 40.2703 200.419 40.2748ZM200.418 40.241C200.418 40.237 200.418 40.2338 200.417 40.2297C200.418 40.2336 200.418 40.2371 200.418 40.241ZM200.417 40.1899C200.417 40.1867 200.417 40.1831 200.417 40.1799C200.417 40.1832 200.417 40.1866 200.417 40.1899Z" fill="#FFF0DA"/>
<path fill-rule="evenodd" clip-rule="evenodd" d="M184.311 72.5185H168.204C166.77 68.6851 164.514 65.1126 162.602 62.4816C162.601 62.4806 162.6 62.4797 162.6 62.4788C162.597 62.4742 162.594 62.4698 162.59 62.4653C162.588 62.4619 162.586 62.4588 162.583 62.4555C162.582 62.4537 162.58 62.4515 162.579 62.4497C162.576 62.4453 162.573 62.441 162.57 62.4366C162.569 62.4355 162.568 62.4339 162.567 62.4329C162.563 62.4278 162.559 62.4225 162.555 62.4174V62.4172C162.298 62.0647 162.048 61.7297 161.807 61.4133C178.05 56.8686 189.327 45.1509 196.399 27.729C198.748 31.2604 200.195 35.4449 200.407 39.9524V39.9525C200.408 39.9802 200.409 40.0084 200.409 40.0362C200.41 40.0378 200.41 40.0384 200.41 40.04C200.41 40.0487 200.41 40.0574 200.411 40.066C200.411 40.0669 200.411 40.0693 200.411 40.07C200.412 40.096 200.413 40.1222 200.414 40.1482C200.414 40.1507 200.415 40.1547 200.415 40.1571C200.415 40.1649 200.415 40.1721 200.416 40.1799C200.416 40.183 200.416 40.1867 200.416 40.1899C200.416 40.2031 200.417 40.2165 200.417 40.2297C200.418 40.2337 200.418 40.237 200.418 40.241C200.418 40.2476 200.418 40.2546 200.419 40.2611C200.419 40.266 200.419 40.2699 200.419 40.2748C200.419 40.2814 200.42 40.2879 200.42 40.2945C200.42 40.2993 200.42 40.3034 200.42 40.3082C200.421 40.3193 200.421 40.3311 200.421 40.3422C200.422 40.3471 200.422 40.3526 200.422 40.3575C200.422 40.3634 200.422 40.3695 200.422 40.3755C200.423 40.3812 200.423 40.3864 200.423 40.3921C200.423 40.3977 200.423 40.4037 200.423 40.4095C200.424 40.4166 200.424 40.4234 200.424 40.4307C200.424 40.4388 200.425 40.4473 200.425 40.4555C200.425 40.4619 200.425 40.4672 200.425 40.4737C200.425 40.4794 200.426 40.4851 200.426 40.4909C200.426 40.4973 200.426 40.5029 200.426 40.5094C200.426 40.5145 200.426 40.5196 200.427 40.5247C200.427 40.5352 200.427 40.5457 200.427 40.5562C200.427 40.5607 200.428 40.5647 200.428 40.5692C200.428 40.5765 200.428 40.584 200.428 40.5912C200.428 40.596 200.428 40.6007 200.428 40.6055C200.429 40.6128 200.429 40.6206 200.429 40.6279C200.429 40.6317 200.429 40.6362 200.429 40.6401C200.429 40.6515 200.43 40.6619 200.43 40.6732C200.43 40.6768 200.43 40.6801 200.43 40.6837C200.43 40.6919 200.43 40.7003 200.43 40.7085C200.43 40.7127 200.43 40.7168 200.431 40.721C200.431 40.7292 200.431 40.7385 200.431 40.7466C200.431 40.7499 200.431 40.7526 200.431 40.756C200.431 40.7673 200.431 40.7782 200.432 40.7895C200.432 40.7932 200.432 40.7968 200.432 40.8004C200.432 40.8094 200.432 40.8169 200.432 40.8258C200.432 40.8294 200.432 40.833 200.432 40.8366C200.432 40.8464 200.432 40.8563 200.432 40.8661C200.432 40.8679 200.432 40.8701 200.432 40.8719C200.432 40.8841 200.432 40.8945 200.432 40.9067C200.432 40.91 200.432 40.9133 200.432 40.9166C200.432 40.9247 200.432 40.9341 200.432 40.9423C200.432 40.9462 200.432 40.9498 200.432 40.9538C200.432 40.9643 200.432 40.975 200.432 40.9856C200.432 40.9865 200.432 40.9874 200.432 40.9883C200.432 41.0006 200.433 41.0111 200.433 41.0233C200.433 41.0267 200.433 41.0302 200.433 41.0336C200.433 41.0417 200.433 41.0516 200.433 41.0598C200.433 41.063 200.433 41.0669 200.433 41.0701C200.433 41.0816 200.433 41.0937 200.433 41.1052C200.433 44.178 199.86 47.1168 198.814 49.8204C197.606 52.9439 195.768 55.7536 193.455 58.0939L193.456 58.0941C193.456 58.0942 193.456 58.0942 193.456 58.0943C193.456 58.0945 193.456 58.0949 193.455 58.0955C193.455 58.0956 193.455 58.0957 193.455 58.0957C193.455 58.0958 193.454 58.096 193.454 58.0961C193.454 58.0962 193.454 58.0963 193.454 58.0964C193.454 58.0967 193.454 58.0969 193.453 58.0972C193.453 58.0973 193.453 58.0974 193.453 58.0975C193.453 58.0981 193.452 58.0986 193.451 58.0994C193.451 58.0997 193.451 58.1001 193.451 58.1005C193.451 58.1005 193.451 58.1006 193.451 58.1007C193.451 58.1008 193.451 58.1009 193.451 58.101C193.449 58.1025 193.448 58.1042 193.446 58.106C193.445 58.1065 193.445 58.107 193.444 58.1075C193.134 58.4425 187.134 64.9764 184.311 72.5185Z" fill="#FEC073"/>
<path fill-rule="evenodd" clip-rule="evenodd" d="M180.044 38.2628C179.31 39.9469 179.484 42.5905 180.146 43.5913C180.406 43.9843 180.599 43.9219 180.671 43.8987C181.447 43.6492 182.122 42.3792 181.888 40.8865C181.71 39.7528 181.064 38.8582 180.044 38.2628ZM172.054 38.2628C171.034 38.8582 170.387 39.7528 170.21 40.8864C169.976 42.3792 170.65 43.6492 171.426 43.8987C171.498 43.9219 171.691 43.9843 171.951 43.5913C172.613 42.5905 172.787 39.9469 172.054 38.2628ZM180.208 72.613L179.516 72.4241C179.538 72.3413 181.793 64.0517 183.356 55.5609C186.069 40.8285 184.509 37.7038 183.338 37.1525C182.14 36.5891 181.199 36.69 180.539 37.453C180.491 37.5085 180.444 37.567 180.4 37.6281C182.09 38.6247 182.499 40.1555 182.596 40.7753C182.864 42.4857 182.099 44.1932 180.891 44.5816C180.598 44.6755 180.035 44.723 179.549 43.987C178.776 42.8181 178.534 39.8955 179.399 37.9466C178.568 37.6068 177.556 37.4258 176.397 37.4258H175.7C174.541 37.4258 173.529 37.6068 172.698 37.9466C173.564 39.8954 173.322 42.8181 172.549 43.987C172.062 44.7229 171.499 44.6758 171.206 44.5815C169.998 44.1931 169.233 42.4857 169.501 40.7753C169.599 40.1555 170.007 38.6246 171.697 37.628C171.653 37.567 171.606 37.5085 171.559 37.4531C170.899 36.6901 169.956 36.5889 168.759 37.1525C167.588 37.7038 166.027 40.8285 168.741 55.5609C170.305 64.0517 172.559 72.3413 172.581 72.4241L171.89 72.613C171.866 72.53 169.605 64.2149 168.036 55.6946C165.87 43.9328 166.006 37.6553 168.453 36.5035C170.353 35.6102 171.486 36.2717 172.102 36.9838C172.188 37.0837 172.268 37.1901 172.344 37.3025C173.19 36.9426 174.284 36.7085 175.7 36.7085H176.397C177.813 36.7085 178.907 36.9427 179.753 37.3025C179.829 37.1901 179.909 37.0837 179.996 36.9838C180.612 36.2715 181.745 35.6101 183.643 36.5035C186.091 37.6553 186.228 43.9328 184.061 55.6946C182.492 64.2149 180.23 72.53 180.208 72.613Z" fill="#F99247"/>
<path fill-rule="evenodd" clip-rule="evenodd" d="M168.076 72.6876C167.884 72.1363 167.796 71.9347 167.606 71.4924L167.502 71.2509C164.484 64.2021 158.983 58.2757 158.928 58.2167L158.91 58.1981C154.392 53.6125 151.903 47.5435 151.903 41.1053C151.903 27.676 162.829 16.7505 176.258 16.7505C184.503 16.7505 192.125 20.8741 196.648 27.7811L196.348 27.9776C191.892 21.1721 184.381 17.1092 176.258 17.1092C163.027 17.1092 152.262 27.8739 152.262 41.1053C152.262 47.4588 154.722 53.4473 159.187 57.968L159.422 58.2046L159.404 58.208C160.458 59.3847 165.131 64.8005 167.832 71.1098L167.936 71.3507C168.129 71.8007 168.218 72.0061 168.414 72.5692L168.076 72.6876Z" fill="#21111D"/>
<path fill-rule="evenodd" clip-rule="evenodd" d="M159.375 29.9443L159.03 29.8444C159.048 29.7845 160.835 23.8341 166.849 21.5969L166.974 21.933C161.133 24.1057 159.392 29.8861 159.375 29.9443Z" fill="#21111D"/>
<path fill-rule="evenodd" clip-rule="evenodd" d="M160.483 32.0956L160.139 31.9958C160.156 31.9359 161.944 25.9855 167.958 23.7483L168.082 24.0844C162.242 26.2572 160.5 32.0375 160.483 32.0956Z" fill="#21111D"/>
<path fill-rule="evenodd" clip-rule="evenodd" d="M177.131 86.1024H175.374C171.315 86.1024 168.014 82.8006 168.014 78.7424V72.3394H184.311V72.698H168.372V78.7424C168.372 82.6029 171.513 85.7436 175.374 85.7436H177.131C178.979 85.7436 180.722 85.0299 182.04 83.7336L182.292 83.989C180.907 85.3522 179.074 86.1024 177.131 86.1024Z" fill="#21111D"/>
<path fill-rule="evenodd" clip-rule="evenodd" d="M176.356 88.8326C172.863 88.8326 172.359 85.4443 172.354 85.4098L172.71 85.3608C172.727 85.4903 173.193 88.5486 176.473 88.4728L176.481 88.8316C176.439 88.8316 176.397 88.8326 176.356 88.8326Z" fill="#21111D"/>
<path fill-rule="evenodd" clip-rule="evenodd" d="M192.836 54.6389L192.622 54.3508C195.813 51.9835 196.315 48.0313 196.32 47.9917L196.676 48.0336C196.671 48.0748 196.154 52.1771 192.836 54.6389Z" fill="#21111D"/>
<path fill-rule="evenodd" clip-rule="evenodd" d="M192.129 52.9165L191.916 52.6284C194.241 50.9031 194.608 48.0206 194.612 47.9917L194.968 48.0336C194.954 48.1579 194.582 51.0966 192.129 52.9165Z" fill="#21111D"/>
<path fill-rule="evenodd" clip-rule="evenodd" d="M167.453 75.7411L167.449 75.3825C167.585 75.3809 181.176 75.2049 185.48 73.6006L185.605 73.9366C181.243 75.5628 168.014 75.7346 167.453 75.7411Z" fill="#21111D"/>
<path fill-rule="evenodd" clip-rule="evenodd" d="M167.454 78.7697L167.448 78.411C167.597 78.4082 182.345 78.1159 185.102 76.6392L185.272 76.9553C182.439 78.4727 168.065 78.7583 167.454 78.7697Z" fill="#21111D"/>
<path fill-rule="evenodd" clip-rule="evenodd" d="M168.195 81.8781L168.192 81.5194C168.325 81.5182 181.559 81.3788 185.105 79.5469L185.269 79.8657C181.648 81.7365 168.743 81.8731 168.195 81.8781Z" fill="#21111D"/>
<path fill-rule="evenodd" clip-rule="evenodd" d="M145.919 37.2998C145.904 37.2998 145.888 37.2992 145.873 37.2979L137.318 36.5698C137.022 36.5446 136.803 36.2842 136.828 35.9882C136.853 35.6922 137.113 35.4734 137.409 35.4977L145.964 36.2258C146.261 36.2509 146.48 36.5114 146.454 36.8075C146.431 37.088 146.195 37.2998 145.919 37.2998Z" fill="#FECC86"/>
<path fill-rule="evenodd" clip-rule="evenodd" d="M150.345 23.6703C150.24 23.6703 150.135 23.6398 150.042 23.5763L142.955 18.7276C142.709 18.5599 142.647 18.2251 142.815 17.9799C142.983 17.7347 143.318 17.6718 143.563 17.8396L150.649 22.6882C150.894 22.856 150.957 23.1908 150.789 23.436C150.684 23.5883 150.516 23.6703 150.345 23.6703Z" fill="#FECC86"/>
<path fill-rule="evenodd" clip-rule="evenodd" d="M163.151 13.8936C162.939 13.8936 162.738 13.7669 162.652 13.5579L159.421 5.60311C159.309 5.32788 159.441 5.01408 159.717 4.90232C159.991 4.79037 160.306 4.92285 160.418 5.19827L163.649 13.153C163.761 13.4282 163.629 13.742 163.354 13.8538C163.287 13.8807 163.218 13.8936 163.151 13.8936Z" fill="#FECC86"/>
<path fill-rule="evenodd" clip-rule="evenodd" d="M206.166 38.8498C205.885 38.8498 205.648 38.6317 205.63 38.3473C205.61 38.0509 205.835 37.7946 206.131 37.7751L214.699 37.2092C214.993 37.1898 215.251 37.414 215.271 37.7105C215.291 38.0069 215.066 38.2632 214.77 38.2828L206.202 38.8487C206.19 38.8494 206.178 38.8498 206.166 38.8498Z" fill="#FECC86"/>
<path fill-rule="evenodd" clip-rule="evenodd" d="M202 25.1391C201.826 25.1391 201.654 25.0536 201.55 24.8964C201.387 24.648 201.456 24.3144 201.705 24.1513L208.881 19.438C209.129 19.2748 209.464 19.3441 209.626 19.5923C209.789 19.8405 209.72 20.1741 209.471 20.3372L202.295 25.0506C202.205 25.1104 202.102 25.1391 202 25.1391Z" fill="#FECC86"/>
<path fill-rule="evenodd" clip-rule="evenodd" d="M191.038 13.862C190.967 13.862 190.895 13.8479 190.826 13.8183C190.554 13.7013 190.427 13.385 190.544 13.112L193.926 5.21984C194.043 4.94672 194.359 4.82067 194.632 4.93723C194.905 5.05426 195.032 5.37046 194.915 5.64367L191.533 13.5357C191.446 13.7398 191.246 13.862 191.038 13.862Z" fill="#FECC86"/>
<path fill-rule="evenodd" clip-rule="evenodd" d="M177.247 9.68402H177.238C176.942 9.67942 176.704 9.43489 176.709 9.13769L176.841 0.552592C176.846 0.258368 177.086 0.0229492 177.379 0.0229492H177.387C177.684 0.027554 177.921 0.272086 177.917 0.569189L177.785 9.15438C177.78 9.4486 177.54 9.68402 177.247 9.68402Z" fill="#FECC86"/>
<path fill-rule="evenodd" clip-rule="evenodd" d="M190.596 30.2333C189.313 30.2333 187.614 29.6745 185.973 28.6171C183.223 26.8449 181.68 24.3437 182.526 23.0303C182.867 22.5005 183.545 22.2449 184.414 22.2449C185.698 22.2449 187.397 22.8037 189.038 23.8611C191.788 25.6332 193.33 28.1346 192.484 29.4479C192.143 29.9777 191.465 30.2333 190.596 30.2333Z" fill="#F8E6C2"/>
<path fill-rule="evenodd" clip-rule="evenodd" d="M18.8208 86.4381C18.6959 86.4381 18.5804 86.3565 18.5423 86.2308C18.536 86.2097 18.3829 85.7013 18.1741 84.8033C18.1377 84.646 18.2352 84.4896 18.3919 84.4532C18.5473 84.4167 18.7048 84.5146 18.7414 84.6709C18.9452 85.5487 19.0983 86.0572 19.0997 86.062C19.1463 86.2155 19.0591 86.3786 18.9053 86.4246C18.8771 86.4333 18.8488 86.4381 18.8208 86.4381Z" fill="#21111D"/>
<path fill-rule="evenodd" clip-rule="evenodd" d="M61.3733 39.845C61.2276 39.845 61.1019 39.7358 61.0846 39.5875C61.066 39.4278 61.1804 39.2831 61.3402 39.2646C62.3184 39.1506 63.3203 39.0664 64.3183 39.0141C64.4772 39.0052 64.6159 39.129 64.6243 39.2896C64.6327 39.4501 64.5094 39.5872 64.3487 39.5956C63.3632 39.6473 62.3736 39.7305 61.4075 39.8431C61.396 39.8443 61.3847 39.845 61.3733 39.845ZM55.542 40.9447C55.4136 40.9447 55.296 40.8591 55.2611 40.7292C55.2191 40.574 55.3111 40.4142 55.4664 40.3722C56.4023 40.12 57.3839 39.8974 58.3841 39.7104C58.5424 39.6805 58.6942 39.7851 58.7238 39.9431C58.7533 40.1012 58.6491 40.2534 58.491 40.2828C57.5058 40.467 56.5391 40.6863 55.6179 40.9346C55.5926 40.9414 55.567 40.9447 55.542 40.9447ZM49.9897 43.0242C49.8829 43.0242 49.7803 42.9654 49.7292 42.8635C49.657 42.7199 49.7151 42.5448 49.8588 42.4727C50.7232 42.0388 51.6496 41.6377 52.612 41.2804C52.7625 41.2244 52.9305 41.3013 52.9863 41.4522C53.0424 41.6029 52.9654 41.7705 52.8147 41.8264C51.8721 42.1763 50.9654 42.5688 50.1201 42.9932C50.0782 43.0142 50.0335 43.0242 49.9897 43.0242ZM45.1049 46.3637C45.0268 46.3637 44.9491 46.3325 44.8917 46.2708C44.7822 46.153 44.7888 45.9688 44.9065 45.8593C45.6234 45.1928 46.4166 44.5634 47.2644 43.9885C47.3977 43.8984 47.5785 43.9329 47.6688 44.066C47.7591 44.1991 47.7245 44.3802 47.5913 44.4705C46.7681 45.0288 45.9982 45.6396 45.3033 46.2858C45.2471 46.338 45.176 46.3637 45.1049 46.3637ZM36.8307 50.4508C36.6847 50.4508 36.559 50.3413 36.5419 50.1927C36.5237 50.0329 36.6384 49.8886 36.7982 49.8703C37.8381 49.7516 38.8605 49.7351 39.8199 49.8217C39.9801 49.8361 40.0981 49.9776 40.0838 50.1378C40.0694 50.2979 39.9314 50.4168 39.7676 50.4016C38.8474 50.3186 37.8652 50.3346 36.8642 50.449C36.8531 50.4503 36.8419 50.4508 36.8307 50.4508ZM41.3468 50.9383C41.2937 50.9383 41.2401 50.9238 41.1919 50.8935C41.0559 50.8079 41.0149 50.6281 41.1007 50.4921C41.6268 49.6557 42.2182 48.8366 42.8581 48.0575C42.9604 47.9331 43.1437 47.9153 43.268 48.0173C43.3922 48.1194 43.4102 48.3029 43.3082 48.4271C42.6837 49.1874 42.1066 49.9865 41.5934 50.8022C41.5382 50.8901 41.4436 50.9383 41.3468 50.9383ZM31.1361 52.0451C31.0242 52.0451 30.9177 51.9804 30.8696 51.8716C30.8046 51.7245 30.8711 51.5525 31.0182 51.4875C31.9513 51.0751 32.9023 50.7303 33.8447 50.4625C33.9997 50.4188 34.1604 50.5085 34.2043 50.6631C34.2482 50.8178 34.1585 50.9788 34.0039 51.0228C33.0875 51.2831 32.162 51.6187 31.2536 52.0202C31.2153 52.0371 31.1754 52.0451 31.1361 52.0451ZM45.2485 52.5038C45.1833 52.5038 45.1176 52.482 45.0633 52.4372C44.3427 51.8423 43.5078 51.3661 42.582 51.0217C42.4313 50.9656 42.3545 50.798 42.4107 50.6473C42.4665 50.4964 42.6349 50.42 42.785 50.4758C43.772 50.8431 44.6632 51.3518 45.4341 51.988C45.558 52.0905 45.5756 52.274 45.4732 52.398C45.4155 52.4678 45.3324 52.5038 45.2485 52.5038ZM26.0633 55.1002C25.9768 55.1002 25.8915 55.0619 25.8339 54.9886C25.7347 54.862 25.7571 54.679 25.8836 54.5798C26.672 53.9622 27.5032 53.3886 28.3544 52.875C28.4921 52.7919 28.6711 52.8363 28.7543 52.9739C28.8374 53.1116 28.7931 53.2905 28.6554 53.3737C27.8243 53.8751 27.0126 54.4352 26.2428 55.0382C26.1894 55.0799 26.1261 55.1002 26.0633 55.1002ZM38.9094 56.3295C38.8828 56.3295 38.8558 56.3259 38.8291 56.3181C38.6744 56.2739 38.5851 56.1125 38.6293 55.958C38.9003 55.0132 39.2515 54.0638 39.6732 53.1363C39.7397 52.9899 39.9125 52.9255 40.0588 52.9919C40.2051 53.0584 40.2699 53.231 40.2033 53.3775C39.7933 54.2788 39.4523 55.2011 39.1892 56.1185C39.1525 56.2463 39.0361 56.3295 38.9094 56.3295ZM48.313 57.4803C48.1855 57.4803 48.0685 57.3958 48.0326 57.267C47.7703 56.3245 47.3919 55.4309 46.9082 54.6113C46.8264 54.4729 46.8725 54.2943 47.011 54.2126C47.1494 54.1307 47.3279 54.1767 47.4097 54.3153C47.9195 55.1788 48.3177 56.1194 48.5937 57.1109C48.6368 57.2657 48.5461 57.4264 48.3912 57.4695C48.365 57.4767 48.3389 57.4803 48.313 57.4803ZM21.9237 59.3274C21.8641 59.3274 21.8039 59.3092 21.7521 59.2713C21.6223 59.1762 21.594 58.9942 21.689 58.8644C22.2803 58.0559 22.9359 57.2852 23.6374 56.5736C23.7501 56.4591 23.9346 56.4578 24.0492 56.5707C24.1637 56.6836 24.1651 56.868 24.0521 56.9826C23.3705 57.6738 22.7336 58.4227 22.1589 59.2082C22.1019 59.2862 22.0134 59.3274 21.9237 59.3274ZM38.3168 62.1994C38.1708 62.1994 38.0449 62.0896 38.0279 61.9409C37.9766 61.4882 37.9506 61.0128 37.9506 60.5277C37.9506 60.004 37.9809 59.4611 38.0407 58.9143C38.0584 58.7543 38.2032 58.6405 38.3619 58.6565C38.5217 58.6739 38.6372 58.8177 38.6197 58.9776C38.5621 59.5035 38.533 60.0251 38.533 60.5277C38.533 60.9909 38.5576 61.4444 38.6065 61.8754C38.6247 62.0351 38.5098 62.1794 38.3501 62.1975C38.3389 62.1988 38.3278 62.1994 38.3168 62.1994ZM48.295 63.3328C48.2644 63.3328 48.2333 63.3279 48.2025 63.3176C48.0499 63.2666 47.9678 63.1016 48.0189 62.9492C48.2991 62.1121 48.4411 61.1867 48.4411 60.1987L48.4408 60.1209C48.44 59.96 48.5696 59.829 48.7304 59.8281H48.7319C48.892 59.8281 49.0223 59.9574 49.0232 60.1177L49.0235 60.1987C49.0235 61.2496 48.8712 62.2372 48.5711 63.1339C48.5302 63.2558 48.4168 63.3328 48.295 63.3328ZM19.1296 64.5433C19.0955 64.5433 19.061 64.5372 19.0271 64.5246C18.8766 64.468 18.8005 64.3001 18.857 64.1495C19.2147 63.1986 19.6301 62.2775 20.0919 61.4115C20.1674 61.2695 20.3438 61.2157 20.4859 61.2916C20.6277 61.3671 20.6814 61.5436 20.6057 61.6855C20.1559 62.5292 19.7509 63.4273 19.4022 64.3546C19.3583 64.4712 19.2474 64.5433 19.1296 64.5433ZM41.2093 67.0428C41.1768 67.0428 41.1436 67.0373 41.1112 67.0257C40.1867 66.695 39.4076 65.9541 38.858 64.883C38.7845 64.7399 38.841 64.5645 38.984 64.491C39.1273 64.4174 39.3026 64.4742 39.376 64.6171C39.8568 65.5541 40.5247 66.1974 41.3073 66.4774C41.4588 66.5316 41.5376 66.6982 41.4834 66.8497C41.4409 66.9687 41.3288 67.0428 41.2093 67.0428ZM44.146 67.1547C44.0091 67.1547 43.8871 67.0577 43.8603 66.9184C43.8299 66.7605 43.9334 66.6078 44.0912 66.5774C45.051 66.3931 45.8801 65.9742 46.5555 65.3327C46.672 65.2219 46.8563 65.2266 46.9672 65.3434C47.0779 65.4599 47.0731 65.6442 46.9565 65.755C46.1991 66.4744 45.2721 66.9435 44.2012 67.1493C44.1826 67.1529 44.1641 67.1547 44.146 67.1547ZM17.6848 70.2868C17.6709 70.2868 17.6569 70.2858 17.6429 70.2838C17.4838 70.2609 17.3733 70.1132 17.3962 69.9541C17.5414 68.9462 17.734 67.957 17.9689 67.014C18.0077 66.858 18.1658 66.7632 18.3217 66.8018C18.4777 66.8408 18.5729 66.9988 18.5339 67.1548C18.3039 68.0788 18.1149 69.0486 17.9726 70.037C17.9517 70.1822 17.8272 70.2868 17.6848 70.2868ZM17.3481 76.2081C17.1903 76.2081 17.0608 76.082 17.0572 75.9234C17.0502 75.6197 17.0469 75.3146 17.0469 75.0166C17.0469 74.3156 17.066 73.6146 17.1035 72.933C17.1123 72.7725 17.246 72.6499 17.4103 72.6583C17.5708 72.6672 17.6937 72.8046 17.6849 72.965C17.648 73.636 17.6293 74.3263 17.6293 75.0166C17.6293 75.3103 17.6326 75.6109 17.6395 75.9103C17.643 76.071 17.5157 76.2043 17.3548 76.208L17.3481 76.2081ZM17.891 82.1154C17.7503 82.1154 17.6267 82.0132 17.6039 81.87C17.4473 80.8877 17.3215 79.8905 17.2303 78.9064C17.2153 78.7464 17.3332 78.6045 17.4933 78.5896C17.6538 78.5749 17.7954 78.6925 17.81 78.8527C17.9002 79.8241 18.0243 80.8084 18.1789 81.7783C18.2043 81.9371 18.096 82.0863 17.9372 82.1118C17.9217 82.1142 17.9063 82.1154 17.891 82.1154Z" fill="#21111D"/>
<path fill-rule="evenodd" clip-rule="evenodd" d="M68.7748 39.5903L68.7526 39.5894C68.7474 39.589 68.216 39.5496 67.3158 39.5367C67.1551 39.5343 67.0266 39.4022 67.0288 39.2413C67.0311 39.0819 67.1611 38.9543 67.3199 38.9543H67.3243C68.2443 38.9676 68.7743 39.007 68.7966 39.0087C68.9568 39.0208 69.0769 39.1607 69.0648 39.321C69.0534 39.4739 68.9256 39.5903 68.7748 39.5903Z" fill="#21111D"/>
<path fill-rule="evenodd" clip-rule="evenodd" d="M72.7866 42.261L74.4311 40.3775C74.4311 40.3775 82.5888 39.4924 82.7029 39.4348C82.8169 39.3773 87.0101 37.2727 87.0101 37.2727L81.7402 36.967L73.1256 38.2069L72.7866 42.261Z" fill="#7FC6A6"/>
<path fill-rule="evenodd" clip-rule="evenodd" d="M71.1733 33.9905L87.01 37.2725L73.1254 38.2067L71.1733 33.9905Z" fill="#B9EDD6"/>
<path fill-rule="evenodd" clip-rule="evenodd" d="M74.4312 40.3773L76.4787 44.8668L87.0102 37.2725L74.4312 40.3773Z" fill="#B9EDD6"/>
<path fill-rule="evenodd" clip-rule="evenodd" d="M162.688 151.477C162.688 151.477 165.363 158.207 163.119 163.297L214.538 163.728L219.284 163.297L223.466 160.706V156.74L222.303 153.461L218.507 151.477H162.688Z" fill="white"/>
<path fill-rule="evenodd" clip-rule="evenodd" d="M216.947 164.383H161.394C161.031 164.383 160.739 164.091 160.739 163.728C160.739 163.366 161.031 163.074 161.394 163.074H216.947C220.301 163.074 223.029 160.542 223.029 157.43C223.029 154.319 220.301 151.787 216.947 151.787H161.394C161.031 151.787 160.739 151.494 160.739 151.132C160.739 150.77 161.031 150.477 161.394 150.477H216.947C221.024 150.477 224.339 153.597 224.339 157.43C224.339 161.264 221.024 164.383 216.947 164.383Z" fill="#61A3C5"/>
<path fill-rule="evenodd" clip-rule="evenodd" d="M190.705 157.576H163.443C163.363 157.576 163.297 157.511 163.297 157.43C163.297 157.349 163.363 157.285 163.443 157.285H190.705C190.786 157.285 190.851 157.349 190.851 157.43C190.851 157.511 190.786 157.576 190.705 157.576Z" fill="#AAC9F8"/>
<path fill-rule="evenodd" clip-rule="evenodd" d="M221.031 157.576H194.544C194.465 157.576 194.399 157.511 194.399 157.43C194.399 157.349 194.465 157.285 194.544 157.285H221.031C221.112 157.285 221.177 157.349 221.177 157.43C221.177 157.511 221.112 157.576 221.031 157.576Z" fill="#AAC9F8"/>
<path fill-rule="evenodd" clip-rule="evenodd" d="M220.32 160.184H206.73C206.649 160.184 206.584 160.119 206.584 160.038C206.584 159.958 206.649 159.894 206.73 159.894H220.32C220.4 159.894 220.465 159.958 220.465 160.038C220.465 160.119 220.4 160.184 220.32 160.184Z" fill="#AAC9F8"/>
<path fill-rule="evenodd" clip-rule="evenodd" d="M204.736 160.184H163.443C163.363 160.184 163.297 160.119 163.297 160.038C163.297 159.958 163.363 159.894 163.443 159.894H204.736C204.817 159.894 204.882 159.958 204.882 160.038C204.882 160.119 204.817 160.184 204.736 160.184Z" fill="#AAC9F8"/>
<path fill-rule="evenodd" clip-rule="evenodd" d="M222.928 137.698C222.928 137.698 220.253 144.427 222.497 149.518L171.077 149.949L166.332 149.518L162.15 146.926V142.961L163.313 139.682L167.109 137.698H222.928Z" fill="white"/>
<path fill-rule="evenodd" clip-rule="evenodd" d="M168.668 150.604H224.222C224.585 150.604 224.877 150.311 224.877 149.949C224.877 149.587 224.585 149.294 224.222 149.294H168.668C165.315 149.294 162.586 146.762 162.586 143.65C162.586 140.539 165.315 138.007 168.668 138.007H224.222C224.585 138.007 224.877 137.715 224.877 137.352C224.877 136.991 224.585 136.697 224.222 136.697H168.668C164.592 136.697 161.277 139.817 161.277 143.65C161.277 147.485 164.592 150.604 168.668 150.604Z" fill="#F75553"/>
<path fill-rule="evenodd" clip-rule="evenodd" d="M222.173 143.796H194.911C194.83 143.796 194.765 143.731 194.765 143.651C194.765 143.571 194.83 143.505 194.911 143.505H222.173C222.254 143.505 222.319 143.571 222.319 143.651C222.319 143.731 222.254 143.796 222.173 143.796Z" fill="#AAC9F8"/>
<path fill-rule="evenodd" clip-rule="evenodd" d="M191.072 143.796H164.585C164.504 143.796 164.439 143.731 164.439 143.651C164.439 143.571 164.504 143.505 164.585 143.505H191.072C191.151 143.505 191.217 143.571 191.217 143.651C191.217 143.731 191.151 143.796 191.072 143.796Z" fill="#AAC9F8"/>
<path fill-rule="evenodd" clip-rule="evenodd" d="M178.886 146.404H165.296C165.216 146.404 165.15 146.339 165.15 146.259C165.15 146.179 165.216 146.114 165.296 146.114H178.886C178.967 146.114 179.032 146.179 179.032 146.259C179.032 146.339 178.967 146.404 178.886 146.404Z" fill="#AAC9F8"/>
<path fill-rule="evenodd" clip-rule="evenodd" d="M222.173 146.404H180.88C180.799 146.404 180.734 146.339 180.734 146.259C180.734 146.179 180.799 146.114 180.88 146.114H222.173C222.253 146.114 222.319 146.179 222.319 146.259C222.319 146.339 222.253 146.404 222.173 146.404Z" fill="#AAC9F8"/>
<path fill-rule="evenodd" clip-rule="evenodd" d="M171.37 124.72C171.37 124.72 173.853 130.965 171.77 135.689L219.492 136.09L223.896 135.689L227.777 133.284V129.604L226.698 126.561L223.175 124.72H171.37Z" fill="white"/>
<path fill-rule="evenodd" clip-rule="evenodd" d="M221.727 136.697H170.169C169.833 136.697 169.561 136.426 169.561 136.09C169.561 135.754 169.833 135.482 170.169 135.482H221.727C224.84 135.482 227.371 133.132 227.371 130.245C227.371 127.356 224.84 125.008 221.727 125.008H170.169C169.833 125.008 169.561 124.735 169.561 124.399C169.561 124.064 169.833 123.791 170.169 123.791H221.727C225.509 123.791 228.587 126.687 228.587 130.245C228.587 133.803 225.509 136.697 221.727 136.697Z" fill="#258D8C"/>
<path fill-rule="evenodd" clip-rule="evenodd" d="M197.372 130.391H172.07C171.991 130.391 171.925 130.325 171.925 130.245C171.925 130.164 171.991 130.099 172.07 130.099H197.372C197.453 130.099 197.518 130.164 197.518 130.245C197.518 130.325 197.453 130.391 197.372 130.391Z" fill="#AAC9F8"/>
<path fill-rule="evenodd" clip-rule="evenodd" d="M225.517 130.391H200.935C200.856 130.391 200.791 130.325 200.791 130.245C200.791 130.164 200.856 130.099 200.935 130.099H225.517C225.598 130.099 225.663 130.164 225.663 130.245C225.663 130.325 225.598 130.391 225.517 130.391Z" fill="#AAC9F8"/>
<path fill-rule="evenodd" clip-rule="evenodd" d="M224.856 132.811H212.244C212.164 132.811 212.099 132.746 212.099 132.665C212.099 132.585 212.164 132.519 212.244 132.519H224.856C224.937 132.519 225.002 132.585 225.002 132.665C225.002 132.746 224.937 132.811 224.856 132.811Z" fill="#AAC9F8"/>
<path fill-rule="evenodd" clip-rule="evenodd" d="M224.856 127.968H172.07C171.991 127.968 171.925 127.903 171.925 127.822C171.925 127.742 171.991 127.677 172.07 127.677H224.856C224.936 127.677 225.002 127.742 225.002 127.822C225.002 127.903 224.936 127.968 224.856 127.968Z" fill="#AAC9F8"/>
<path fill-rule="evenodd" clip-rule="evenodd" d="M224.222 150.749H168.668C164.512 150.749 161.131 147.565 161.131 143.651C161.131 139.736 164.512 136.552 168.668 136.552H224.222C224.664 136.552 225.023 136.911 225.023 137.352C225.023 137.795 224.664 138.153 224.222 138.153C224.142 138.153 224.077 138.088 224.077 138.008C224.077 137.927 224.142 137.863 224.222 137.863C224.503 137.863 224.732 137.633 224.732 137.352C224.732 137.072 224.503 136.843 224.222 136.843H168.668C164.673 136.843 161.422 139.897 161.422 143.651C161.422 147.404 164.673 150.459 168.668 150.459H224.222C224.503 150.459 224.732 150.23 224.732 149.949C224.732 149.668 224.503 149.439 224.222 149.439C224.142 149.439 224.077 149.375 224.077 149.294C224.077 149.213 224.142 149.148 224.222 149.148C224.664 149.148 225.023 149.507 225.023 149.949C225.023 150.391 224.664 150.749 224.222 150.749Z" fill="#21111D"/>
<path fill-rule="evenodd" clip-rule="evenodd" d="M221.726 136.843H170.169C169.753 136.843 169.416 136.505 169.416 136.09C169.416 135.674 169.753 135.336 170.169 135.336C170.249 135.336 170.314 135.401 170.314 135.482C170.314 135.562 170.249 135.628 170.169 135.628C169.913 135.628 169.706 135.835 169.706 136.09C169.706 136.344 169.913 136.552 170.169 136.552H221.726C225.429 136.552 228.442 133.722 228.442 130.245C228.442 126.766 225.429 123.937 221.726 123.937H170.169C169.913 123.937 169.706 124.144 169.706 124.4C169.706 124.655 169.913 124.862 170.169 124.862C170.249 124.862 170.314 124.927 170.314 125.008C170.314 125.088 170.249 125.153 170.169 125.153C169.753 125.153 169.416 124.815 169.416 124.4C169.416 123.984 169.753 123.646 170.169 123.646H221.726C225.59 123.646 228.732 126.606 228.732 130.245C228.732 133.882 225.59 136.843 221.726 136.843Z" fill="#21111D"/>
<path fill-rule="evenodd" clip-rule="evenodd" d="M216.947 164.529H161.394C160.952 164.529 160.593 164.17 160.593 163.728C160.593 163.287 160.952 162.928 161.394 162.928C161.474 162.928 161.539 162.993 161.539 163.074C161.539 163.153 161.474 163.219 161.394 163.219C161.113 163.219 160.883 163.448 160.883 163.728C160.883 164.009 161.113 164.238 161.394 164.238H216.947C220.943 164.238 224.194 161.184 224.194 157.43C224.194 153.676 220.943 150.623 216.947 150.623H161.394C161.113 150.623 160.883 150.851 160.883 151.132C160.883 151.413 161.113 151.641 161.394 151.641C161.474 151.641 161.539 151.707 161.539 151.787C161.539 151.868 161.474 151.933 161.394 151.933C160.952 151.933 160.593 151.573 160.593 151.132C160.593 150.691 160.952 150.331 161.394 150.331H216.947C221.104 150.331 224.485 153.516 224.485 157.43C224.485 161.344 221.104 164.529 216.947 164.529Z" fill="#21111D"/>
<path fill-rule="evenodd" clip-rule="evenodd" d="M178.128 154.821C178.128 154.821 176.379 159.179 177.387 162.388L178.808 160.191C178.808 160.191 179.779 161.355 180.375 162.388C180.375 162.388 181.46 155.222 183.565 154.821H178.128Z" fill="#F75553"/>
<path fill-rule="evenodd" clip-rule="evenodd" d="M215.417 141.041C215.417 141.041 217.167 145.399 216.159 148.608L214.737 146.411C214.737 146.411 213.766 147.576 213.172 148.608C213.172 148.608 212.086 141.442 209.981 141.041H215.417Z" fill="#7FC6A6"/>
<path fill-rule="evenodd" clip-rule="evenodd" d="M180.397 132.665C180.397 132.665 178.648 137.024 179.656 140.233L181.078 138.035C181.078 138.035 182.048 139.201 182.643 140.233C182.643 140.233 183.729 133.066 185.834 132.665H180.397Z" fill="#4CB7D8"/>
<path fill-rule="evenodd" clip-rule="evenodd" d="M220.32 154.966H163.443C163.363 154.966 163.297 154.901 163.297 154.821C163.297 154.74 163.363 154.675 163.443 154.675H220.32C220.4 154.675 220.465 154.74 220.465 154.821C220.465 154.901 220.4 154.966 220.32 154.966Z" fill="#AAC9F8"/>
<path fill-rule="evenodd" clip-rule="evenodd" d="M222.173 141.187H165.296C165.216 141.187 165.15 141.121 165.15 141.041C165.15 140.96 165.216 140.895 165.296 140.895H222.173C222.253 140.895 222.318 140.96 222.318 141.041C222.318 141.121 222.253 141.187 222.173 141.187Z" fill="#AAC9F8"/>
<path fill-rule="evenodd" clip-rule="evenodd" d="M210.394 132.811H172.07C171.991 132.811 171.925 132.746 171.925 132.665C171.925 132.585 171.991 132.519 172.07 132.519H210.394C210.475 132.519 210.539 132.585 210.539 132.665C210.539 132.746 210.475 132.811 210.394 132.811Z" fill="#AAC9F8"/>
<path fill-rule="evenodd" clip-rule="evenodd" d="M197.913 142.264L199.938 143.402L202.359 141.021L202.424 140.635L201.831 136.302L197.119 137.179L197.913 142.264Z" fill="#FE9F73"/>
<path fill-rule="evenodd" clip-rule="evenodd" d="M201.373 143.529L194.877 144.413C194.817 144.412 194.768 144.409 194.731 144.403C194.094 144.299 194.241 143.883 194.241 143.883L197.088 141.529L197.11 141.239C197.143 140.773 197.68 140.537 198.141 140.786L199.337 141.432C199.337 141.432 202.15 141.473 202.424 140.635L202.678 142.678C202.678 142.678 202.978 143.299 201.373 143.529Z" fill="#F75553"/>
<path fill-rule="evenodd" clip-rule="evenodd" d="M189.519 142.542L191.544 143.68L193.965 141.298L194.031 140.912L193.438 136.579L188.726 137.457L189.519 142.542Z" fill="#FE9F73"/>
<path fill-rule="evenodd" clip-rule="evenodd" d="M192.98 143.806L186.484 144.69C186.424 144.69 186.375 144.686 186.338 144.681C185.701 144.577 185.848 144.161 185.848 144.161L188.695 141.806L188.716 141.517C188.75 141.051 189.287 140.815 189.748 141.063L190.944 141.71C190.944 141.71 193.758 141.75 194.031 140.912L194.285 142.956C194.285 142.956 194.585 143.577 192.98 143.806Z" fill="#F75553"/>
<path fill-rule="evenodd" clip-rule="evenodd" d="M205.405 124.869C205.405 124.869 213.506 125.25 215.757 124.75C218.006 124.25 218.561 117.228 216.006 112.925C213.452 108.623 204.514 121.832 204.514 121.832L205.405 124.869Z" fill="#49263E"/>
<path fill-rule="evenodd" clip-rule="evenodd" d="M200.393 114.439C200.393 114.439 189.111 116.194 188.784 117.502C188.457 118.81 187.519 132.718 188.221 138.651C188.221 138.651 192.518 138.947 194.574 138.449L195.075 123.981L198.467 123.592L206.24 114.248L200.393 114.439Z" fill="#3A1F33"/>
<path fill-rule="evenodd" clip-rule="evenodd" d="M205.882 115.256C205.882 115.256 197.145 117.721 196.818 119.029C196.492 120.338 195.56 132.749 196.262 138.683C196.262 138.683 200.883 138.947 202.938 138.449L203.493 124.801L205.486 124.87L210.32 116.366L205.882 115.256Z" fill="#49263E"/>
<path fill-rule="evenodd" clip-rule="evenodd" d="M211.298 98.6099C211.298 98.6099 215.159 98.6751 216.056 99.2046C216.954 99.7342 221.066 106.508 221.953 109.382C221.953 109.382 219.633 111.414 216.643 111.492L215.924 110.137L216.335 112.911L208.503 115.233C205.846 116.022 203.006 115.93 200.405 114.97L199.591 114.67C199.591 114.67 199.604 101.489 201.958 100.096C204.056 98.8555 208.599 98.2022 211.298 98.6099Z" fill="#FEBAC7"/>
<path fill-rule="evenodd" clip-rule="evenodd" d="M206.446 92.1335V95.8653C206.446 95.8653 206.393 97.1268 207.496 97.2841L207.291 98.9678C207.214 99.5932 207.588 100.192 208.189 100.382C208.482 100.475 208.833 100.543 209.231 100.543C210.492 100.543 211.176 99.5971 211.281 99.1241C211.386 98.6512 211.071 96.391 211.071 96.391L211.109 95.2801L210.965 90.9775L206.446 92.1335Z" fill="#FE9F73"/>
<path fill-rule="evenodd" clip-rule="evenodd" d="M209.49 93.9995C209.504 93.9995 209.517 93.9947 209.527 93.9851C209.548 93.9649 209.549 93.9313 209.529 93.9102C209.521 93.9026 208.799 93.1639 208.138 93.6953C208.116 93.7136 208.112 93.7472 208.13 93.7702C208.148 93.7922 208.181 93.7961 208.204 93.7779C208.789 93.3059 209.426 93.9553 209.453 93.9831C209.464 93.9937 209.477 93.9995 209.49 93.9995Z" fill="#FECC86"/>
<path fill-rule="evenodd" clip-rule="evenodd" d="M207.324 93.6839C207.339 93.6839 207.353 93.6782 207.364 93.6657C207.383 93.6446 207.381 93.611 207.359 93.5918C207.338 93.5736 206.836 93.1447 206.519 93.4162C206.497 93.4354 206.495 93.469 206.514 93.4911C206.532 93.5131 206.566 93.5151 206.588 93.4968C206.836 93.2838 207.285 93.6676 207.29 93.6714C207.299 93.6801 207.312 93.6839 207.324 93.6839Z" fill="#FECC86"/>
<path fill-rule="evenodd" clip-rule="evenodd" d="M208.428 94.2115C208.428 94.2988 208.499 94.3698 208.586 94.3698C208.673 94.3698 208.743 94.2988 208.743 94.2115C208.743 94.1252 208.673 94.0542 208.586 94.0542C208.499 94.0542 208.428 94.1252 208.428 94.2115Z" fill="black"/>
<path fill-rule="evenodd" clip-rule="evenodd" d="M206.752 94.0541C206.752 94.1413 206.823 94.2114 206.91 94.2114C206.997 94.2114 207.068 94.1413 207.068 94.0541C207.068 93.9668 206.997 93.8967 206.91 93.8967C206.823 93.8967 206.752 93.9668 206.752 94.0541Z" fill="black"/>
<path fill-rule="evenodd" clip-rule="evenodd" d="M210.818 91.1849L209.939 92.4311C209.939 92.4311 207.273 93.4662 205.907 92.2392C204.54 91.0132 204.961 90.4242 205.361 89.8102C205.558 89.508 206.501 88.8912 207.657 89.4044C208.289 89.6855 208.755 88.8489 209.491 89.2691C210.226 89.6893 211.095 90.4184 210.998 90.7062C210.901 90.994 210.818 91.1849 210.818 91.1849Z" fill="#FECC86"/>
<path fill-rule="evenodd" clip-rule="evenodd" d="M210.765 90.6592C210.765 90.6592 211.979 90.6007 212.318 91.7691C212.656 92.9366 212.201 93.5487 212.189 93.8969C212.178 94.2451 212.414 96.5926 210.765 96.417L210.32 92.5394L210.894 90.9959L210.765 90.6592Z" fill="#FECC86"/>
<path fill-rule="evenodd" clip-rule="evenodd" d="M209.73 94.1568C209.73 94.6797 210.154 95.1037 210.676 95.1037C211.199 95.1037 211.622 94.6797 211.622 94.1568C211.622 93.635 211.199 93.2109 210.676 93.2109C210.154 93.2109 209.73 93.635 209.73 94.1568Z" fill="#FE9F73"/>
<path fill-rule="evenodd" clip-rule="evenodd" d="M210.747 94.7371C210.943 94.7371 211.075 94.5894 211.118 94.4417C211.169 94.2671 211.11 94.0973 210.968 94.009C210.759 93.8795 210.569 93.963 210.471 94.0263C210.513 93.9188 210.577 93.8411 210.662 93.7941C210.849 93.6915 211.08 93.7663 211.082 93.7663C211.096 93.7711 211.111 93.7634 211.116 93.75C211.121 93.7365 211.113 93.7212 211.1 93.7164C211.089 93.7135 210.844 93.6339 210.637 93.7471C210.518 93.8133 210.437 93.9294 210.397 94.0925L210.374 94.1836L210.441 94.1174C210.45 94.1078 210.675 93.8891 210.94 94.0541C211.088 94.1452 211.101 94.3122 211.067 94.4263C211.032 94.5462 210.928 94.6844 210.747 94.6844H210.742C210.727 94.6844 210.715 94.6959 210.715 94.7103C210.715 94.7247 210.727 94.7371 210.741 94.7371H210.747Z" fill="#F07162"/>
<path fill-rule="evenodd" clip-rule="evenodd" d="M210.055 96.2126C210.055 96.2126 209.981 98.3241 207.344 98.5256L207.496 97.2842C207.496 97.2842 209.206 97.6277 210.055 96.2126Z" fill="#F07162"/>
<path fill-rule="evenodd" clip-rule="evenodd" d="M216.03 110.307C219.291 109.8 221.224 107.848 221.243 107.828L221.13 107.719C221.112 107.738 219.212 109.653 216.006 110.152L216.03 110.307Z" fill="#21111D"/>
<path fill-rule="evenodd" clip-rule="evenodd" d="M200.165 138.844C202.207 138.844 202.935 138.536 202.97 138.521L203.015 138.502L203.551 124.774L202.708 125.172L202.775 125.314L203.383 125.027L202.862 138.393C202.641 138.47 201.582 138.775 199.08 138.66L199.072 138.817C199.472 138.835 199.836 138.844 200.165 138.844Z" fill="#21111D"/>
<path fill-rule="evenodd" clip-rule="evenodd" d="M202.081 135.884C202.299 135.043 202.361 126.843 202.364 126.494L202.205 126.493C202.205 126.578 202.141 135.022 201.928 135.844L202.081 135.884Z" fill="#21111D"/>
<path fill-rule="evenodd" clip-rule="evenodd" d="M193.962 124.29C194.997 123.955 196.424 123.904 196.438 123.904L196.432 123.746C196.418 123.747 194.97 123.798 193.913 124.14L193.962 124.29Z" fill="#21111D"/>
<path fill-rule="evenodd" clip-rule="evenodd" d="M191.631 138.814C193.376 138.814 194.58 138.528 194.592 138.525L194.65 138.511L195.156 123.882L194.51 124.403L194.609 124.525L194.987 124.222L194.497 138.385C194.23 138.443 193.066 138.672 191.477 138.656L191.476 138.813C191.528 138.814 191.579 138.814 191.631 138.814Z" fill="#21111D"/>
<path fill-rule="evenodd" clip-rule="evenodd" d="M193.828 136.189C194.046 134.919 193.838 126.323 193.83 125.958L193.671 125.961C193.674 126.051 193.887 134.907 193.672 136.162L193.828 136.189Z" fill="#21111D"/>
<path fill-rule="evenodd" clip-rule="evenodd" d="M204.637 118.028L207.939 116.215L203.676 115.425L204.637 118.028Z" fill="#5089A0"/>
<path fill-rule="evenodd" clip-rule="evenodd" d="M204.514 117.821C204.569 117.785 207.705 116.12 207.705 116.12L207.754 116.315L204.637 118.028L204.514 117.821Z" fill="#4CB7D8"/>
<path fill-rule="evenodd" clip-rule="evenodd" d="M201.622 115.934L202.515 114.545C203.006 113.751 203.801 112.708 204.628 112.616C205.978 112.465 214.207 112.127 216.818 111.806L216.643 111.492C216.673 111.499 218.778 111.134 218.778 111.134L220.132 110.491L221.351 109.965C221.686 111.275 222.61 113.429 221.663 114.929C219.914 117.702 206.532 116.336 205.344 115.974L204.252 117.158L204.028 117.501C203.923 117.663 203.706 117.709 203.543 117.604C203.381 117.498 203.334 117.28 203.44 117.118L203.347 117.262C203.241 117.424 203.024 117.47 202.861 117.365C202.699 117.259 202.653 117.042 202.759 116.879C202.653 117.042 202.436 117.088 202.273 116.982C202.111 116.877 202.065 116.66 202.171 116.497L202.265 116.354C202.158 116.516 201.942 116.562 201.779 116.456L201.76 116.443L201.756 116.439L201.747 116.432L201.746 116.431L201.745 116.43C201.723 116.412 201.705 116.392 201.688 116.37C201.497 116.139 201.622 115.934 201.622 115.934Z" fill="#FE9F73"/>
<path fill-rule="evenodd" clip-rule="evenodd" d="M216.6 111.599L216.651 111.598C219.31 111.536 221.981 109.493 222.008 109.472L222.057 109.434L220.372 105.698L220.228 105.764L221.862 109.384C221.489 109.66 219.09 111.36 216.698 111.439L215.974 109.967L215.833 110.037L216.6 111.599Z" fill="#21111D"/>
<path fill-rule="evenodd" clip-rule="evenodd" d="M217.757 113.093C217.772 113.096 217.788 113.093 217.801 113.082C217.823 113.065 217.828 113.031 217.81 113.008L216.852 111.776C216.834 111.753 216.802 111.749 216.779 111.766C216.756 111.784 216.752 111.817 216.769 111.84L217.727 113.074C217.735 113.083 217.746 113.09 217.757 113.093Z" fill="#F07162"/>
<path fill-rule="evenodd" clip-rule="evenodd" d="M202.111 116.554C202.131 116.559 202.153 116.551 202.165 116.534L203.418 114.813C203.435 114.79 203.431 114.756 203.407 114.74C203.384 114.723 203.351 114.728 203.334 114.752L202.08 116.473C202.063 116.496 202.068 116.528 202.091 116.545L202.111 116.554Z" fill="#F07162"/>
<path fill-rule="evenodd" clip-rule="evenodd" d="M202.661 117.058C202.682 117.063 202.704 117.055 202.717 117.036L203.913 115.262C203.929 115.238 203.923 115.205 203.899 115.189C203.875 115.173 203.842 115.18 203.826 115.204L202.63 116.977C202.613 117.001 202.62 117.034 202.644 117.05L202.661 117.058Z" fill="#F07162"/>
<path fill-rule="evenodd" clip-rule="evenodd" d="M203.326 117.379C203.347 117.384 203.369 117.375 203.382 117.357L204.377 115.853C204.393 115.829 204.386 115.796 204.362 115.78C204.337 115.764 204.305 115.77 204.289 115.794L203.293 117.299C203.278 117.323 203.285 117.355 203.309 117.371L203.326 117.379Z" fill="#F07162"/>
<path fill-rule="evenodd" clip-rule="evenodd" d="M208.874 125.015C204.879 125.015 202.464 124.747 202.428 124.743L202.446 124.587C202.5 124.592 207.919 125.195 216 124.586L216.012 124.743C213.3 124.947 210.887 125.015 208.874 125.015Z" fill="#21111D"/>
<path fill-rule="evenodd" clip-rule="evenodd" d="M203.218 110.572L203.061 110.566L203.273 103.872L203.43 103.877L203.218 110.572Z" fill="#21111D"/>
<path fill-rule="evenodd" clip-rule="evenodd" d="M191.043 106.822L192.465 117.02L204.637 118.028L204.223 106.931L191.043 106.822Z" fill="#4CB7D8"/>
<path fill-rule="evenodd" clip-rule="evenodd" d="M216.579 111.63L213.449 104.425L213.594 104.363L216.723 111.567L216.579 111.63Z" fill="#21111D"/>
<path fill-rule="evenodd" clip-rule="evenodd" d="M216.103 111.886L215.755 109.727L215.91 109.702L216.26 111.861L216.103 111.886Z" fill="#21111D"/>
<path fill-rule="evenodd" clip-rule="evenodd" d="M207.873 95.2754C207.883 95.2754 207.894 95.2686 207.897 95.2571C207.901 95.2437 207.895 95.2293 207.88 95.2245L207.353 95.0499L207.52 93.8105C207.522 93.7961 207.512 93.7827 207.497 93.7807C207.483 93.7788 207.47 93.7894 207.468 93.8028L207.296 95.0864L207.864 95.2744L207.873 95.2754Z" fill="#F07162"/>
<path fill-rule="evenodd" clip-rule="evenodd" d="M208.28 95.7876C208.264 95.7847 207.239 95.7598 207.239 95.7598C207.239 95.7598 207.368 96.1838 207.749 96.1934C208.13 96.204 208.28 95.7876 208.28 95.7876Z" fill="#FBFDFC"/>
<path fill-rule="evenodd" clip-rule="evenodd" d="M197.868 111.599C197.868 111.855 197.659 112.063 197.403 112.063C197.147 112.063 196.94 111.855 196.94 111.599C196.94 111.344 197.147 111.136 197.403 111.136C197.659 111.136 197.868 111.344 197.868 111.599Z" fill="#E2F2F1"/>
<path fill-rule="evenodd" clip-rule="evenodd" d="M121.738 22.9279C121.738 24.1465 120.75 25.1343 119.532 25.1343C118.313 25.1343 117.325 24.1465 117.325 22.9279C117.325 21.7092 118.313 20.7214 119.532 20.7214C120.75 20.7214 121.738 21.7092 121.738 22.9279Z" fill="#FECC86"/>
<path fill-rule="evenodd" clip-rule="evenodd" d="M126.055 28.1082C126.055 28.6381 125.626 29.0676 125.096 29.0676C124.566 29.0676 124.137 28.6381 124.137 28.1082C124.137 27.5784 124.566 27.1489 125.096 27.1489C125.626 27.1489 126.055 27.5784 126.055 28.1082Z" fill="#FECC86"/>
<path fill-rule="evenodd" clip-rule="evenodd" d="M64.8504 52.475C64.8504 53.6936 63.8626 54.6814 62.6439 54.6814C61.4253 54.6814 60.4375 53.6936 60.4375 52.475C60.4375 51.2564 61.4253 50.2686 62.6439 50.2686C63.8626 50.2686 64.8504 51.2564 64.8504 52.475Z" fill="#FECC86"/>
<path fill-rule="evenodd" clip-rule="evenodd" d="M46.0477 83.1735C46.0477 84.3919 45.0598 85.38 43.8412 85.38C42.6226 85.38 41.6348 84.3919 41.6348 83.1735C41.6348 81.9549 42.6226 80.967 43.8412 80.967C45.0598 80.967 46.0477 81.9549 46.0477 83.1735Z" fill="#FECC86"/>
<path fill-rule="evenodd" clip-rule="evenodd" d="M58.423 60.8211C58.423 61.351 57.9936 61.7805 57.4637 61.7805C56.9339 61.7805 56.5044 61.351 56.5044 60.8211C56.5044 60.2913 56.9339 59.8618 57.4637 59.8618C57.9936 59.8618 58.423 60.2913 58.423 60.8211Z" fill="#FECC86"/>
<path fill-rule="evenodd" clip-rule="evenodd" d="M29.6433 77.7054C29.6433 78.2353 29.2138 78.6647 28.6839 78.6647C28.1541 78.6647 27.7246 78.2353 27.7246 77.7054C27.7246 77.1756 28.1541 76.7461 28.6839 76.7461C29.2138 76.7461 29.6433 77.1756 29.6433 77.7054Z" fill="#FECC86"/>
<path fill-rule="evenodd" clip-rule="evenodd" d="M138.719 57.4635C138.719 58.6822 137.73 59.67 136.512 59.67C135.294 59.67 134.306 58.6822 134.306 57.4635C134.306 56.2449 135.294 55.2571 136.512 55.2571C137.73 55.2571 138.719 56.2449 138.719 57.4635Z" fill="#FECC86"/>
<path fill-rule="evenodd" clip-rule="evenodd" d="M129.029 61.109C129.029 61.6388 128.599 62.0683 128.07 62.0683C127.54 62.0683 127.11 61.6388 127.11 61.109C127.11 60.5791 127.54 60.1497 128.07 60.1497C128.599 60.1497 129.029 60.5791 129.029 61.109Z" fill="#FECC86"/>
<path fill-rule="evenodd" clip-rule="evenodd" d="M145.817 67.9201C145.817 68.8738 145.044 69.6469 144.091 69.6469C143.137 69.6469 142.364 68.8738 142.364 67.9201C142.364 66.9665 143.137 66.1934 144.091 66.1934C145.044 66.1934 145.817 66.9665 145.817 67.9201Z" fill="#FECC86"/>
<path fill-rule="evenodd" clip-rule="evenodd" d="M232.828 88.8334C232.828 90.0518 231.84 91.0399 230.622 91.0399C229.403 91.0399 228.415 90.0518 228.415 88.8334C228.415 87.6151 229.403 86.627 230.622 86.627C231.84 86.627 232.828 87.6151 232.828 88.8334Z" fill="#FECC86"/>
<path fill-rule="evenodd" clip-rule="evenodd" d="M190.138 99.7697C190.138 100.988 189.15 101.976 187.932 101.976C186.713 101.976 185.725 100.988 185.725 99.7697C185.725 98.5513 186.713 97.5632 187.932 97.5632C189.15 97.5632 190.138 98.5513 190.138 99.7697Z" fill="#FECC86"/>
<path fill-rule="evenodd" clip-rule="evenodd" d="M223.139 92.4789C223.139 93.0084 222.709 93.4382 222.18 93.4382C221.65 93.4382 221.22 93.0084 221.22 92.4789C221.22 91.9493 221.65 91.5195 222.18 91.5195C222.709 91.5195 223.139 91.9493 223.139 92.4789Z" fill="#FECC86"/>
<path fill-rule="evenodd" clip-rule="evenodd" d="M194.359 89.9847C194.359 90.5143 193.929 90.944 193.4 90.944C192.87 90.944 192.44 90.5143 192.44 89.9847C192.44 89.4552 192.87 89.0254 193.4 89.0254C193.929 89.0254 194.359 89.4552 194.359 89.9847Z" fill="#FECC86"/>
<path fill-rule="evenodd" clip-rule="evenodd" d="M239.927 99.29C239.927 100.244 239.154 101.017 238.2 101.017C237.247 101.017 236.473 100.244 236.473 99.29C236.473 98.3364 237.247 97.5632 238.2 97.5632C239.154 97.5632 239.927 98.3364 239.927 99.29Z" fill="#FECC86"/>
<path fill-rule="evenodd" clip-rule="evenodd" d="M129.893 82.2141V127.686H163.757V89.6968L156.466 82.2141H129.893Z" fill="white"/>
<path fill-rule="evenodd" clip-rule="evenodd" d="M163.756 89.7112L156.508 82.2141V89.7112H163.756Z" fill="#AAC9F8"/>
<path fill-rule="evenodd" clip-rule="evenodd" d="M153.204 87.8741H138.431C138.219 87.8741 138.047 87.7024 138.047 87.4904C138.047 87.2784 138.219 87.1067 138.431 87.1067H153.204C153.416 87.1067 153.588 87.2784 153.588 87.4904C153.588 87.7024 153.416 87.8741 153.204 87.8741Z" fill="#AAC9F8"/>
<path fill-rule="evenodd" clip-rule="evenodd" d="M155.219 90.848H136.416C136.204 90.848 136.032 90.6763 136.032 90.4643C136.032 90.2523 136.204 90.0806 136.416 90.0806H155.219C155.431 90.0806 155.602 90.2523 155.602 90.4643C155.602 90.6763 155.431 90.848 155.219 90.848Z" fill="#AAC9F8"/>
<path fill-rule="evenodd" clip-rule="evenodd" d="M160.207 97.947H132.962C132.75 97.947 132.579 97.7752 132.579 97.5632C132.579 97.3512 132.75 97.1794 132.962 97.1794H160.207C160.419 97.1794 160.591 97.3512 160.591 97.5632C160.591 97.7752 160.419 97.947 160.207 97.947Z" fill="#AAC9F8"/>
<path fill-rule="evenodd" clip-rule="evenodd" d="M160.207 101.305H132.962C132.75 101.305 132.579 101.133 132.579 100.921C132.579 100.709 132.75 100.537 132.962 100.537H160.207C160.419 100.537 160.591 100.709 160.591 100.921C160.591 101.133 160.419 101.305 160.207 101.305Z" fill="#AAC9F8"/>
<path fill-rule="evenodd" clip-rule="evenodd" d="M160.207 104.662H132.962C132.75 104.662 132.579 104.491 132.579 104.279C132.579 104.066 132.75 103.895 132.962 103.895H160.207C160.419 103.895 160.591 104.066 160.591 104.279C160.591 104.491 160.419 104.662 160.207 104.662Z" fill="#AAC9F8"/>
<path fill-rule="evenodd" clip-rule="evenodd" d="M160.207 111.378H132.962C132.75 111.378 132.579 111.206 132.579 110.994C132.579 110.782 132.75 110.61 132.962 110.61H160.207C160.419 110.61 160.591 110.782 160.591 110.994C160.591 111.206 160.419 111.378 160.207 111.378Z" fill="#AAC9F8"/>
<path fill-rule="evenodd" clip-rule="evenodd" d="M160.207 114.735H132.962C132.75 114.735 132.579 114.564 132.579 114.351C132.579 114.139 132.75 113.968 132.962 113.968H160.207C160.419 113.968 160.591 114.139 160.591 114.351C160.591 114.564 160.419 114.735 160.207 114.735Z" fill="#AAC9F8"/>
<path fill-rule="evenodd" clip-rule="evenodd" d="M160.207 123.369H132.962C132.75 123.369 132.579 123.198 132.579 122.986C132.579 122.774 132.75 122.602 132.962 122.602H160.207C160.419 122.602 160.591 122.774 160.591 122.986C160.591 123.198 160.419 123.369 160.207 123.369Z" fill="#AAC9F8"/>
<path fill-rule="evenodd" clip-rule="evenodd" d="M96.1532 164.183L96.2558 164.332L96.3182 164.474H96.7173L60.3871 112.342C60.3411 112.275 60.2504 112.259 60.1845 112.305C60.1185 112.351 60.1023 112.441 60.1482 112.508L96.1589 164.183H96.1532Z" fill="#21111D"/>
<path fill-rule="evenodd" clip-rule="evenodd" d="M0 165.1H250V164.332H0V165.1Z" fill="#21111D"/>
</g>
<defs>
<clipPath id="clip0">
<rect width="250" height="165.675" fill="white"/>
</clipPath>
</defs>
</svg>
