<svg width="170" height="46" viewBox="0 0 170 46" fill="none" xmlns="http://www.w3.org/2000/svg">
<path d="M30 6.5C30 6.5 66.5409 6.5 98.6792 6.5C121.943 6.5 148.898 6.5 162.011 6.5C166.429 6.5 170 10.0817 170 14.5V34.5C170 38.9183 166.429 42.5 162.011 42.5C148.898 42.5 121.943 42.5 98.6792 42.5C66.5409 42.5 30 42.5 30 42.5V6.5Z" fill="#EC4536"/>
<path d="M60.7783 27.6426C60.7783 27.1445 60.6025 26.7637 60.251 26.5C59.8994 26.2305 59.2666 25.9492 58.3525 25.6562C57.4385 25.3574 56.7148 25.0645 56.1816 24.7773C54.7285 23.9922 54.002 22.9346 54.002 21.6045C54.002 20.9131 54.1953 20.2979 54.582 19.7588C54.9746 19.2139 55.5342 18.7891 56.2607 18.4844C56.9932 18.1797 57.8135 18.0273 58.7217 18.0273C59.6357 18.0273 60.4502 18.1943 61.165 18.5283C61.8799 18.8564 62.4336 19.3223 62.8262 19.9258C63.2246 20.5293 63.4238 21.2148 63.4238 21.9824H60.7871C60.7871 21.3965 60.6025 20.9424 60.2334 20.6201C59.8643 20.292 59.3457 20.1279 58.6777 20.1279C58.0332 20.1279 57.5322 20.2656 57.1748 20.541C56.8174 20.8105 56.6387 21.168 56.6387 21.6133C56.6387 22.0293 56.8467 22.3779 57.2627 22.6592C57.6846 22.9404 58.3027 23.2041 59.1172 23.4502C60.6172 23.9014 61.71 24.4609 62.3955 25.1289C63.0811 25.7969 63.4238 26.6289 63.4238 27.625C63.4238 28.7324 63.0049 29.6025 62.167 30.2354C61.3291 30.8623 60.2012 31.1758 58.7832 31.1758C57.7988 31.1758 56.9023 30.9971 56.0938 30.6396C55.2852 30.2764 54.667 29.7812 54.2393 29.1543C53.8174 28.5273 53.6064 27.8008 53.6064 26.9746H56.252C56.252 28.3867 57.0957 29.0928 58.7832 29.0928C59.4102 29.0928 59.8994 28.9668 60.251 28.7148C60.6025 28.457 60.7783 28.0996 60.7783 27.6426ZM76.1623 18.2031V26.6318C76.1623 28.0322 75.7229 29.1396 74.844 29.9541C73.9709 30.7686 72.7756 31.1758 71.258 31.1758C69.7639 31.1758 68.5774 30.7803 67.6985 29.9893C66.8196 29.1982 66.3713 28.1113 66.3538 26.7285V18.2031H68.9905V26.6494C68.9905 27.4873 69.1897 28.0996 69.5881 28.4863C69.9924 28.8672 70.5491 29.0576 71.258 29.0576C72.7405 29.0576 73.4934 28.2783 73.5168 26.7197V18.2031H76.1623ZM79.5845 31V18.2031H84.0669C85.6196 18.2031 86.7973 18.502 87.6001 19.0996C88.4028 19.6914 88.8042 20.5615 88.8042 21.71C88.8042 22.3369 88.643 22.8906 88.3208 23.3711C87.9985 23.8457 87.5503 24.1943 86.9761 24.417C87.6323 24.5811 88.1479 24.9121 88.5229 25.4102C88.9038 25.9082 89.0942 26.5176 89.0942 27.2383C89.0942 28.4688 88.7016 29.4004 87.9165 30.0332C87.1313 30.666 86.0122 30.9883 84.5591 31H79.5845ZM82.2212 25.4277V28.8818H84.48C85.1011 28.8818 85.5845 28.7354 85.9302 28.4424C86.2817 28.1436 86.4575 27.7334 86.4575 27.2119C86.4575 26.04 85.8511 25.4453 84.6382 25.4277H82.2212ZM82.2212 23.5645H84.1723C85.5024 23.541 86.1675 23.0107 86.1675 21.9736C86.1675 21.3936 85.9975 20.9775 85.6577 20.7256C85.3237 20.4678 84.7934 20.3389 84.0669 20.3389H82.2212V23.5645ZM98.9763 27.6426C98.9763 27.1445 98.8005 26.7637 98.4489 26.5C98.0974 26.2305 97.4646 25.9492 96.5505 25.6562C95.6364 25.3574 94.9128 25.0645 94.3796 24.7773C92.9265 23.9922 92.1999 22.9346 92.1999 21.6045C92.1999 20.9131 92.3933 20.2979 92.78 19.7588C93.1726 19.2139 93.7321 18.7891 94.4587 18.4844C95.1911 18.1797 96.0114 18.0273 96.9196 18.0273C97.8337 18.0273 98.6482 18.1943 99.363 18.5283C100.078 18.8564 100.632 19.3223 101.024 19.9258C101.423 20.5293 101.622 21.2148 101.622 21.9824H98.9851C98.9851 21.3965 98.8005 20.9424 98.4314 20.6201C98.0622 20.292 97.5437 20.1279 96.8757 20.1279C96.2312 20.1279 95.7302 20.2656 95.3728 20.541C95.0154 20.8105 94.8366 21.168 94.8366 21.6133C94.8366 22.0293 95.0446 22.3779 95.4607 22.6592C95.8825 22.9404 96.5007 23.2041 97.3152 23.4502C98.8152 23.9014 99.9079 24.4609 100.593 25.1289C101.279 25.7969 101.622 26.6289 101.622 27.625C101.622 28.7324 101.203 29.6025 100.365 30.2354C99.5271 30.8623 98.3991 31.1758 96.9812 31.1758C95.9968 31.1758 95.1003 30.9971 94.2917 30.6396C93.4831 30.2764 92.865 29.7812 92.4372 29.1543C92.0154 28.5273 91.8044 27.8008 91.8044 26.9746H94.4499C94.4499 28.3867 95.2937 29.0928 96.9812 29.0928C97.6081 29.0928 98.0974 28.9668 98.4489 28.7148C98.8005 28.457 98.9763 28.0996 98.9763 27.6426ZM114.721 26.7373C114.621 28.1143 114.111 29.1982 113.191 29.9893C112.277 30.7803 111.07 31.1758 109.57 31.1758C107.93 31.1758 106.638 30.625 105.694 29.5234C104.757 28.416 104.288 26.8984 104.288 24.9707V24.1885C104.288 22.958 104.505 21.874 104.938 20.9365C105.372 19.999 105.99 19.2812 106.793 18.7832C107.602 18.2793 108.539 18.0273 109.605 18.0273C111.082 18.0273 112.271 18.4229 113.174 19.2139C114.076 20.0049 114.598 21.1152 114.738 22.5449H112.102C112.037 21.7188 111.806 21.1211 111.407 20.752C111.015 20.377 110.414 20.1895 109.605 20.1895C108.727 20.1895 108.067 20.5059 107.628 21.1387C107.194 21.7656 106.972 22.7412 106.96 24.0654V25.0322C106.96 26.415 107.168 27.4258 107.584 28.0645C108.006 28.7031 108.668 29.0225 109.57 29.0225C110.385 29.0225 110.991 28.8379 111.39 28.4688C111.794 28.0938 112.025 27.5166 112.084 26.7373H114.721ZM122.449 26.3154H120.349V31H117.712V18.2031H122.467C123.979 18.2031 125.145 18.54 125.965 19.2139C126.785 19.8877 127.196 20.8398 127.196 22.0703C127.196 22.9434 127.005 23.6729 126.624 24.2588C126.249 24.8389 125.678 25.3018 124.91 25.6475L127.679 30.877V31H124.849L122.449 26.3154ZM120.349 24.1797H122.476C123.138 24.1797 123.651 24.0127 124.014 23.6787C124.377 23.3389 124.559 22.873 124.559 22.2812C124.559 21.6777 124.386 21.2031 124.04 20.8574C123.7 20.5117 123.176 20.3389 122.467 20.3389H120.349V24.1797ZM133.272 31H130.635V18.2031H133.272V31ZM136.984 31V18.2031H141.466C143.019 18.2031 144.197 18.502 145 19.0996C145.802 19.6914 146.204 20.5615 146.204 21.71C146.204 22.3369 146.043 22.8906 145.72 23.3711C145.398 23.8457 144.95 24.1943 144.376 24.417C145.032 24.5811 145.548 24.9121 145.923 25.4102C146.303 25.9082 146.494 26.5176 146.494 27.2383C146.494 28.4688 146.101 29.4004 145.316 30.0332C144.531 30.666 143.412 30.9883 141.959 31H136.984ZM139.621 25.4277V28.8818H141.88C142.501 28.8818 142.984 28.7354 143.33 28.4424C143.681 28.1436 143.857 27.7334 143.857 27.2119C143.857 26.04 143.251 25.4453 142.038 25.4277H139.621ZM139.621 23.5645H141.572C142.902 23.541 143.567 23.0107 143.567 21.9736C143.567 21.3936 143.397 20.9775 143.057 20.7256C142.723 20.4678 142.193 20.3389 141.466 20.3389H139.621V23.5645ZM157.439 25.4541H152.377V28.8818H158.318V31H149.74V18.2031H158.301V20.3389H152.377V23.3887H157.439V25.4541Z" fill="white"/>
<circle cx="23" cy="23" r="23" fill="#EC4536"/>
<circle cx="23" cy="23" r="20.5" fill="#EC4536" stroke="white"/>
<path d="M31.3204 22.0683C30.8603 22.0683 30.4871 21.6951 30.4871 21.235C30.4871 18.8975 29.577 16.7009 27.9245 15.0474C27.5987 14.7217 27.5987 14.1951 27.9245 13.8691C28.2503 13.5434 28.777 13.5434 29.1028 13.8691C31.0704 15.8366 32.1536 18.4526 32.1536 21.235C32.1536 21.6951 31.7804 22.0683 31.3204 22.0683Z" fill="white"/>
<path d="M14.6536 22.0683C14.1937 22.0683 13.8203 21.6951 13.8203 21.235C13.8203 18.4526 14.9037 15.8366 16.8712 13.8691C17.1969 13.5434 17.7237 13.5434 18.0494 13.8691C18.3754 14.1951 18.3754 14.7217 18.0494 15.0474C16.3969 16.7 15.487 18.8975 15.487 21.235C15.487 21.6951 15.1136 22.0683 14.6536 22.0683Z" fill="white"/>
<path d="M30.8029 27.0942C29.5428 26.0292 28.8203 24.4725 28.8203 22.8233V20.5C28.8203 17.5676 26.6419 15.14 23.8203 14.7334V13.8333C23.8203 13.3725 23.4469 13 22.987 13C22.5269 13 22.1536 13.3725 22.1536 13.8333V14.7334C19.3311 15.14 17.1536 17.5676 17.1536 20.5V22.8233C17.1536 24.4725 16.4311 26.0292 15.1637 27.1008C14.8394 27.3784 14.6536 27.7816 14.6536 28.2083C14.6536 29.0126 15.3077 29.6667 16.112 29.6667H29.862C30.6661 29.6667 31.3203 29.0126 31.3203 28.2083C31.3203 27.7816 31.1344 27.3784 30.8029 27.0942Z" fill="white"/>
<path d="M22.987 33C24.4961 33 25.7586 31.9241 26.0486 30.5H19.9253C20.2152 31.9241 21.4777 33 22.987 33Z" fill="white"/>
</svg>
