<svg width="270" height="270" viewBox="0 0 270 270" fill="none" xmlns="http://www.w3.org/2000/svg">
<path fill-rule="evenodd" clip-rule="evenodd" d="M91.4182 191.271C86.0576 191.271 80.7111 190.536 75.5228 189.151C75.9812 181.677 76.4051 174.079 76.6676 167.795C76.7021 166.973 76.7334 166.174 76.7621 165.4C76.7621 165.4 76.8895 160.344 77.0062 153.737C77.0386 151.901 77.0704 149.941 77.098 147.941L91.3458 143.856L87.737 131.268L77.1919 134.292C77.173 128.509 77.0434 124.058 76.7054 123.421C76.1162 122.309 74.8634 121.469 73.3801 120.837L74.3391 119.788C74.3391 119.788 73.4108 119.39 71.2789 119.065V113.712L59.8104 109.914C61.8165 102.835 74.358 96.248 77.0386 95.0794C80.0836 93.7521 78.2562 86.7818 77.1438 84.5073C76.7421 83.6854 76.106 83.4554 75.235 83.4554C74.6798 83.4554 74.0286 83.5488 73.2829 83.6428C72.5366 83.7362 71.6947 83.8301 70.7573 83.8301C70.0342 83.8301 69.2539 83.774 68.4169 83.6195C67.4611 83.443 66.6144 83.3728 65.8708 83.3728C62.9521 83.3728 61.6324 84.4571 61.6324 84.4571C61.6324 84.4571 61.2058 83.3555 60.4595 81.9299C59.144 83.1314 60.1911 84.8054 60.1911 84.8054C60.1911 84.8054 59.8671 84.6266 59.4367 84.6266C58.7396 84.6266 57.7627 85.097 57.4317 87.5605C53.6895 87.5821 50.4657 91.4134 50.558 94.1215C50.6509 96.829 52.4092 109.719 54.8829 111.967C55.7123 112.72 57.5905 112.842 58.7191 112.842C59.0744 112.842 59.3552 112.83 59.5058 112.822L60.332 119.15C58.2541 119.573 56.7896 120.106 56.7896 120.106L57.0618 120.337C56.228 120.638 55.5179 121.002 55.0643 121.441C53.5642 122.89 50.8448 130.359 48.3883 142.549L30.685 147.624C29.0342 142.044 28.4542 136.22 29.4219 130.488C32.7051 111.048 52.3924 97.5337 55.7572 78.1078C57.8318 66.1284 53.3844 53.15 58.1764 41.9764C62.6875 31.4577 74.6804 25.5625 86.1278 25.5625C86.1483 25.5625 86.1694 25.5625 86.1899 25.5625C97.6552 25.5841 108.565 30.5381 118.274 36.6374C127.38 42.3581 135.796 49.1621 145.055 54.6156V56.2183H102.699V190.156C101.815 190.332 100.926 190.488 100.033 190.624C97.1724 191.06 94.2937 191.271 91.4182 191.271ZM63.8102 184.793C61.0119 183.442 58.3043 181.895 55.7161 180.17L57.4079 174.098C57.4079 174.098 61.0486 174.098 63.2362 174.098C63.3663 174.238 63.578 178.677 63.8102 184.793ZM43.7967 170.025C41.6113 167.661 39.6036 165.135 37.8054 162.463C37.199 161.563 36.6153 160.644 36.0558 159.707L45.9923 156.858C45.8887 157.611 45.7877 158.375 45.6883 159.149C45.6883 159.149 44.9307 163.439 43.7967 170.025Z" fill="#DBECED"/>
<path fill-rule="evenodd" clip-rule="evenodd" d="M231.85 213.348V105.084C233.38 102.946 235.184 101.103 237.559 99.9886C239.033 99.2969 240.61 98.9799 242.199 98.9799C246.79 98.9799 251.481 101.629 254.091 105.546C257.603 110.818 257.892 117.703 256.448 123.871C255.003 130.039 252.006 135.709 249.286 141.431C246.567 147.153 244.063 153.147 243.725 159.473C243.168 169.908 248.555 180.156 247.075 190.5C246.244 196.314 243.271 201.648 239.534 206.179C237.3 208.888 234.747 211.38 231.85 213.348Z" fill="#FDEBC5"/>
<path fill-rule="evenodd" clip-rule="evenodd" d="M134.904 236.394C68.9839 236.394 15.545 233.376 15.545 229.652C15.545 228.33 22.2901 227.096 33.9444 226.055C31.9459 226.585 28.6783 227.603 28.4002 228.66C28.2301 229.307 30.7039 229.494 33.6188 229.494C37.6083 229.494 42.4246 229.144 42.4246 229.144L43.0931 225.344C49.6411 224.9 57.1849 224.503 65.5274 224.166L65.7023 229.144C65.7023 229.144 70.5181 229.494 74.5076 229.494C77.4225 229.494 79.8968 229.307 79.7267 228.66C79.3238 227.128 72.6446 225.678 72.6446 225.678L72.7013 223.898C81.9434 223.578 92.0236 223.328 102.699 223.159V228.519H231.85V225.719C245.954 226.826 254.263 228.185 254.263 229.652C254.263 233.376 200.824 236.394 134.904 236.394Z" fill="#DEE0DC"/>
<path fill-rule="evenodd" clip-rule="evenodd" d="M102.699 228.519H231.85V56.2183H102.699V228.519Z" fill="#265464"/>
<path fill-rule="evenodd" clip-rule="evenodd" d="M223.945 222.179H110.603V67.831V219.542H223.945V222.179Z" fill="#1D4451"/>
<path fill-rule="evenodd" clip-rule="evenodd" d="M110.603 219.542H223.945V65.1947H110.603V219.542Z" fill="#FFFFFE"/>
<path fill-rule="evenodd" clip-rule="evenodd" d="M102.131 66.9422V55.6513H113.423L102.131 66.9422Z" fill="#CC8053"/>
<path fill-rule="evenodd" clip-rule="evenodd" d="M232.416 66.9422V55.6513H221.125L232.416 66.9422Z" fill="#CC8053"/>
<path fill-rule="evenodd" clip-rule="evenodd" d="M102.131 218.235V229.527H113.423L102.131 218.235Z" fill="#CC8053"/>
<path fill-rule="evenodd" clip-rule="evenodd" d="M232.416 218.235V229.527H221.125L232.416 218.235Z" fill="#CC8053"/>
<path fill-rule="evenodd" clip-rule="evenodd" d="M167.274 60.4632C162.818 60.4632 159.205 62.5233 159.205 58.0673V57.3831C159.205 52.927 162.818 49.3144 167.274 49.3144C171.73 49.3144 175.343 52.927 175.343 57.3831V58.0673C175.343 62.5233 171.73 60.4632 167.274 60.4632Z" fill="#F8C66D"/>
<path fill-rule="evenodd" clip-rule="evenodd" d="M146.201 70.7346H188.347V69.1718H146.201V70.7346Z" fill="#C3C7C3"/>
<path fill-rule="evenodd" clip-rule="evenodd" d="M145.055 69.1718H189.494V54.2327H145.055V69.1718Z" fill="#F8C66D"/>
<path fill-rule="evenodd" clip-rule="evenodd" d="M145.055 69.1718H189.494V62.4407H145.055V69.1718Z" fill="#ECA25E"/>
<path fill-rule="evenodd" clip-rule="evenodd" d="M121.942 109.299H137.448V93.792H121.942V109.299Z" fill="#9BCAD3"/>
<path fill-rule="evenodd" clip-rule="evenodd" d="M120.867 110.374H138.523V92.7174H120.867V110.374ZM120.3 110.941H139.09V92.1499H120.3V110.941Z" fill="#9BCAD3"/>
<path fill-rule="evenodd" clip-rule="evenodd" d="M121.942 133.057H137.448V117.55H121.942V133.057Z" fill="#9BCAD3"/>
<path fill-rule="evenodd" clip-rule="evenodd" d="M120.867 134.132H138.523V116.476H120.867V134.132ZM120.3 134.699H139.09V115.908H120.3V134.699Z" fill="#9BCAD3"/>
<path fill-rule="evenodd" clip-rule="evenodd" d="M121.942 156.815H137.448V141.309H121.942V156.815Z" fill="#9BCAD3"/>
<path fill-rule="evenodd" clip-rule="evenodd" d="M120.867 157.89H138.523V140.234H120.867V157.89ZM120.3 158.457H139.09V139.667H120.3V158.457Z" fill="#9BCAD3"/>
<path fill-rule="evenodd" clip-rule="evenodd" d="M128.312 106.976L119.36 98.1185C118.741 97.5051 118.736 96.5061 119.348 95.8873C119.962 95.2673 120.961 95.2635 121.58 95.8754L128.187 102.413L138.673 90.8312C139.256 90.1854 140.255 90.1346 140.901 90.7205C141.546 91.3048 141.596 92.3027 141.011 92.9486L128.312 106.976Z" fill="#317A8B"/>
<path fill-rule="evenodd" clip-rule="evenodd" d="M128.312 130.913L119.36 122.055C118.741 121.442 118.736 120.443 119.348 119.824C119.962 119.204 120.961 119.201 121.58 119.813L128.187 126.35L138.673 114.768C139.256 114.123 140.255 114.072 140.901 114.658C141.546 115.242 141.596 116.24 141.011 116.886L128.312 130.913Z" fill="#317A8B"/>
<path fill-rule="evenodd" clip-rule="evenodd" d="M128.312 154.282L119.36 145.425C118.741 144.812 118.736 143.813 119.348 143.194C119.962 142.574 120.961 142.571 121.58 143.182L128.187 149.72L138.673 138.138C139.256 137.492 140.255 137.441 140.901 138.027C141.546 138.612 141.596 139.609 141.011 140.255L128.312 154.282Z" fill="#317A8B"/>
<path fill-rule="evenodd" clip-rule="evenodd" d="M121.942 180.573H137.448V165.067H121.942V180.573Z" fill="#9BCAD3"/>
<path fill-rule="evenodd" clip-rule="evenodd" d="M120.867 181.648H138.523V163.992H120.867V181.648ZM120.3 182.215H139.09V163.425H120.3V182.215Z" fill="#9BCAD3"/>
<path fill-rule="evenodd" clip-rule="evenodd" d="M121.942 204.332H137.448V188.825H121.942V204.332Z" fill="#9BCAD3"/>
<path fill-rule="evenodd" clip-rule="evenodd" d="M120.867 205.406H138.523V187.75H120.867V205.406ZM120.3 205.974H139.09V187.183H120.3V205.974Z" fill="#9BCAD3"/>
<path fill-rule="evenodd" clip-rule="evenodd" d="M144.702 97.9868H213.323V96.1157H144.702V97.9868Z" fill="#317A8B"/>
<path fill-rule="evenodd" clip-rule="evenodd" d="M144.702 102.481H213.323V100.61H144.702V102.481Z" fill="#317A8B"/>
<path fill-rule="evenodd" clip-rule="evenodd" d="M144.702 106.976H165.916V105.104H144.702V106.976Z" fill="#317A8B"/>
<path fill-rule="evenodd" clip-rule="evenodd" d="M144.702 121.446H213.323V119.575H144.702V121.446Z" fill="#317A8B"/>
<path fill-rule="evenodd" clip-rule="evenodd" d="M144.702 125.94H213.323V124.069H144.702V125.94Z" fill="#317A8B"/>
<path fill-rule="evenodd" clip-rule="evenodd" d="M144.702 130.435H189.541V128.564H144.702V130.435Z" fill="#317A8B"/>
<path fill-rule="evenodd" clip-rule="evenodd" d="M144.702 144.906H213.323V143.034H144.702V144.906Z" fill="#317A8B"/>
<path fill-rule="evenodd" clip-rule="evenodd" d="M144.702 149.4H203.395V147.529H144.702V149.4Z" fill="#317A8B"/>
<path fill-rule="evenodd" clip-rule="evenodd" d="M144.702 153.894H165.916V152.022H144.702V153.894Z" fill="#317A8B"/>
<path fill-rule="evenodd" clip-rule="evenodd" d="M144.702 168.364H213.323V166.493H144.702V168.364Z" fill="#317A8B"/>
<path fill-rule="evenodd" clip-rule="evenodd" d="M144.702 172.859H179.284V170.988H144.702V172.859Z" fill="#317A8B"/>
<path fill-rule="evenodd" clip-rule="evenodd" d="M144.702 191.824H213.323V189.953H144.702V191.824Z" fill="#317A8B"/>
<path fill-rule="evenodd" clip-rule="evenodd" d="M144.702 196.319H213.323V194.447H144.702V196.319Z" fill="#317A8B"/>
<path fill-rule="evenodd" clip-rule="evenodd" d="M144.702 200.812H194.736V198.941H144.702V200.812Z" fill="#317A8B"/>
<path fill-rule="evenodd" clip-rule="evenodd" d="M134.748 81.6523H199.988V77.0283H134.748V81.6523Z" fill="#317A8B"/>
<path fill-rule="evenodd" clip-rule="evenodd" d="M169.131 52.913C169.131 53.9385 168.3 54.7695 167.274 54.7695C166.249 54.7695 165.417 53.9385 165.417 52.913C165.417 51.8875 166.249 51.0559 167.274 51.0559C168.3 51.0559 169.131 51.8875 169.131 52.913Z" fill="#FFFFFE"/>
<path fill-rule="evenodd" clip-rule="evenodd" d="M36.5408 220.439L35.4824 225.678C35.4824 225.678 28.8031 227.128 28.4003 228.66C27.9969 230.191 42.4246 229.144 42.4246 229.144L43.956 220.439H36.5408Z" fill="#476080"/>
<mask id="mask0" style="mask-type:alpha" maskUnits="userSpaceOnUse" x="28" y="220" width="16" height="10">
<path d="M36.5408 220.439L35.4824 225.678C35.4824 225.678 28.8031 227.128 28.4003 228.66C27.9969 230.191 42.4246 229.144 42.4246 229.144L43.956 220.439H36.5408Z" fill="white"/>
</mask>
<g mask="url(#mask0)">
<path fill-rule="evenodd" clip-rule="evenodd" d="M41.8214 223.698C41.7345 223.698 41.647 223.697 41.5595 223.695C40.2867 223.665 39.0177 223.456 37.8038 223.073C37.2357 222.894 36.6725 222.671 36.1471 222.388L36.3226 221.518C39.0696 221.8 40.8953 221.88 42.0855 221.88C42.8895 221.88 43.4036 221.843 43.7152 221.807L43.4047 223.572C42.8836 223.661 42.3495 223.698 41.8214 223.698Z" fill="#405775"/>
</g>
<path fill-rule="evenodd" clip-rule="evenodd" d="M72.8114 220.439L72.6446 225.678C72.6446 225.678 79.3238 227.128 79.7267 228.66C80.1295 230.191 65.7023 229.144 65.7023 229.144L65.3961 220.439H72.8114Z" fill="#476080"/>
<mask id="mask1" style="mask-type:alpha" maskUnits="userSpaceOnUse" x="65" y="220" width="15" height="10">
<path d="M72.8114 220.439L72.6446 225.678C72.6446 225.678 79.3238 227.128 79.7267 228.66C80.1295 230.191 65.7023 229.144 65.7023 229.144L65.3961 220.439H72.8114Z" fill="white"/>
</mask>
<g mask="url(#mask1)">
<path fill-rule="evenodd" clip-rule="evenodd" d="M67.2538 224.177C66.7624 224.177 66.1106 224.122 65.5236 224.056L65.4442 221.796C66.1829 221.887 67.7057 222.046 69.282 222.046C70.5337 222.046 71.8195 221.946 72.7736 221.631L72.7574 222.13C71.098 223.408 69.7604 223.952 67.6469 224.161C67.5346 224.172 67.4012 224.177 67.2538 224.177Z" fill="#405775"/>
</g>
<path fill-rule="evenodd" clip-rule="evenodd" d="M102.466 99.0619C102.466 99.0619 97.5067 97.5175 97.6115 96.0795C97.7157 94.6409 101.058 95.816 101.058 95.816C101.058 95.816 99.198 88.9693 99.9972 88.4131C100.797 87.8564 102.004 92.1375 102.004 92.1375C102.004 92.1375 102.235 87.9611 103.314 88.0394C104.393 88.1177 104.186 91.4647 104.186 91.4647C104.186 91.4647 105.391 88.8046 106.444 89.2426C107.496 89.6805 105.764 92.5825 105.764 92.5825C105.764 92.5825 108.438 91.0688 108.858 91.7951C109.278 92.5209 107.178 94.9385 107.178 94.9385C107.178 94.9385 109.773 97.3858 106.645 102.082C105.787 101.721 103.353 100.596 102.082 100.86L102.466 99.0619Z" fill="#F5C6AC"/>
<path fill-rule="evenodd" clip-rule="evenodd" d="M70.2961 119.848C70.2961 119.848 92.7337 121.831 101.312 100.074C107.44 99.1516 107.44 103.479 107.44 103.479C107.44 103.479 98.955 135.338 72.6322 131.165" fill="#FBCF61"/>
<path fill-rule="evenodd" clip-rule="evenodd" d="M45.6883 159.149C45.6883 159.149 38.8087 198.113 35.4823 221.429C42.6303 222.215 44.1336 221.735 44.1336 221.735L57.4079 174.098C57.4079 174.098 61.0486 174.098 63.2361 174.098C63.666 174.558 64.9798 221.735 64.9798 221.735C64.9798 221.735 70.977 222.623 73.339 221.397C73.339 221.397 76.0363 185.089 76.762 165.4L45.6883 159.149Z" fill="#6C81B2"/>
<mask id="mask2" style="mask-type:alpha" maskUnits="userSpaceOnUse" x="35" y="159" width="42" height="64">
<path d="M45.6883 159.149C45.6883 159.149 38.8087 198.112 35.4823 221.429C42.6303 222.215 44.1336 221.735 44.1336 221.735L57.4079 174.098C57.4079 174.098 61.0486 174.098 63.2361 174.098C63.666 174.558 64.9798 221.735 64.9798 221.735C64.9798 221.735 70.977 222.623 73.339 221.397C73.339 221.397 76.0363 185.089 76.762 165.4L45.6883 159.149Z" fill="white"/>
</mask>
<g mask="url(#mask2)">
<path d="M45.6883 159.149C45.6883 159.149 38.8087 198.112 35.4823 221.429C42.6303 222.215 44.1336 221.735 44.1336 221.735L57.4079 174.098C57.4079 174.098 61.0486 174.098 63.2361 174.098C63.666 174.558 64.9798 221.735 64.9798 221.735C64.9798 221.735 70.977 222.623 73.339 221.397C73.339 221.397 76.0363 185.089 76.762 165.4L45.6883 159.149Z" fill="#081269"/>
<path fill-rule="evenodd" clip-rule="evenodd" d="M62.5136 169.893C56.3403 169.893 50.1686 168.728 44.4025 166.518C45.1925 161.957 45.6883 159.149 45.6883 159.149C51.4647 165.241 59.5182 166.72 65.9782 166.721C72.0813 166.721 76.762 165.4 76.762 165.4C76.7334 166.174 76.7021 166.973 76.6675 167.795C73.3055 168.806 69.8392 169.467 66.3379 169.743C65.0651 169.844 63.7902 169.893 62.5136 169.893Z" fill="#2C3798"/>
</g>
<path fill-rule="evenodd" clip-rule="evenodd" d="M64.6984 118.987C64.6984 118.987 57.1568 119.418 55.0643 121.441C52.9712 123.463 48.5022 137.212 45.6882 159.149C56.9219 170.995 76.762 165.4 76.762 165.4C76.762 165.4 77.7713 125.431 76.7053 123.421C74.6684 119.577 64.6984 118.987 64.6984 118.987Z" fill="#FBCF61"/>
<mask id="mask3" style="mask-type:alpha" maskUnits="userSpaceOnUse" x="45" y="118" width="33" height="49">
<path d="M64.6984 118.987C64.6984 118.987 57.1568 119.418 55.0643 121.441C52.9712 123.463 48.5022 137.212 45.6882 159.149C56.9219 170.995 76.762 165.4 76.762 165.4C76.762 165.4 77.7713 125.431 76.7053 123.421C74.6684 119.577 64.6984 118.987 64.6984 118.987Z" fill="white"/>
</mask>
<g mask="url(#mask3)">
<path fill-rule="evenodd" clip-rule="evenodd" d="M57.3247 159.682C56.505 159.682 55.6734 159.65 54.8331 159.582C52.3929 159.386 48.8586 158.351 46.2261 156.791L77.0979 147.94C77.0703 149.941 77.0385 151.901 77.0061 153.737C72.4188 156.559 65.415 159.682 57.3247 159.682Z" fill="#EEB057"/>
</g>
<path fill-rule="evenodd" clip-rule="evenodd" d="M15.6805 161.401L14.269 156.477C13.6626 154.361 14.8862 152.153 17.003 151.546L87.7371 131.268L91.3459 143.856L20.6124 164.134C18.495 164.741 16.2875 163.517 15.6805 161.401Z" fill="#CE775F"/>
<mask id="mask4" style="mask-type:alpha" maskUnits="userSpaceOnUse" x="14" y="131" width="78" height="34">
<path d="M15.6805 161.401L14.269 156.477C13.6626 154.361 14.8862 152.153 17.003 151.546L87.737 131.268L91.3458 143.856L20.6124 164.134C18.495 164.741 16.2875 163.517 15.6805 161.401Z" fill="white"/>
</mask>
<g mask="url(#mask4)">
<path fill-rule="evenodd" clip-rule="evenodd" d="M80.5183 142.995L78.8692 137.242L81.2133 136.57L82.8625 142.322L80.5183 142.995Z" fill="#E2A997"/>
<path fill-rule="evenodd" clip-rule="evenodd" d="M23.436 159.359L21.7868 153.606L23.9646 152.981L25.6138 158.735L23.436 159.359Z" fill="#E2A997"/>
<path fill-rule="evenodd" clip-rule="evenodd" d="M7.55137 175.404L-0.0447998 148.908L18.8843 143.481L26.4805 169.977L7.55137 175.404Z" fill="#265464"/>
<path fill-rule="evenodd" clip-rule="evenodd" d="M26.6647 162.399L25.6138 158.735L80.5183 142.995L81.5692 146.659L77.098 147.941L46.2262 156.791L45.9923 156.858L26.6647 162.399Z" fill="#B7564C"/>
<path fill-rule="evenodd" clip-rule="evenodd" d="M83.9128 145.987L82.8625 142.322L90.295 140.192L91.3459 143.856L83.9128 145.987Z" fill="#B7564C"/>
<path fill-rule="evenodd" clip-rule="evenodd" d="M81.5692 146.659L80.5184 142.995L82.8625 142.322L83.9128 145.987L81.5692 146.659Z" fill="#C67271"/>
<path fill-rule="evenodd" clip-rule="evenodd" d="M24.4869 163.023L23.436 159.359L25.6139 158.735L26.6647 162.399L24.4869 163.023Z" fill="#C67271"/>
<path fill-rule="evenodd" clip-rule="evenodd" d="M19.5113 164.29C17.833 164.29 16.2848 163.222 15.7318 161.567L23.436 159.359L24.4868 163.023L20.6123 164.134C20.2451 164.239 19.8747 164.29 19.5113 164.29Z" fill="#1B3444"/>
<path fill-rule="evenodd" clip-rule="evenodd" d="M23.9647 152.981L23.0558 149.811L77.9603 134.071L78.8691 137.242L23.9647 152.981ZM81.2133 136.57L80.3039 133.399L87.737 131.268L88.6458 134.439L81.2133 136.57Z" fill="#C36957"/>
<path fill-rule="evenodd" clip-rule="evenodd" d="M78.8692 137.242L77.9604 134.071L80.304 133.399L81.2133 136.57L78.8692 137.242Z" fill="#D59187"/>
<path fill-rule="evenodd" clip-rule="evenodd" d="M21.7869 153.606L20.8781 150.435L23.0559 149.811L23.9647 152.981L21.7869 153.606Z" fill="#D59187"/>
<path fill-rule="evenodd" clip-rule="evenodd" d="M14.1361 155.799C14.121 155.657 14.114 155.515 14.114 155.374C14.115 153.642 15.2544 152.047 17.003 151.546L20.878 150.435L21.7868 153.606L14.1361 155.799Z" fill="#214858"/>
</g>
<path fill-rule="evenodd" clip-rule="evenodd" d="M87.737 131.268L99.9044 134.591L91.3459 143.856L87.737 131.268Z" fill="#FCE6A2"/>
<mask id="mask5" style="mask-type:alpha" maskUnits="userSpaceOnUse" x="87" y="131" width="13" height="13">
<path d="M87.737 131.268L99.9044 134.591L91.3459 143.856L87.737 131.268Z" fill="white"/>
</mask>
<g mask="url(#mask5)">
<path fill-rule="evenodd" clip-rule="evenodd" d="M105.498 141.378C101.311 142.578 96.943 140.157 95.7426 135.97C94.5422 131.783 96.9635 127.415 101.151 126.214C105.338 125.014 109.706 127.436 110.906 131.623C112.107 135.81 109.685 140.178 105.498 141.378Z" fill="#317A8B"/>
</g>
<path fill-rule="evenodd" clip-rule="evenodd" d="M53.5658 150.796C53.5658 150.796 57.2918 150.603 58.9626 151.309C60.6323 152.016 61.4412 152.433 61.4412 152.433L64.7735 151.478C64.7735 151.478 63.9689 155.866 59.9859 156.186C56.0029 156.508 52.6025 155.356 52.6025 155.356L53.5658 150.796Z" fill="#F5C6AC"/>
<path fill-rule="evenodd" clip-rule="evenodd" d="M60.3877 119.577C60.3877 119.577 36.8567 121.028 34.8695 141.804C33.5027 156.092 53.4271 156.814 53.4271 156.814L54.3602 150.481C54.3602 150.481 45.9946 147.016 45.9946 141.9C45.9946 136.783 55.0644 132.999 55.0644 132.999L60.3877 119.577Z" fill="#FBCF61"/>
<path fill-rule="evenodd" clip-rule="evenodd" d="M64.9739 118.644C60.8073 118.644 56.7897 120.106 56.7897 120.106L66.5107 128.36L74.3391 119.788C74.3391 119.788 71.6661 118.644 64.9739 118.644Z" fill="#EF9E59"/>
<path fill-rule="evenodd" clip-rule="evenodd" d="M59.6274 112.814C59.6274 112.814 56.1088 113.08 54.883 111.967C52.4092 109.719 50.651 96.829 50.5581 94.1215C50.4657 91.4134 53.6896 87.5821 57.4318 87.5605C57.9669 83.5763 60.1911 84.8054 60.1911 84.8054C60.1911 84.8054 59.1441 83.1314 60.4595 81.9299C61.2058 83.3555 61.6324 84.4571 61.6324 84.4571C61.6324 84.4571 63.7098 82.7501 68.417 83.6195C70.3388 83.9743 71.9605 83.8085 73.2829 83.6428C75.1994 83.4019 76.4862 83.1616 77.1439 84.5073C78.2563 86.7818 80.0837 93.7521 77.0386 95.0794C73.9936 96.4067 58.2261 104.726 59.6274 112.814Z" fill="#222C4C"/>
<path fill-rule="evenodd" clip-rule="evenodd" d="M59.0955 109.677L60.5772 121.027L66.4152 125.998L71.2789 121.027V113.712L59.0955 109.677Z" fill="#F5C6AC"/>
<mask id="mask6" style="mask-type:alpha" maskUnits="userSpaceOnUse" x="59" y="109" width="13" height="17">
<path d="M59.0955 109.677L60.5772 121.027L66.4152 125.998L71.279 121.027V113.712L59.0955 109.677Z" fill="white"/>
</mask>
<g mask="url(#mask6)">
<path fill-rule="evenodd" clip-rule="evenodd" d="M68.2657 118.612C66.602 118.612 64.9599 117.964 63.598 116.992C62.4521 116.173 61.4585 115.104 60.8936 113.814C60.4379 112.772 60.2753 111.624 60.2305 110.488C60.2251 110.342 60.2213 110.196 60.2197 110.049L71.2789 113.712V117.776C70.5543 118.219 69.7205 118.499 68.8759 118.582C68.6729 118.602 68.4693 118.612 68.2657 118.612Z" fill="#EFA998"/>
</g>
<path fill-rule="evenodd" clip-rule="evenodd" d="M61.2614 89.8587C57.3502 91.5316 53.6263 105.982 58.4988 112.21C63.3717 118.439 75.0433 117.259 79.1019 112.511C82.4072 108.645 77.5586 82.8883 61.2614 89.8587Z" fill="#F5C6AC"/>
<path fill-rule="evenodd" clip-rule="evenodd" d="M72.8401 98.5538C72.1543 98.8816 73.3822 105.648 73.3822 105.648C74.3083 105.768 77.1941 104.227 77.1941 103.622C77.1941 103.622 74.1453 97.9306 72.8401 98.5538Z" fill="#EC9984"/>
<path fill-rule="evenodd" clip-rule="evenodd" d="M53.6706 104.651C53.7338 103.519 54.7042 102.631 55.7399 102.169C56.7756 101.707 58.3994 104.356 59.5318 104.296C61.3775 104.198 62.8879 103.294 63.092 102.543C63.2367 102.011 63.1136 95.7593 63.8966 94.8634C65.2293 93.339 67.5286 93.2564 69.5536 93.272C71.5786 93.2872 73.8898 93.1559 75.1675 91.5856C75.4618 91.2233 75.6832 90.7924 75.7437 90.3301C75.8387 89.6017 75.5266 88.8743 75.0935 88.2814C73.608 86.251 70.8426 85.5679 68.3305 85.7077C64.2476 85.9351 60.3407 88.0016 57.692 91.1169C55.0422 94.2316 53.6382 98.3329 53.6058 102.422" fill="#222C4C"/>
<path fill-rule="evenodd" clip-rule="evenodd" d="M60.1997 105.377C60.1997 105.377 60.6857 97.8211 56.8069 98.9124C52.9276 100.004 53.8456 107.607 58.2601 107.461" fill="#F5C6AC"/>
<path fill-rule="evenodd" clip-rule="evenodd" d="M66.4503 98.3448C66.2764 98.7282 66.7753 99.7445 67.3202 99.6619C67.8651 99.5787 70.5305 99.2347 70.7978 98.6078C71.0646 97.9814 70.6029 97.2119 70.2335 97.0839C69.8641 96.9554 66.6663 97.8696 66.4503 98.3448Z" fill="#222C4C"/>
<path fill-rule="evenodd" clip-rule="evenodd" d="M74.7878 96.3068C74.5939 96.6681 74.9304 97.734 75.4212 97.7124C75.9121 97.6903 78.307 97.6455 78.6083 97.0526C78.9096 96.4597 78.5808 95.6437 78.267 95.4752C77.9533 95.3068 75.0281 95.8592 74.7878 96.3068Z" fill="#222C4C"/>
<path fill-rule="evenodd" clip-rule="evenodd" d="M69.9095 102.808C70.1244 102.905 70.3394 102.869 70.5413 102.814C70.847 102.73 71.1731 102.56 71.2584 102.133C71.3308 101.771 71.2028 101.332 71.037 100.967C70.9469 100.768 70.8432 100.576 70.7147 100.425C70.3426 99.9875 69.8058 100.005 69.531 100.416C69.1805 100.938 69.2189 102.499 69.9095 102.808Z" fill="#0E262F"/>
<path fill-rule="evenodd" clip-rule="evenodd" d="M76.4851 101.218C76.7006 101.315 76.9155 101.279 77.1169 101.224C77.4231 101.14 77.7487 100.97 77.834 100.544C77.9064 100.181 77.7784 99.7424 77.6126 99.3768C77.5225 99.1781 77.4188 98.9858 77.2903 98.8346C76.9182 98.3978 76.3814 98.4156 76.1065 98.8255C75.7561 99.3487 75.7944 100.909 76.4851 101.218Z" fill="#0E262F"/>
<path fill-rule="evenodd" clip-rule="evenodd" d="M59.0912 102.195C59.0361 101.423 58.5711 100.682 57.8799 100.335C57.3929 100.091 56.7719 100.056 56.3226 100.364C55.8728 100.672 55.6962 101.367 56.038 101.791C56.2108 102.005 56.4932 102.144 56.5742 102.408C56.652 102.662 56.51 102.925 56.4009 103.167C56.1741 103.672 56.1039 104.329 56.4862 104.729C56.7168 104.971 57.0861 105.065 57.4091 104.977C58.3983 104.707 59.1581 103.13 59.0912 102.195Z" fill="#EC9984"/>
<path fill-rule="evenodd" clip-rule="evenodd" d="M57.024 151.387C57.024 151.387 60.1392 149.957 60.9309 149.855C61.722 149.753 62.1308 150.462 61.9261 150.874C61.722 151.285 59.5015 152.613 59.5015 152.613" fill="#F5C6AC"/>
<path fill-rule="evenodd" clip-rule="evenodd" d="M248.349 81.2009C248.349 83.0617 246.84 84.5705 244.979 84.5705C243.118 84.5705 241.61 83.0617 241.61 81.2009C241.61 79.34 243.118 77.8313 244.979 77.8313C246.84 77.8313 248.349 79.34 248.349 81.2009Z" fill="#D25F56"/>
<path fill-rule="evenodd" clip-rule="evenodd" d="M241.986 46.1003C241.986 47.8753 240.547 49.3144 238.772 49.3144C236.997 49.3144 235.558 47.8753 235.558 46.1003C235.558 44.3254 236.997 42.8863 238.772 42.8863C240.547 42.8863 241.986 44.3254 241.986 46.1003Z" fill="#265464"/>
<path fill-rule="evenodd" clip-rule="evenodd" d="M212.591 30.0024C213.567 30.9782 213.567 32.5593 212.591 33.5351C211.616 34.5104 210.035 34.5104 209.059 33.5351C208.084 32.5593 208.084 30.9782 209.059 30.0024C210.035 29.0272 211.616 29.0272 212.591 30.0024Z" fill="#F8C66D"/>
<path fill-rule="evenodd" clip-rule="evenodd" d="M252.612 153.182C253.588 154.158 253.588 155.739 252.612 156.715C251.637 157.69 250.056 157.69 249.08 156.715C248.105 155.739 248.105 154.158 249.08 153.182C250.056 152.207 251.637 152.207 252.612 153.182Z" fill="#F8C66D"/>
<path fill-rule="evenodd" clip-rule="evenodd" d="M188.624 25.5847C188.624 26.8909 187.565 27.9499 186.259 27.9499C184.953 27.9499 183.894 26.8909 183.894 25.5847C183.894 24.2789 184.953 23.22 186.259 23.22C187.565 23.22 188.624 24.2789 188.624 25.5847Z" fill="#F8C66D"/>
<path fill-rule="evenodd" clip-rule="evenodd" d="M23.112 188.332C23.112 189.638 22.0531 190.697 20.7473 190.697C19.4411 190.697 18.3827 189.638 18.3827 188.332C18.3827 187.026 19.4411 185.967 20.7473 185.967C22.0531 185.967 23.112 187.026 23.112 188.332Z" fill="#F8C66D"/>
<path fill-rule="evenodd" clip-rule="evenodd" d="M205.686 47.2457C205.686 47.8786 205.173 48.391 204.54 48.391C203.908 48.391 203.395 47.8786 203.395 47.2457C203.395 46.6133 203.908 46.1003 204.54 46.1003C205.173 46.1003 205.686 46.6133 205.686 47.2457Z" fill="#317A8B"/>
<path fill-rule="evenodd" clip-rule="evenodd" d="M237.923 24.4021C237.923 25.0555 237.394 25.5847 236.74 25.5847C236.087 25.5847 235.558 25.0555 235.558 24.4021C235.558 23.7492 236.087 23.22 236.74 23.22C237.394 23.22 237.923 23.7492 237.923 24.4021Z" fill="#317A8B"/>
<path fill-rule="evenodd" clip-rule="evenodd" d="M259.629 97.3857C259.629 98.0386 259.1 98.5683 258.447 98.5683C257.793 98.5683 257.264 98.0386 257.264 97.3857C257.264 96.7329 257.793 96.2032 258.447 96.2032C259.1 96.2032 259.629 96.7329 259.629 97.3857Z" fill="#317A8B"/>
<path fill-rule="evenodd" clip-rule="evenodd" d="M146.201 34.1599C146.201 35.4807 145.131 36.551 143.811 36.551C142.49 36.551 141.419 35.4807 141.419 34.1599C141.419 32.839 142.49 31.7687 143.811 31.7687C145.131 31.7687 146.201 32.839 146.201 34.1599Z" fill="#CC8053"/>
<path fill-rule="evenodd" clip-rule="evenodd" d="M85.7434 62.1859C85.7434 63.349 84.8 64.2924 83.6363 64.2924C82.4731 64.2924 81.5298 63.349 81.5298 62.1859C81.5298 61.0222 82.4731 60.0788 83.6363 60.0788C84.8 60.0788 85.7434 61.0222 85.7434 62.1859Z" fill="#317A8B"/>
<path fill-rule="evenodd" clip-rule="evenodd" d="M85.7434 41.5573C85.7434 43.1212 84.476 44.3885 82.9122 44.3885C81.3483 44.3885 80.081 43.1212 80.081 41.5573C80.081 39.994 81.3483 38.7261 82.9122 38.7261C84.476 38.7261 85.7434 39.994 85.7434 41.5573Z" fill="#F8C66D"/>
<path fill-rule="evenodd" clip-rule="evenodd" d="M43.956 71.5592C43.956 73.0615 42.7377 74.2797 41.2349 74.2797C39.7326 74.2797 38.5144 73.0615 38.5144 71.5592C38.5144 70.0564 39.7326 68.8387 41.2349 68.8387C42.7377 68.8387 43.956 70.0564 43.956 71.5592Z" fill="#F8C66D"/>
<path fill-rule="evenodd" clip-rule="evenodd" d="M71.2789 63.3247C71.2789 64.2206 70.5526 64.9469 69.6562 64.9469C68.7604 64.9469 68.0341 64.2206 68.0341 63.3247C68.0341 62.4283 68.7604 61.702 69.6562 61.702C70.5526 61.702 71.2789 62.4283 71.2789 63.3247Z" fill="#265464"/>
<path fill-rule="evenodd" clip-rule="evenodd" d="M36.4247 176.344C36.4247 177.24 35.6978 177.967 34.802 177.967C33.9061 177.967 33.1798 177.24 33.1798 176.344C33.1798 175.448 33.9061 174.722 34.802 174.722C35.6978 174.722 36.4247 175.448 36.4247 176.344Z" fill="#265464"/>
<path fill-rule="evenodd" clip-rule="evenodd" d="M45.6883 45.1127C45.6883 46.3428 44.6915 47.3396 43.4613 47.3396C42.2323 47.3396 41.2349 46.3428 41.2349 45.1127C41.2349 43.8836 42.2323 42.8863 43.4613 42.8863C44.6915 42.8863 45.6883 43.8836 45.6883 45.1127Z" fill="#CC8053"/>
<path fill-rule="evenodd" clip-rule="evenodd" d="M22.6466 106.131C22.6466 107.179 21.7961 108.03 20.7474 108.03C19.6987 108.03 18.8477 107.179 18.8477 106.131C18.8477 105.081 19.6987 104.231 20.7474 104.231C21.7961 104.231 22.6466 105.081 22.6466 106.131Z" fill="#D25F56"/>
</svg>
