<svg width="332" height="242" viewBox="0 0 332 242" fill="none" xmlns="http://www.w3.org/2000/svg">
<path d="M79.5 0.5C4.50003 22 -20.2 121.8 19 157C68 201 153.5 162 159.5 123.5C165.5 85 134.83 92.3515 122.5 123.5C113 147.5 125 238.5 200 240.5C260 242.1 283.5 201 298 179.5" stroke="#081269" stroke-dasharray="5 5"/>
<path fill-rule="evenodd" clip-rule="evenodd" d="M291.597 165.205L329.363 152.097C330.819 151.592 332.132 153.161 331.412 154.545L316.108 184.08C315.857 184.569 315.233 184.71 314.801 184.377L309.162 180.03C308.848 179.784 308.407 179.787 308.093 180.033L302.205 185L302.183 175.998C302.19 175.727 302.319 175.468 302.532 175.304L325.087 157.825L299.117 172.446C298.803 172.623 298.415 172.587 298.139 172.359L291.328 166.756C290.79 166.312 290.938 165.433 291.597 165.205Z" fill="#081269"/>
</svg>
