<svg width="252" height="210" viewBox="0 0 252 210" fill="none" xmlns="http://www.w3.org/2000/svg">
<path fill-rule="evenodd" clip-rule="evenodd" d="M77.799 113.195C73.473 119.317 69.785 125.926 63.79 130.858C53.55 139.281 37.986 141.44 29.416 151.625C20.224 162.548 24.27 178.028 34.118 187.183C40.67 193.274 49.486 197.171 58.644 199.507C78.482 204.57 210.824 198.951 217.391 196.052C226.188 192.168 230.133 184.736 229.496 176.33C228.455 162.573 216.734 151.358 203.854 143.745C190.974 136.131 176.323 130.863 164.306 122.222C157.436 117.282 151.578 111.342 145.02 106.081C139.555 101.696 133.466 97.805 126.521 95.454C108.609 89.389 87.374 99.644 77.799 113.195Z" fill="#E9F3FE"/>
<path fill-rule="evenodd" clip-rule="evenodd" d="M102.895 15.126C106.132 23.165 104.775 34.353 97.084 37.449C89.394 40.544 78.281 34.376 75.045 26.337C71.809 18.299 75.42 9.273 83.111 6.176C90.802 3.081 99.659 7.08799 102.895 15.126Z" fill="#FFFFFE"/>
<path fill-rule="evenodd" clip-rule="evenodd" d="M102.895 15.126C106.132 23.165 104.775 34.353 97.084 37.449C89.394 40.544 78.281 34.376 75.045 26.337C71.809 18.299 75.42 9.273 83.111 6.176C90.802 3.081 99.659 7.08799 102.895 15.126Z" stroke="#121311" stroke-width="0.75" stroke-linecap="round" stroke-linejoin="round"/>
<path fill-rule="evenodd" clip-rule="evenodd" d="M159.242 34.737C154.08 43.649 142.609 50.563 134.083 45.625C125.557 40.686 123.205 25.765 128.367 16.853C133.529 7.94202 144.625 4.72102 153.151 9.66002C161.676 14.598 164.404 25.826 159.242 34.737Z" fill="#FFFFFE"/>
<path fill-rule="evenodd" clip-rule="evenodd" d="M159.242 34.737C154.08 43.649 142.609 50.563 134.083 45.625C125.557 40.686 123.205 25.765 128.367 16.853C133.529 7.94202 144.625 4.72102 153.151 9.66002C161.676 14.598 164.404 25.826 159.242 34.737Z" stroke="#121311" stroke-width="0.75" stroke-linecap="round" stroke-linejoin="round"/>
<path fill-rule="evenodd" clip-rule="evenodd" d="M160.208 133.657L121.103 107.21C119.252 105.958 116.825 105.958 114.974 107.21L75.868 133.657V181.263C75.868 183.214 76.668 184.977 77.937 186.246C78.267 186.552 78.595 186.858 78.972 187.116C79.16 187.234 79.348 187.352 79.56 187.469C80.147 187.775 80.805 188.033 81.488 188.174C81.957 188.269 82.427 188.316 82.921 188.316H153.168C153.637 188.316 154.131 188.269 154.578 188.174C155.259 188.033 155.918 187.798 156.506 187.469C156.717 187.352 156.928 187.21 157.117 187.116C157.493 186.834 157.845 186.552 158.151 186.246C159.35 185.047 160.126 183.402 160.196 181.592C160.22 181.474 160.22 181.38 160.22 181.263V133.657H160.208Z" fill="#F0E356"/>
<path fill-rule="evenodd" clip-rule="evenodd" d="M160.208 133.657L121.103 107.21C119.252 105.958 116.825 105.958 114.974 107.21L75.868 133.657V181.263C75.868 183.214 76.668 184.977 77.937 186.246C78.267 186.552 78.595 186.858 78.972 187.116C79.16 187.234 79.348 187.352 79.56 187.469C80.147 187.775 80.805 188.033 81.488 188.174C81.957 188.269 82.427 188.316 82.921 188.316H153.168C153.637 188.316 154.131 188.269 154.578 188.174C155.259 188.033 155.918 187.798 156.506 187.469C156.717 187.352 156.928 187.21 157.117 187.116C157.493 186.834 157.845 186.552 158.151 186.246C159.35 185.047 160.126 183.402 160.196 181.592C160.22 181.474 160.22 181.38 160.22 181.263V133.657H160.208ZM160.22 181.263C160.22 181.38 160.22 181.474 160.196 181.592C160.126 183.402 159.35 185.047 158.151 186.246C157.845 186.552 157.493 186.834 157.117 187.116C156.928 187.21 156.717 187.352 156.506 187.469C155.918 187.798 155.259 188.033 154.578 188.174C154.131 188.269 153.637 188.316 153.168 188.316H82.921C82.427 188.316 81.957 188.269 81.488 188.174C80.805 188.033 80.147 187.775 79.56 187.469C79.348 187.352 79.16 187.234 78.972 187.116C78.595 186.858 78.267 186.552 77.937 186.246C76.668 184.977 75.868 183.214 75.868 181.263L114.635 146.939C116.587 145.222 119.502 145.222 121.43 146.939L135.347 159.258L160.196 181.24L160.22 181.263Z" stroke="#121311" stroke-width="0.75" stroke-linecap="round" stroke-linejoin="round"/>
<path fill-rule="evenodd" clip-rule="evenodd" d="M151.49 163.68H96.649C95.822 163.68 95.152 163.009 95.152 162.183V117.374C95.152 116.548 95.822 115.877 96.649 115.877H151.49C152.317 115.877 152.987 116.548 152.987 117.374V162.183C152.987 163.009 152.317 163.68 151.49 163.68Z" fill="#FFFFFE"/>
<path fill-rule="evenodd" clip-rule="evenodd" d="M151.49 163.68H96.649C95.822 163.68 95.152 163.009 95.152 162.183V117.374C95.152 116.548 95.822 115.877 96.649 115.877H151.49C152.317 115.877 152.987 116.548 152.987 117.374V162.183C152.987 163.009 152.317 163.68 151.49 163.68Z" stroke="#121311" stroke-width="0.75" stroke-linecap="round" stroke-linejoin="round"/>
<path fill-rule="evenodd" clip-rule="evenodd" d="M144.704 183.462H90.694C89.867 183.462 89.197 182.792 89.197 181.965V122.419C89.197 121.592 89.867 120.922 90.694 120.922H144.704C145.53 120.922 146.201 121.592 146.201 122.419V181.965C146.201 182.792 145.53 183.462 144.704 183.462Z" fill="#FFFFFE"/>
<path fill-rule="evenodd" clip-rule="evenodd" d="M144.704 183.462H90.694C89.867 183.462 89.197 182.792 89.197 181.965V122.419C89.197 121.592 89.867 120.922 90.694 120.922H144.704C145.53 120.922 146.201 121.592 146.201 122.419V181.965C146.201 182.792 145.53 183.462 144.704 183.462ZM96.344 130.521H139.053H96.344ZM96.344 138.75H139.053H96.344ZM96.344 146.978H139.053H96.344Z" stroke="#121311" stroke-width="0.75" stroke-linecap="round" stroke-linejoin="round"/>
<path fill-rule="evenodd" clip-rule="evenodd" d="M104.808 40.349C107.697 49.541 103.363 60.678 94.569 63.442C85.775 66.206 75.849 59.55 72.961 50.358C70.072 41.165 74.859 31.472 83.654 28.709C92.448 25.945 101.919 31.157 104.808 40.349Z" fill="#E9F3FE"/>
<path fill-rule="evenodd" clip-rule="evenodd" d="M104.808 40.349C107.697 49.541 103.363 60.678 94.569 63.442C85.775 66.206 75.849 59.55 72.961 50.358C70.072 41.165 74.859 31.472 83.654 28.709C92.448 25.945 101.919 31.157 104.808 40.349Z" stroke="#121311" stroke-width="0.75" stroke-linecap="round" stroke-linejoin="round"/>
<path fill-rule="evenodd" clip-rule="evenodd" d="M95.593 63.057C99.707 58.261 101.235 50.856 99.2131 44.391C96.3451 35.199 86.871 29.98 78.078 32.754C77.514 32.918 76.9731 33.13 76.4561 33.365C78.3371 31.25 80.7821 29.604 83.6501 28.71C92.4431 25.936 101.917 31.155 104.808 40.347C107.582 49.163 103.704 59.79 95.593 63.057Z" fill="#93C6FF"/>
<path fill-rule="evenodd" clip-rule="evenodd" d="M104.808 40.349C107.697 49.541 103.363 60.678 94.569 63.442C85.775 66.206 75.849 59.55 72.961 50.358C70.072 41.165 74.859 31.472 83.654 28.709C92.448 25.945 101.919 31.157 104.808 40.349ZM104.172 155.109H131.225H104.172ZM193.697 209.474L212.626 171.586C213.17 170.497 214.719 170.483 215.282 171.563L235.073 209.474H193.697Z" stroke="#121311" stroke-width="0.75" stroke-linecap="round" stroke-linejoin="round"/>
<path fill-rule="evenodd" clip-rule="evenodd" d="M151.693 209.474L181.52 149.769C182.378 148.053 184.82 148.031 185.708 149.732L216.894 209.474" fill="#FFFFFE"/>
<path d="M31.6281 209.474L46.6161 179.473C46.9461 178.811 47.887 178.803 48.229 179.458L63.8981 209.474M151.693 209.474L181.52 149.769C182.378 148.053 184.82 148.031 185.708 149.732L216.894 209.474H151.693Z" stroke="#121311" stroke-width="0.75" stroke-linecap="round" stroke-linejoin="round"/>
<path fill-rule="evenodd" clip-rule="evenodd" d="M49.282 209.474L72.263 163.475C72.924 162.153 74.804 162.135 75.489 163.446L99.516 209.474" fill="#FFFFFE"/>
<path d="M49.282 209.474L72.263 163.475C72.924 162.153 74.804 162.135 75.489 163.446L99.516 209.474" stroke="#121311" stroke-width="0.75" stroke-linecap="round" stroke-linejoin="round"/>
<path fill-rule="evenodd" clip-rule="evenodd" d="M160.951 53.991C157.434 62.709 147.27 68.42 138.929 65.056C130.588 61.692 127.229 50.528 130.745 41.809C134.261 33.091 143.874 28.75 152.215 32.114C160.555 35.477 164.467 45.272 160.951 53.991Z" fill="#E9F3FE"/>
<path fill-rule="evenodd" clip-rule="evenodd" d="M160.951 53.991C157.434 62.709 147.27 68.42 138.929 65.056C130.588 61.692 127.229 50.528 130.745 41.809C134.261 33.091 143.874 28.75 152.215 32.114C160.555 35.477 164.467 45.272 160.951 53.991Z" stroke="#121311" stroke-width="0.75" stroke-linecap="round" stroke-linejoin="round"/>
<path fill-rule="evenodd" clip-rule="evenodd" d="M160.949 53.983C157.446 62.705 147.266 68.418 138.921 65.056C138.756 64.985 138.568 64.915 138.403 64.821C145.362 64.797 152.415 59.719 155.236 52.761C158.692 44.156 154.93 34.47 146.796 31.014C148.606 31.038 150.44 31.39 152.203 32.119C160.55 35.481 164.475 45.261 160.949 53.983Z" fill="#93C6FF"/>
<path fill-rule="evenodd" clip-rule="evenodd" d="M160.951 53.991C157.434 62.709 147.27 68.42 138.929 65.056C130.588 61.692 127.229 50.528 130.745 41.809C134.261 33.091 143.874 28.75 152.215 32.114C160.555 35.477 164.467 45.272 160.951 53.991Z" stroke="#121311" stroke-width="0.75" stroke-linecap="round" stroke-linejoin="round"/>
<path fill-rule="evenodd" clip-rule="evenodd" d="M133.414 68.237L138.929 65.056L140.694 71.173L133.414 68.237Z" fill="#93C6FF"/>
<path fill-rule="evenodd" clip-rule="evenodd" d="M133.414 68.237L138.929 65.056L140.694 71.173L133.414 68.237ZM118.075 58.754C118.86 73.142 119.219 91.862 119.118 106.271L118.075 58.754ZM136.317 69.807C131.986 80.998 126.138 96.539 119.118 106.271L136.317 69.807ZM97.291 65.797C104.666 77.906 111.743 94.161 119.118 106.271L97.291 65.797ZM48.997 108.125C47.939 108.125 46.999 108.548 46.27 109.253C45.847 106.738 43.801 104.857 41.333 104.857C38.865 104.857 36.796 106.785 36.42 109.324C35.597 108.76 34.61 108.43 33.551 108.43C31.064 108.43 28.975 110.277 28.415 112.761C28.364 112.985 28.55 113.203 28.78 113.203H53.041C53.048 113.197 53.053 113.192 53.061 113.186C53.458 110.49 51.467 108.125 48.997 108.125ZM170.767 91.886C171.826 91.886 172.766 92.309 173.495 93.015C173.918 90.499 175.964 88.618 178.431 88.618C180.9 88.618 182.968 90.546 183.345 93.085C184.168 92.521 185.155 92.192 186.213 92.192C188.701 92.192 190.79 94.038 191.349 96.522C191.4 96.746 191.215 96.965 190.985 96.965H166.724C166.717 96.958 166.712 96.953 166.704 96.947C166.307 94.251 168.298 91.886 170.767 91.886Z" stroke="#121311" stroke-width="0.75" stroke-linecap="round" stroke-linejoin="round"/>
<path fill-rule="evenodd" clip-rule="evenodd" d="M196.398 120.922C196.398 122.414 195.189 123.623 193.697 123.623C192.205 123.623 190.996 122.414 190.996 120.922C190.996 119.43 192.205 118.22 193.697 118.22C195.189 118.22 196.398 119.43 196.398 120.922ZM245.037 167.739C245.037 169.231 243.828 170.44 242.336 170.44C240.843 170.44 239.635 169.231 239.635 167.739C239.635 166.246 240.843 165.037 242.336 165.037C243.828 165.037 245.037 166.246 245.037 167.739ZM78.219 88.618C78.219 90.728 76.509 92.439 74.399 92.439C72.289 92.439 70.579 90.728 70.579 88.618C70.579 86.509 72.289 84.798 74.399 84.798C76.509 84.798 78.219 86.509 78.219 88.618ZM17.914 156.012C17.914 157.504 16.704 158.713 15.212 158.713C13.72 158.713 12.511 157.504 12.511 156.012C12.511 154.52 13.72 153.311 15.212 153.311C16.704 153.311 17.914 154.52 17.914 156.012Z" stroke="#93C6FF"/>
<path d="M111.957 203.107H123.91M211.635 111.323H226.328H211.635ZM233.577 117.199H251.6H233.577ZM224.541 117.199H228.973H224.541ZM20.507 87.304H35.2H20.507ZM11.392 93.182H27.853H11.392ZM0.792969 93.182H6.07497H0.792969ZM103.844 195.956H116.831H103.844ZM125.651 195.956H132.144H125.651ZM119.732 195.956H122.633H119.732ZM126.405 203.107H127.572H126.405Z" stroke="#121311" stroke-width="0.75" stroke-linecap="round" stroke-linejoin="round"/>
<path fill-rule="evenodd" clip-rule="evenodd" d="M128.953 188.316H82.921C82.427 188.316 81.957 188.269 81.488 188.174C80.805 188.033 80.147 187.775 79.56 187.469C79.348 187.352 79.16 187.234 78.972 187.116C78.595 186.858 78.267 186.552 77.937 186.246C76.668 184.977 75.868 183.214 75.868 181.263V133.657L100.718 159.258L118.044 177.077L128.953 188.316Z" fill="#F0E356"/>
<path fill-rule="evenodd" clip-rule="evenodd" d="M128.953 188.316H82.921C82.427 188.316 81.957 188.269 81.488 188.174C80.805 188.033 80.147 187.775 79.56 187.469C79.348 187.352 79.16 187.234 78.972 187.116C78.595 186.858 78.267 186.552 77.937 186.246C76.668 184.977 75.868 183.214 75.868 181.263V133.657L100.718 159.258L118.044 177.077L128.953 188.316Z" stroke="#121311" stroke-width="0.75" stroke-linecap="round" stroke-linejoin="round"/>
<path fill-rule="evenodd" clip-rule="evenodd" d="M160.22 133.657L160.196 181.24V181.592C160.126 183.402 159.35 185.047 158.151 186.246C157.822 186.575 157.493 186.858 157.117 187.116C156.928 187.21 156.717 187.352 156.506 187.469C155.918 187.798 155.259 188.033 154.578 188.174C154.131 188.269 153.637 188.316 153.168 188.316H107.112L118.044 177.077L160.008 133.868L160.22 133.657Z" fill="#F0E356"/>
<path fill-rule="evenodd" clip-rule="evenodd" d="M160.22 133.657L160.196 181.24V181.592C160.126 183.402 159.35 185.047 158.151 186.246C157.822 186.575 157.493 186.858 157.117 187.116C156.928 187.21 156.717 187.352 156.506 187.469C155.918 187.798 155.259 188.033 154.578 188.174C154.131 188.269 153.637 188.316 153.168 188.316H107.112L118.044 177.077L160.008 133.868L160.22 133.657Z" stroke="#121311" stroke-width="0.75" stroke-linecap="round" stroke-linejoin="round"/>
<path fill-rule="evenodd" clip-rule="evenodd" d="M160.22 133.657L160.196 181.24V181.592C160.126 183.402 159.35 185.047 158.151 186.246C157.822 186.575 157.493 186.858 157.117 187.116C156.928 187.21 156.717 187.352 156.506 187.469C155.918 187.798 155.259 188.033 154.578 188.174C154.131 188.269 153.637 188.316 153.168 188.316H107.112L111.955 183.331H146.49C146.961 183.331 147.455 183.284 147.901 183.191C148.583 183.049 149.241 182.814 149.829 182.485C150.041 182.367 150.252 182.227 150.44 182.132C150.816 181.874 151.145 181.592 151.474 181.263C152.674 180.064 153.449 178.418 153.52 176.608V176.255L153.544 140.521L160.008 133.868L160.22 133.657Z" fill="#F6BE5D"/>
<path fill-rule="evenodd" clip-rule="evenodd" d="M160.22 133L160.196 180.583V180.935C160.126 182.745 159.35 184.39 158.151 185.589C157.822 185.918 157.493 186.201 157.117 186.459C156.928 186.553 156.717 186.695 156.506 186.812C155.918 187.141 155.259 187.376 154.578 187.517C154.131 187.612 153.637 187.659 153.168 187.659H107.112L118.044 176.42L160.008 133.211L160.22 133ZM198.901 208.817H249.11H198.901ZM188.517 208.817H193.697H188.517ZM3.73096 208.817H181.073H3.73096Z" stroke="#121311" stroke-width="0.75" stroke-linecap="round" stroke-linejoin="round"/>
<path fill-rule="evenodd" clip-rule="evenodd" d="M94.45 68.611L96.1129 62.982L101.178 65.947L94.45 68.611Z" fill="#93C6FF"/>
<path fill-rule="evenodd" clip-rule="evenodd" d="M94.45 68.611L96.1129 62.982L101.178 65.947L94.45 68.611Z" stroke="#121311" stroke-width="0.75" stroke-linecap="round" stroke-linejoin="round"/>
<path fill-rule="evenodd" clip-rule="evenodd" d="M174.614 185.167C174.614 193.122 168.165 199.573 160.208 199.573C152.252 199.573 145.802 193.122 145.802 185.167C145.802 177.211 152.252 170.761 160.208 170.761C168.165 170.761 174.614 177.211 174.614 185.167Z" fill="#FFFFFE"/>
<path fill-rule="evenodd" clip-rule="evenodd" d="M174.614 185.167C174.614 193.122 168.165 199.573 160.208 199.573C152.252 199.573 145.802 193.122 145.802 185.167C145.802 177.211 152.252 170.761 160.208 170.761C168.165 170.761 174.614 177.211 174.614 185.167Z" stroke="#121311" stroke-width="0.75" stroke-linecap="round" stroke-linejoin="round"/>
<path fill-rule="evenodd" clip-rule="evenodd" d="M139.286 26.084C139.286 40.09 129.621 53.644 117.699 53.644C105.777 53.644 96.1121 40.09 96.1121 26.084C96.1121 12.078 105.777 0.723999 117.699 0.723999C129.621 0.723999 139.286 12.078 139.286 26.084Z" fill="#F0E356"/>
<path fill-rule="evenodd" clip-rule="evenodd" d="M139.286 26.084C139.286 40.09 129.621 53.644 117.699 53.644C105.777 53.644 96.1121 40.09 96.1121 26.084C96.1121 12.078 105.777 0.723999 117.699 0.723999C129.621 0.723999 139.286 12.078 139.286 26.084Z" stroke="#121311" stroke-width="0.75" stroke-linecap="round" stroke-linejoin="round"/>
<path fill-rule="evenodd" clip-rule="evenodd" d="M139.297 26.077C139.297 39.736 130.081 52.996 118.561 53.607C126.273 49.116 131.656 38.89 131.656 28.428C131.656 14.44 121.994 3.08501 110.074 3.08501C109.534 3.08501 108.993 3.10901 108.452 3.15501C111.25 1.60401 114.401 0.734009 117.692 0.734009C129.611 0.734009 139.297 12.089 139.297 26.077Z" fill="#F6BE5D"/>
<path fill-rule="evenodd" clip-rule="evenodd" d="M139.286 26.084C139.286 40.09 129.621 53.644 117.699 53.644C105.777 53.644 96.1121 40.09 96.1121 26.084C96.1121 12.078 105.777 0.723999 117.699 0.723999C129.621 0.723999 139.286 12.078 139.286 26.084Z" stroke="#121311" stroke-width="0.75" stroke-linecap="round" stroke-linejoin="round"/>
<path fill-rule="evenodd" clip-rule="evenodd" d="M113.097 59.962L118.044 53.644L122.991 59.962H113.097Z" fill="#F0E356"/>
<path fill-rule="evenodd" clip-rule="evenodd" d="M113.097 59.962L118.044 53.644L122.991 59.962H113.097Z" stroke="#121311" stroke-width="0.75" stroke-linecap="round" stroke-linejoin="round"/>
<path fill-rule="evenodd" clip-rule="evenodd" d="M78.954 22.942C78.954 22.942 77.338 19.415 80.056 15.595L78.954 22.942Z" fill="#FFFFFE"/>
<path d="M140.078 13.171C140.078 13.171 142.135 10.379 147.131 11.554M78.954 22.942C78.954 22.942 77.338 19.415 80.056 15.595L78.954 22.942ZM104.104 19.312C104.104 19.312 103.999 14.004 108.679 11.636L104.104 19.312ZM111.101 10.2C111.101 10.2 112.138 9.33199 114.421 8.87399L111.101 10.2ZM141.793 37.659C141.793 37.659 144.34 35.211 148.16 36.484L141.793 37.659ZM76.065 48.504C76.065 48.504 73.811 45.104 76.065 41.382V48.504Z" stroke="#121311" stroke-width="0.75" stroke-linecap="round" stroke-linejoin="round"/>
<path fill-rule="evenodd" clip-rule="evenodd" d="M108.709 16.024C108.558 16.597 108.536 17.249 108.864 17.744C109.14 18.16 109.634 18.402 110.131 18.442C110.628 18.481 111.127 18.335 111.569 18.102C112.487 17.618 113.19 16.744 113.466 15.743C113.682 14.959 113.632 14.106 113.34 13.348C113.011 12.494 112.341 12.713 111.576 12.985C110.217 13.469 109.078 14.616 108.709 16.024Z" fill="#FDF9CC"/>
<path fill-rule="evenodd" clip-rule="evenodd" d="M81.349 161.741C81.459 162.5 81.747 163.429 82.507 163.539C82.956 163.606 83.4 163.32 83.649 162.94C83.899 162.56 83.992 162.102 84.07 161.654C84.665 158.194 84.584 154.618 83.83 151.189C83.661 150.42 83.439 149.623 82.894 149.056C82.266 148.404 81.103 148.152 80.756 149.1C80.352 150.202 80.659 152.088 80.675 153.257C80.714 156.095 80.938 158.932 81.349 161.741Z" fill="#FDF9CC"/>
<path fill-rule="evenodd" clip-rule="evenodd" d="M166.522 184.836C164.868 187.306 162.525 189.253 160.208 191.151C157.891 189.253 155.549 187.306 153.894 184.836C153.003 183.499 152.328 181.679 153.207 180.342C154.059 179.019 156.058 178.891 157.433 179.642C158.655 180.291 160.157 182.278 160.157 182.278C160.157 182.278 160.17 182.252 160.208 182.201C160.247 182.252 160.259 182.278 160.259 182.278C160.259 182.278 161.761 180.291 162.983 179.642C164.358 178.891 166.357 179.019 167.21 180.342C168.089 181.679 167.414 183.499 166.522 184.836Z" fill="#FF8878"/>
<path fill-rule="evenodd" clip-rule="evenodd" d="M166.522 184.836C164.868 187.306 162.525 189.253 160.208 191.151C157.891 189.253 155.549 187.306 153.894 184.836C153.003 183.499 152.328 181.679 153.207 180.342C154.059 179.019 156.058 178.891 157.433 179.642C158.655 180.291 160.157 182.278 160.157 182.278C160.157 182.278 160.17 182.252 160.208 182.201C160.247 182.252 160.259 182.278 160.259 182.278C160.259 182.278 161.761 180.291 162.983 179.642C164.358 178.891 166.357 179.019 167.21 180.342C168.089 181.679 167.414 183.499 166.522 184.836Z" stroke="#131111" stroke-width="0.75" stroke-linecap="round" stroke-linejoin="round"/>
</svg>
