<svg width="40" height="40" viewBox="0 0 40 40" fill="none" xmlns="http://www.w3.org/2000/svg">
<g clip-path="url(#clip0)">
<path d="M20.0008 39.9996C31.0464 39.9996 40.0006 31.0454 40.0006 19.9998C40.0006 8.95423 31.0464 0 20.0008 0C8.9552 0 0.000976562 8.95423 0.000976562 19.9998C0.000976562 31.0454 8.9552 39.9996 20.0008 39.9996Z" fill="#222435"/>
<path d="M32.2507 14.3734C31.3937 14.7534 30.4717 15.0105 29.5049 15.1253C30.4921 14.5338 31.2496 13.5979 31.6072 12.481C30.6835 13.0289 29.6599 13.4265 28.5715 13.6407C27.6995 12.712 26.457 12.1316 25.0812 12.1316C22.4416 12.1316 20.3007 14.2725 20.3007 16.9121C20.3007 17.2868 20.3431 17.6515 20.4251 18.0016C16.4521 17.8023 12.9294 15.8992 10.5714 13.0061C10.16 13.712 9.92394 14.5338 9.92394 15.4098C9.92394 17.0679 10.7685 18.5318 12.0506 19.3888C11.2673 19.3642 10.5297 19.1492 9.88544 18.7902C9.88508 18.8106 9.88508 18.8309 9.88508 18.8508C9.88508 21.1671 11.5336 23.0991 13.7201 23.538C13.3194 23.6478 12.8962 23.7059 12.4609 23.7059C12.1522 23.7059 11.853 23.6763 11.5614 23.6207C12.1696 25.5195 13.9347 26.9017 16.0271 26.9405C14.3907 28.2229 12.3297 28.9869 10.0894 28.9869C9.70433 28.9869 9.32286 28.9645 8.94958 28.9199C11.0641 30.2768 13.5775 31.0679 16.2771 31.0679C25.0702 31.0679 29.8788 23.7836 29.8788 17.4658C29.8788 17.2586 29.8742 17.0522 29.8649 16.8476C30.7997 16.1738 31.6101 15.332 32.2507 14.3734Z" fill="white"/>
</g>
<defs>
<clipPath id="clip0">
<rect width="40" height="40" fill="white"/>
</clipPath>
</defs>
</svg>
