<svg width="40" height="40" viewBox="0 0 40 40" fill="none" xmlns="http://www.w3.org/2000/svg">
<path d="M20 40C31.0457 40 40 31.0457 40 20C40 8.9543 31.0457 0 20 0C8.9543 0 0 8.9543 0 20C0 31.0457 8.9543 40 20 40Z" fill="#222435"/>
<path d="M26.6914 11.901H13.3088C10.6831 11.901 8.55469 14.0295 8.55469 16.6551V23.3451C8.55469 25.9707 10.6832 28.0991 13.3088 28.0991H26.6914C29.317 28.0991 31.4455 25.9706 31.4455 23.3451V16.6551C31.4455 14.0295 29.317 11.901 26.6914 11.901ZM23.4762 20.3255L17.2168 23.3109C17.0499 23.3905 16.8572 23.269 16.8572 23.0842V16.9269C16.8572 16.7394 17.055 16.6179 17.222 16.7026L23.4814 19.8746C23.6678 19.9689 23.6645 20.2359 23.4762 20.3255Z" fill="white"/>
</svg>
