<svg width="249" height="219" viewBox="0 0 249 219" fill="none" xmlns="http://www.w3.org/2000/svg">
<path d="M196.901 218H247.11M186.517 218H191.697M1.73096 218H179.073" stroke="#121311" stroke-width="0.75" stroke-linecap="round" stroke-linejoin="round"/>
<path fill-rule="evenodd" clip-rule="evenodd" d="M105.534 6.50921C105.523 6.19284 105.506 5.87708 105.482 5.56133C105.379 4.22267 105.231 2.68956 104.346 1.61913C103.589 0.702512 102.417 0.495554 101.304 0.369253C99.8947 0.21044 98.4785 0.114151 97.0617 0.0597543C94.1912 -0.0502898 91.3188 0.0134857 88.4482 0.0772613C86.9733 0.1104 85.4977 0.142913 84.0277 0.26046C82.222 0.404267 80.3644 0.668123 79.5234 2.4726C78.7687 4.09199 78.8625 6.14844 78.8525 7.89102C78.8444 9.45352 78.8394 11.0166 78.9019 12.5773C78.9832 14.6037 79.1032 17.2429 81.2904 18.132C82.4577 18.6059 83.8676 18.7122 85.1144 18.7929C86.4368 18.8792 87.7617 18.8685 89.0854 18.8885C91.8615 18.9292 94.6376 18.8348 97.4131 18.7791C99.3407 18.741 101.319 18.7197 103.164 18.0901C104.756 17.5468 105.172 15.8211 105.387 14.3242C105.601 12.8367 105.546 11.3274 105.544 9.82992C105.543 8.72385 105.572 7.61528 105.534 6.50921Z" fill="#DD424B"/>
<path fill-rule="evenodd" clip-rule="evenodd" d="M96.409 9.41975C94.0775 8.04983 91.7972 6.71054 89.4944 5.35812C89.4944 8.08734 89.4944 10.7703 89.4944 13.4826C91.8047 12.1252 94.0862 10.7847 96.409 9.41975Z" fill="white"/>
<path fill-rule="evenodd" clip-rule="evenodd" d="M128.371 5.29129C129.151 5.29129 129.887 5.29129 130.654 5.29129C130.654 9.39731 130.654 13.4889 130.654 17.5993C129.925 17.5993 129.191 17.5993 128.416 17.5993C128.416 17.1804 128.416 16.7678 128.416 16.3063C128.203 16.5133 128.04 16.6777 127.871 16.8372C127.34 17.3399 126.779 17.7825 125.993 17.7876C125.283 17.7925 124.738 17.4574 124.541 16.7728C124.402 16.2882 124.316 15.7711 124.311 15.2678C124.276 12.0015 124.27 8.73517 124.256 5.46949C124.256 5.42384 124.264 5.37883 124.269 5.31067C125.005 5.31067 125.739 5.31067 126.51 5.31067C126.515 5.40821 126.524 5.51263 126.524 5.61767C126.538 8.7558 126.552 11.8946 126.565 15.0327C126.565 15.124 126.56 15.2165 126.571 15.3059C126.619 15.6886 126.896 15.9005 127.248 15.748C127.529 15.6267 127.775 15.406 128.01 15.199C128.319 14.9276 128.417 14.5825 128.412 14.1548C128.382 11.3356 128.382 8.51696 128.371 5.6977C128.371 5.57203 128.371 5.44573 128.371 5.29129Z" fill="#2D4866"/>
<path fill-rule="evenodd" clip-rule="evenodd" d="M116.48 1.15961C116.07 2.52016 115.674 3.83694 115.278 5.15371C114.718 7.01258 114.155 8.87145 113.599 10.7322C113.558 10.8691 113.54 11.0179 113.541 11.1611C113.55 13.1957 113.563 15.2302 113.576 17.2642C113.576 17.3636 113.576 17.463 113.576 17.5887C112.783 17.5887 112.006 17.5887 111.196 17.5887C111.196 17.4843 111.196 17.3867 111.196 17.2892C111.186 15.2459 111.18 13.2019 111.159 11.1586C111.156 10.9191 111.084 10.674 111.011 10.4421C110.071 7.45088 109.125 4.46156 108.181 1.47161C108.154 1.38658 108.13 1.30155 108.092 1.17462C108.903 1.17462 109.676 1.16899 110.449 1.18462C110.518 1.1865 110.62 1.32218 110.645 1.41221C111.014 2.739 111.371 4.06828 111.731 5.39694C111.921 6.09597 112.112 6.795 112.358 7.49778C112.479 7.03634 112.601 6.57616 112.719 6.1141C113.117 4.54972 113.516 2.9866 113.905 1.42034C113.952 1.22777 114.019 1.15086 114.227 1.15389C114.965 1.16712 115.702 1.15961 116.48 1.15961Z" fill="#2D4866"/>
<path fill-rule="evenodd" clip-rule="evenodd" d="M120.333 11.5538C120.322 11.5538 120.311 11.5538 120.3 11.5538C120.3 10.5959 120.307 9.63861 120.295 8.68135C120.292 8.42875 120.259 8.16927 120.187 7.92793C120.06 7.49713 119.721 7.27642 119.279 7.28454C118.844 7.2933 118.52 7.53652 118.409 7.97607C118.351 8.20366 118.317 8.44313 118.318 8.6776C118.321 10.5652 118.332 12.4529 118.353 14.3405C118.356 14.61 118.395 14.8882 118.47 15.1464C118.595 15.5772 118.935 15.8011 119.373 15.7986C119.784 15.7955 120.114 15.5579 120.231 15.1258C120.299 14.8745 120.325 14.6056 120.329 14.3436C120.339 13.4139 120.333 12.4835 120.333 11.5538ZM116.101 11.4331C116.101 10.494 116.075 9.5542 116.112 8.61695C116.131 8.15802 116.22 7.68846 116.361 7.25141C116.715 6.15972 117.451 5.44568 118.613 5.27186C119.913 5.07741 121.073 5.33439 121.879 6.48235C122.287 7.06446 122.448 7.7441 122.504 8.44063C122.551 9.03962 122.557 9.64236 122.561 10.2439C122.571 11.5563 122.584 12.8699 122.561 14.1823C122.553 14.6425 122.491 15.1133 122.374 15.5591C122.022 16.9103 120.821 17.8088 119.406 17.8244C117.983 17.8413 116.706 16.9459 116.348 15.5922C116.187 14.9833 116.142 14.3361 116.109 13.7027C116.069 12.9481 116.1 12.1896 116.1 11.4331C116.1 11.4331 116.101 11.4331 116.101 11.4331Z" fill="#2D4866"/>
<path fill-rule="evenodd" clip-rule="evenodd" d="M148.575 11.4456C148.57 11.4456 148.563 11.4456 148.557 11.4462C148.557 12.5485 148.582 13.6527 148.545 14.7544C148.529 15.1921 148.719 15.4116 149.064 15.5741C149.171 15.6241 149.281 15.6704 149.395 15.7029C149.927 15.8542 150.324 15.6498 150.473 15.1196C150.546 14.8595 150.589 14.5818 150.591 14.3117C150.604 12.3697 150.606 10.4283 150.601 8.4869C150.6 8.23493 150.552 7.97733 150.482 7.73473C150.378 7.37333 150.151 7.22577 149.772 7.20952C149.406 7.19389 149.104 7.3527 148.811 7.5484C148.634 7.6672 148.57 7.81351 148.572 8.02735C148.581 9.16718 148.575 10.3064 148.575 11.4456ZM148.575 6.33104C149.041 5.99278 149.454 5.60513 149.939 5.35565C151.158 4.72915 152.386 5.28937 152.696 6.62241C152.86 7.32706 152.954 8.06174 152.968 8.78515C153.002 10.5996 152.99 12.416 152.958 14.2305C152.947 14.9013 152.895 15.586 152.742 16.2369C152.407 17.675 151.045 18.2377 149.767 17.4849C149.334 17.2304 148.964 16.869 148.555 16.5489C148.555 16.7533 148.559 16.9859 148.555 17.2185C148.547 17.6975 148.607 17.6474 148.136 17.6506C147.653 17.6537 147.169 17.6537 146.685 17.6525C146.323 17.6506 146.321 17.6493 146.322 17.2954C146.325 14.4036 146.329 11.5119 146.332 8.62008C146.335 6.22975 146.343 3.84004 146.335 1.44971C146.335 1.18148 146.418 1.10957 146.676 1.11833C147.222 1.13521 147.771 1.13271 148.317 1.1152C148.544 1.10832 148.593 1.19086 148.591 1.39782C148.58 2.91217 148.58 4.42653 148.576 5.94088C148.575 6.08344 148.575 6.226 148.575 6.33104Z" fill="#2D4866"/>
<path fill-rule="evenodd" clip-rule="evenodd" d="M142.167 16.3838C141.871 16.6614 141.622 16.9096 141.357 17.1409C140.93 17.5136 140.452 17.79 139.869 17.8231C138.937 17.8769 138.304 17.3548 138.136 16.3669C138.066 15.9461 138.024 15.5159 138.023 15.0889C138.014 11.9514 138.021 8.81324 138.013 5.67573C138.013 5.42125 138.069 5.32184 138.342 5.33059C138.916 5.34935 139.491 5.34622 140.066 5.32809C140.321 5.31996 140.388 5.40437 140.387 5.65385C140.38 8.69131 140.382 11.7288 140.383 14.7662C140.383 14.9307 140.379 15.0951 140.389 15.2583C140.412 15.6491 140.631 15.8142 141.012 15.7354C141.522 15.6291 142.167 14.8463 142.167 14.3304C142.169 11.4487 142.171 8.56626 142.173 5.68386C142.174 5.32934 142.175 5.32809 142.531 5.32684C143.105 5.32496 143.68 5.33184 144.254 5.31996C144.459 5.31558 144.546 5.36498 144.545 5.59007C144.536 9.52164 144.534 13.4532 144.534 17.3842C144.534 17.5774 144.485 17.6624 144.274 17.658C143.653 17.6468 143.033 17.648 142.412 17.6574C142.217 17.6605 142.159 17.588 142.164 17.4029C142.175 17.0784 142.167 16.7533 142.167 16.3838Z" fill="#2D4866"/>
<path fill-rule="evenodd" clip-rule="evenodd" d="M158.852 9.97998C158.82 9.25906 158.822 8.56879 158.748 7.88726C158.694 7.38644 158.387 7.19574 157.832 7.19511C157.239 7.19448 156.926 7.38581 156.87 7.90102C156.801 8.53127 156.806 9.17028 156.792 9.80616C156.791 9.86243 156.888 9.97122 156.941 9.97185C157.558 9.98373 158.174 9.97998 158.852 9.97998ZM158.809 13.3001C159.58 13.3001 160.298 13.2963 161.017 13.3057C161.073 13.3063 161.175 13.3926 161.174 13.4376C161.163 14.3473 161.224 15.2715 160.77 16.1118C160.198 17.1704 159.303 17.7281 158.102 17.7881C156.567 17.865 155.425 17.2254 154.815 15.9486C154.532 15.354 154.408 14.7162 154.407 14.0654C154.406 12.2509 154.396 10.4352 154.457 8.62193C154.492 7.52587 154.864 6.5411 155.76 5.80893C157.284 4.56218 160.416 4.84729 161.034 7.6778C161.139 8.15487 161.182 8.65194 161.197 9.14151C161.222 9.92495 161.201 10.7103 161.198 11.4943C161.196 11.857 161.195 11.8576 160.844 11.8582C159.613 11.8607 158.381 11.8626 157.15 11.8645C157.041 11.8651 156.933 11.8645 156.827 11.8645C156.807 11.9007 156.783 11.9233 156.784 11.9464C156.789 12.8574 156.791 13.7684 156.81 14.6794C156.814 14.8469 156.873 15.0214 156.939 15.1789C157.107 15.5816 157.423 15.7623 157.876 15.7404C158.285 15.7204 158.604 15.5122 158.703 15.1064C158.785 14.775 158.786 14.4224 158.806 14.0785C158.821 13.8346 158.809 13.5895 158.809 13.3001Z" fill="#2D4866"/>
<path fill-rule="evenodd" clip-rule="evenodd" d="M133.24 3.54488C132.659 3.54488 132.096 3.54988 131.533 3.543C131.264 3.53925 130.908 3.60865 130.753 3.46797C130.616 3.34292 130.699 2.97152 130.695 2.70954C130.69 2.28938 130.705 1.86921 130.688 1.45029C130.678 1.22458 130.765 1.17518 130.972 1.17456C132.842 1.17393 134.712 1.16455 136.582 1.1583C137.111 1.1558 137.64 1.16518 138.169 1.14829C138.385 1.14079 138.431 1.22332 138.428 1.41715C138.42 2.02802 138.417 2.63952 138.43 3.25039C138.434 3.46547 138.363 3.53613 138.149 3.533C137.502 3.52425 136.853 3.53237 136.206 3.53425C136.062 3.53425 135.918 3.53425 135.742 3.53425C135.742 3.73683 135.742 3.90815 135.742 4.07884C135.745 8.46623 135.748 12.8542 135.752 17.2422C135.752 17.6549 135.751 17.6555 135.34 17.6562C134.774 17.6568 134.208 17.6568 133.643 17.6555C133.279 17.6555 133.274 17.6549 133.273 17.276C133.269 14.8219 133.266 12.3684 133.262 9.9143C133.259 7.8985 133.257 5.88207 133.254 3.86626C133.254 3.76809 133.246 3.67055 133.24 3.54488Z" fill="#2D4866"/>
<path fill-rule="evenodd" clip-rule="evenodd" d="M44.7935 149.208C44.7935 158.81 37.0092 166.594 27.4078 166.594C17.8058 166.594 10.0221 158.81 10.0221 149.208C10.0221 139.606 17.8058 131.822 27.4078 131.822C37.0092 131.822 44.7935 139.606 44.7935 149.208Z" fill="#E9F3FE"/>
<path fill-rule="evenodd" clip-rule="evenodd" d="M25.0257 152.757C25.0257 150.37 25.0257 148.009 25.0257 145.607C27.0527 146.798 29.0598 147.976 31.1119 149.182C29.0673 150.383 27.059 151.563 25.0257 152.757ZM39.1426 146.62C39.1326 146.342 39.1182 146.063 39.0969 145.786C39.0069 144.608 38.8756 143.259 38.0972 142.316C37.4313 141.51 36.399 141.327 35.4198 141.217C34.1793 141.076 32.9332 140.991 31.6858 140.944C29.1598 140.848 26.6313 140.903 24.1053 140.96C22.8073 140.988 21.5086 141.017 20.2144 141.12C18.6256 141.247 16.9906 141.48 16.2509 143.067C15.5863 144.493 15.6688 146.303 15.66 147.836C15.6525 149.212 15.6482 150.587 15.7032 151.961C15.7745 153.745 15.8808 156.067 17.8053 156.849C18.8332 157.267 20.0737 157.36 21.1716 157.431C22.3352 157.507 23.5013 157.497 24.6661 157.516C27.1096 157.551 29.5525 157.468 31.9953 157.419C33.6916 157.385 35.433 157.367 37.0567 156.813C38.4579 156.334 38.8237 154.815 39.0131 153.498C39.202 152.189 39.1538 150.861 39.1513 149.543C39.1501 148.569 39.1757 147.594 39.1426 146.62Z" fill="#DD424B"/>
<path fill-rule="evenodd" clip-rule="evenodd" d="M212.102 51.64H187.061C185.524 51.64 184.279 52.8855 184.279 54.4224V70.7189C184.279 72.2558 185.524 73.5013 187.061 73.5013H195.912L199.582 78.2657L203.251 73.5013H212.102C213.639 73.5013 214.884 72.2558 214.884 70.7189V54.4224C214.884 52.8855 213.639 51.64 212.102 51.64Z" fill="#E9F3FE"/>
<path fill-rule="evenodd" clip-rule="evenodd" d="M188.899 56.4594H209.667V55.7642H188.899V56.4594Z" fill="#3F3A4C"/>
<path fill-rule="evenodd" clip-rule="evenodd" d="M188.899 58.3471H209.667V57.6519H188.899V58.3471Z" fill="#3F3A4C"/>
<path fill-rule="evenodd" clip-rule="evenodd" d="M188.899 60.2354H209.667V59.5401H188.899V60.2354Z" fill="#3F3A4C"/>
<path fill-rule="evenodd" clip-rule="evenodd" d="M188.899 62.1236H193.023V61.4277H188.899V62.1236Z" fill="#3F3A4C"/>
<path fill-rule="evenodd" clip-rule="evenodd" d="M194.464 62.1236H209.667V61.4277H194.464V62.1236Z" fill="#3F3A4C"/>
<path fill-rule="evenodd" clip-rule="evenodd" d="M188.899 64.0113H209.667V63.316H188.899V64.0113Z" fill="#3F3A4C"/>
<path fill-rule="evenodd" clip-rule="evenodd" d="M188.899 65.8995H201.818V65.2036H188.899V65.8995Z" fill="#3F3A4C"/>
<path fill-rule="evenodd" clip-rule="evenodd" d="M203.358 65.8995H209.667V65.2036H203.358V65.8995Z" fill="#3F3A4C"/>
<path fill-rule="evenodd" clip-rule="evenodd" d="M188.899 67.7878H209.667V67.0919H188.899V67.7878Z" fill="#3F3A4C"/>
<path fill-rule="evenodd" clip-rule="evenodd" d="M188.899 69.6754H200.028V68.9801H188.899V69.6754Z" fill="#3F3A4C"/>
<path fill-rule="evenodd" clip-rule="evenodd" d="M220.515 143.331C213.636 143.331 208.04 148.926 208.04 155.805C208.04 162.683 213.636 168.279 220.515 168.279C227.392 168.279 232.988 162.683 232.988 155.805C232.988 148.926 227.392 143.331 220.515 143.331ZM220.515 169.807C212.793 169.807 206.513 163.525 206.513 155.805C206.513 148.084 212.793 141.803 220.515 141.803C228.235 141.803 234.516 148.084 234.516 155.805C234.516 163.525 228.235 169.807 220.515 169.807Z" fill="#E9F3FE"/>
<path fill-rule="evenodd" clip-rule="evenodd" d="M227.573 156.568H220.515C220.092 156.568 219.75 156.226 219.75 155.805V145.112C219.75 144.69 220.092 144.348 220.515 144.348C220.936 144.348 221.278 144.69 221.278 145.112V155.041H227.573C227.994 155.041 228.337 155.383 228.337 155.805C228.337 156.226 227.994 156.568 227.573 156.568Z" fill="#3F3A4C"/>
<path fill-rule="evenodd" clip-rule="evenodd" d="M14.464 187.898C14.3158 187.898 14.1764 187.84 14.0719 187.735C13.9663 187.63 13.9094 187.49 13.9094 187.343V184.135H10.7012C10.553 184.135 10.4136 184.076 10.3086 183.972C10.2035 183.867 10.146 183.728 10.146 183.579C10.146 183.273 10.3948 183.024 10.7012 183.024L13.9094 183.025V179.816C13.9094 179.511 14.1582 179.261 14.464 179.261C14.7703 179.261 15.0192 179.511 15.0192 179.816V183.025H18.228C18.5337 183.025 18.7826 183.273 18.7826 183.579C18.7826 183.886 18.5337 184.135 18.228 184.135H15.0192V187.343C15.0192 187.648 14.771 187.898 14.464 187.898Z" fill="#4782A9"/>
<path fill-rule="evenodd" clip-rule="evenodd" d="M242.669 115.382C242.52 115.382 242.381 115.324 242.276 115.219C242.171 115.114 242.114 114.975 242.114 114.827V111.62H238.906C238.757 111.62 238.618 111.562 238.513 111.456C238.408 111.352 238.35 111.212 238.35 111.064C238.35 110.757 238.6 110.509 238.906 110.509H242.114V107.3C242.114 106.994 242.362 106.746 242.669 106.746C242.975 106.746 243.224 106.994 243.224 107.3V110.509H246.432C246.738 110.509 246.987 110.758 246.988 111.064C246.988 111.37 246.739 111.62 246.432 111.62H243.224V114.827C243.224 115.134 242.975 115.382 242.669 115.382Z" fill="#4782A9"/>
<path fill-rule="evenodd" clip-rule="evenodd" d="M36.1788 45.5757C36.0306 45.5757 35.8912 45.5182 35.7862 45.4125C35.6817 45.3075 35.6242 45.168 35.6242 45.0199V41.8129H32.4161C32.2673 41.8129 32.1284 41.7548 32.0234 41.6498C31.9184 41.5453 31.8608 41.4053 31.8608 41.2571C31.8608 40.9507 32.1097 40.7019 32.4161 40.7019L35.6242 40.7025V37.4943C35.6242 37.188 35.8731 36.9391 36.1788 36.9391C36.4852 36.9391 36.734 37.188 36.734 37.4937V40.7025H39.9428C40.248 40.7025 40.4968 40.9514 40.4981 41.2571C40.4981 41.5635 40.2492 41.8129 39.9428 41.8129H36.734V45.0199C36.734 45.3262 36.4858 45.5757 36.1788 45.5757Z" fill="#4782A9"/>
<path fill-rule="evenodd" clip-rule="evenodd" d="M0 126.991C0 125.606 1.12295 124.482 2.50913 124.482C3.89406 124.482 5.01701 125.606 5.01701 126.991C5.01701 128.376 3.89406 129.499 2.50913 129.499C1.12295 129.499 0 128.376 0 126.991Z" fill="#4782A9"/>
<path fill-rule="evenodd" clip-rule="evenodd" d="M29.5787 119.743C29.5787 118.686 30.4347 117.83 31.4914 117.83C32.5474 117.83 33.4034 118.686 33.4034 119.743C33.4034 120.799 32.5474 121.656 31.4914 121.656C30.4347 121.656 29.5787 120.799 29.5787 119.743ZM218.602 129.364C218.602 128.308 219.458 127.452 220.515 127.452C221.571 127.452 222.427 128.308 222.427 129.364C222.427 130.42 221.571 131.277 220.515 131.277C219.458 131.277 218.602 130.42 218.602 129.364ZM108.609 196.227C108.609 195.171 109.465 194.314 110.522 194.314C111.578 194.314 112.434 195.171 112.434 196.227C112.434 197.283 111.578 198.14 110.522 198.14C109.465 198.14 108.609 197.283 108.609 196.227ZM177.003 36.9391C177.003 35.8831 177.859 35.0258 178.916 35.0258C179.972 35.0258 180.828 35.8831 180.828 36.9391C180.828 37.9945 179.972 38.8518 178.916 38.8518C177.859 38.8518 177.003 37.9945 177.003 36.9391Z" stroke="#3F3A4C" stroke-width="1.916"/>
<path fill-rule="evenodd" clip-rule="evenodd" d="M170.369 70.4057C170.369 69.0201 171.491 67.8965 172.878 67.8965C174.262 67.8965 175.385 69.0201 175.385 70.4057C175.385 71.7906 174.262 72.9142 172.878 72.9142C171.491 72.9142 170.369 71.7906 170.369 70.4057Z" fill="#4782A9"/>
<path fill-rule="evenodd" clip-rule="evenodd" d="M207.159 177.022C207.159 175.637 208.282 174.513 209.668 174.513C211.053 174.513 212.175 175.637 212.175 177.022C212.175 178.407 211.053 179.531 209.668 179.531C208.282 179.531 207.159 178.407 207.159 177.022Z" fill="#4782A9"/>
<path fill-rule="evenodd" clip-rule="evenodd" d="M248.364 75.2257C248.364 80.7561 243.881 85.2397 238.35 85.2397C232.82 85.2397 228.337 80.7561 228.337 75.2257C228.337 69.6948 232.82 65.2117 238.35 65.2117C243.881 65.2117 248.364 69.6948 248.364 75.2257Z" fill="#DD424B"/>
<path fill-rule="evenodd" clip-rule="evenodd" d="M235.696 69.9118V80.5398L243.716 75.2258L235.696 69.9118Z" fill="white"/>
<path fill-rule="evenodd" clip-rule="evenodd" d="M14.4645 105.804H70.5463V62.5445H14.4645V105.804Z" fill="#E9F3FE"/>
<path fill-rule="evenodd" clip-rule="evenodd" d="M20.3163 101.376H32.9689V92.7766H20.3163V101.376Z" fill="#2D4866"/>
<path fill-rule="evenodd" clip-rule="evenodd" d="M36.1794 101.376H48.8314V92.7766H36.1794V101.376Z" fill="#2D4866"/>
<path fill-rule="evenodd" clip-rule="evenodd" d="M25.5409 89.9736H59.4701V66.9112H25.5409V89.9736Z" fill="#C8D2D3"/>
<path fill-rule="evenodd" clip-rule="evenodd" d="M52.0415 101.376H64.6947V92.7766H52.0415V101.376Z" fill="#2D4866"/>
<path fill-rule="evenodd" clip-rule="evenodd" d="M22.5984 82.251C22.4684 82.251 22.339 82.1979 22.2464 82.0928L19.2865 78.7546C19.1283 78.577 19.1283 78.3088 19.2865 78.1306L22.2464 74.793C22.4184 74.5973 22.716 74.5804 22.9098 74.753C23.1049 74.9256 23.1224 75.2226 22.9505 75.4164L20.2675 78.4426L22.9505 81.4688C23.1224 81.6633 23.1049 81.9603 22.9098 82.1328C22.8204 82.2123 22.7091 82.251 22.5984 82.251Z" fill="#2D4866"/>
<path fill-rule="evenodd" clip-rule="evenodd" d="M62.4125 82.251C62.5419 82.251 62.6714 82.1979 62.7639 82.0928L65.7238 78.7546C65.882 78.577 65.882 78.3088 65.7238 78.1306L62.7639 74.793C62.592 74.5973 62.295 74.5804 62.1005 74.753C61.9061 74.9256 61.8886 75.2226 62.0605 75.4164L64.7434 78.4426L62.0605 81.4688C61.8886 81.6633 61.9061 81.9603 62.1005 82.1328C62.1899 82.2123 62.3018 82.251 62.4125 82.251Z" fill="#2D4866"/>
<path fill-rule="evenodd" clip-rule="evenodd" d="M46.4005 78.4426C46.4005 75.7672 48.5695 73.5982 51.245 73.5982C53.921 73.5982 56.09 75.7672 56.09 78.4426C56.09 81.1181 53.921 83.2877 51.245 83.2877C48.5695 83.2877 46.4005 81.1181 46.4005 78.4426Z" fill="#F6BD62"/>
<path fill-rule="evenodd" clip-rule="evenodd" d="M52.0415 81.6464C52.0415 82.6531 51.2256 83.469 50.2189 83.469H39.4021C38.396 83.469 37.5795 82.6531 37.5795 81.6464C37.5795 80.6404 38.396 79.8238 39.4021 79.8238H50.2189C51.2256 79.8238 52.0415 80.6404 52.0415 81.6464Z" fill="#FFFFFE"/>
<path fill-rule="evenodd" clip-rule="evenodd" d="M44.0727 77.6693C44.0727 78.1126 43.7132 78.4721 43.2699 78.4721H34.0593C33.6154 78.4721 33.2559 78.1126 33.2559 77.6693C33.2559 77.2253 33.6154 76.8658 34.0593 76.8658H43.2699C43.7132 76.8658 44.0727 77.2253 44.0727 77.6693Z" fill="#FFFFFE"/>
<path fill-rule="evenodd" clip-rule="evenodd" d="M44.8104 72.6279C44.8104 73.1643 44.3758 73.5983 43.8406 73.5983H37.6675C37.1323 73.5983 36.6971 73.1643 36.6971 72.6279C36.6971 72.0927 37.1323 71.6581 37.6675 71.6581H43.8406C44.3758 71.6581 44.8104 72.0927 44.8104 72.6279Z" fill="#FFFFFE"/>
<path fill-rule="evenodd" clip-rule="evenodd" d="M73.1412 35.266H135.642C147.745 35.266 157.648 42.3476 157.648 51.0048V169.68C157.648 178.337 147.745 185.42 135.642 185.42H73.1412C61.0376 185.42 51.1349 178.337 51.1349 169.68V51.0048C51.1349 42.3476 61.0376 35.266 73.1412 35.266Z" fill="#2D4866"/>
<path fill-rule="evenodd" clip-rule="evenodd" d="M57.9689 47.8567H150.814C150.994 47.8567 151.142 47.9561 151.142 48.078V171.348C151.142 171.469 150.994 171.569 150.814 171.569H57.9689C57.7888 171.569 57.6406 171.469 57.6406 171.348V48.078C57.6406 47.9561 57.7888 47.8567 57.9689 47.8567Z" fill="#FFFFFE"/>
<path fill-rule="evenodd" clip-rule="evenodd" d="M92.8428 38.98H115.94C116.567 38.98 117.079 39.4921 117.079 40.1186V40.1192C117.079 40.7451 116.567 41.2571 115.94 41.2571H92.8428C92.2163 41.2571 91.7042 40.7451 91.7042 40.1192V40.1186C91.7042 39.4921 92.2163 38.98 92.8428 38.98Z" fill="#4782A9"/>
<path fill-rule="evenodd" clip-rule="evenodd" d="M104.391 174.433C106.516 174.433 108.24 176.154 108.24 178.28C108.24 180.406 106.516 182.127 104.391 182.127C102.265 182.127 100.543 180.406 100.543 178.28C100.543 176.154 102.265 174.433 104.391 174.433Z" fill="#4782A9"/>
<path fill-rule="evenodd" clip-rule="evenodd" d="M65.0073 100.748H97.4234V76.3036H65.0073V100.748Z" fill="#C8D2D3"/>
<path fill-rule="evenodd" clip-rule="evenodd" d="M128.889 82.4367H102.739C102.015 82.4367 101.429 81.8496 101.429 81.1262C101.429 80.4022 102.015 79.8151 102.739 79.8151H128.889C129.613 79.8151 130.2 80.4022 130.2 81.1262C130.2 81.8496 129.613 82.4367 128.889 82.4367Z" fill="#C8D2D3"/>
<path fill-rule="evenodd" clip-rule="evenodd" d="M128.889 88.2829H102.739C102.015 88.2829 101.429 87.6964 101.429 86.9723C101.429 86.2483 102.015 85.6618 102.739 85.6618H128.889C129.613 85.6618 130.2 86.2483 130.2 86.9723C130.2 87.6964 129.613 88.2829 128.889 88.2829Z" fill="#C8D2D3"/>
<path fill-rule="evenodd" clip-rule="evenodd" d="M113.056 94.129H102.739C102.015 94.129 101.429 93.5425 101.429 92.8185C101.429 92.0944 102.015 91.5079 102.739 91.5079H113.056C113.78 91.5079 114.367 92.0944 114.367 92.8185C114.367 93.5425 113.78 94.129 113.056 94.129Z" fill="#C8D2D3"/>
<path fill-rule="evenodd" clip-rule="evenodd" d="M128.889 115.923H102.739C102.015 115.923 101.429 115.337 101.429 114.613C101.429 113.889 102.015 113.302 102.739 113.302H128.889C129.613 113.302 130.2 113.889 130.2 114.613C130.2 115.337 129.613 115.923 128.889 115.923Z" fill="#C8D2D3"/>
<path fill-rule="evenodd" clip-rule="evenodd" d="M128.889 121.77H102.739C102.015 121.77 101.429 121.183 101.429 120.459C101.429 119.735 102.015 119.149 102.739 119.149H128.889C129.613 119.149 130.2 119.735 130.2 120.459C130.2 121.183 129.613 121.77 128.889 121.77Z" fill="#C8D2D3"/>
<path fill-rule="evenodd" clip-rule="evenodd" d="M113.056 127.616H102.739C102.015 127.616 101.429 127.03 101.429 126.306C101.429 125.582 102.015 124.995 102.739 124.995H113.056C113.78 124.995 114.367 125.582 114.367 126.306C114.367 127.03 113.78 127.616 113.056 127.616Z" fill="#C8D2D3"/>
<path fill-rule="evenodd" clip-rule="evenodd" d="M128.889 147.857H102.739C102.015 147.857 101.429 147.27 101.429 146.547C101.429 145.823 102.015 145.236 102.739 145.236H128.889C129.613 145.236 130.2 145.823 130.2 146.547C130.2 147.27 129.613 147.857 128.889 147.857Z" fill="#C8D2D3"/>
<path fill-rule="evenodd" clip-rule="evenodd" d="M128.889 153.703H102.739C102.015 153.703 101.429 153.117 101.429 152.392C101.429 151.669 102.015 151.082 102.739 151.082H128.889C129.613 151.082 130.2 151.669 130.2 152.392C130.2 153.117 129.613 153.703 128.889 153.703Z" fill="#C8D2D3"/>
<path fill-rule="evenodd" clip-rule="evenodd" d="M113.056 159.55H102.739C102.015 159.55 101.429 158.963 101.429 158.239C101.429 157.516 102.015 156.929 102.739 156.929H113.056C113.78 156.929 114.367 157.516 114.367 158.239C114.367 158.963 113.78 159.55 113.056 159.55Z" fill="#C8D2D3"/>
<path fill-rule="evenodd" clip-rule="evenodd" d="M65.0073 132.681H97.4234V108.237H65.0073V132.681Z" fill="#C8D2D3"/>
<path fill-rule="evenodd" clip-rule="evenodd" d="M65.0073 164.615H97.4234V140.171H65.0073V164.615Z" fill="#C8D2D3"/>
<path fill-rule="evenodd" clip-rule="evenodd" d="M89.1163 88.2829C89.1163 92.6465 85.5792 96.1842 81.2156 96.1842C76.852 96.1842 73.3143 92.6465 73.3143 88.2829C73.3143 83.9193 76.852 80.3816 81.2156 80.3816C85.5792 80.3816 89.1163 83.9193 89.1163 88.2829Z" fill="#DD424B"/>
<path fill-rule="evenodd" clip-rule="evenodd" d="M79.1211 84.0899V92.4758L85.4486 88.2828L79.1211 84.0899Z" fill="#FFFFFE"/>
<path fill-rule="evenodd" clip-rule="evenodd" d="M89.1163 120.459C89.1163 124.823 85.5792 128.36 81.2156 128.36C76.852 128.36 73.3143 124.823 73.3143 120.459C73.3143 116.096 76.852 112.558 81.2156 112.558C85.5792 112.558 89.1163 116.096 89.1163 120.459Z" fill="#DD424B"/>
<path fill-rule="evenodd" clip-rule="evenodd" d="M79.1211 116.267V124.652L85.4486 120.459L79.1211 116.267Z" fill="#FFFFFE"/>
<path fill-rule="evenodd" clip-rule="evenodd" d="M89.1163 153.03C89.1163 157.393 85.5792 160.931 81.2156 160.931C76.852 160.931 73.3143 157.393 73.3143 153.03C73.3143 148.666 76.852 145.129 81.2156 145.129C85.5792 145.129 89.1163 148.666 89.1163 153.03Z" fill="#DD424B"/>
<path fill-rule="evenodd" clip-rule="evenodd" d="M79.1211 148.837V157.222L85.4486 153.03L79.1211 148.837Z" fill="#FFFFFE"/>
<path fill-rule="evenodd" clip-rule="evenodd" d="M136.944 83.0601H136.296C136.176 83.0601 136.079 83.1583 136.079 83.2777V85.0703C136.079 85.1903 136.176 85.2885 136.296 85.2885H136.944C137.063 85.2885 137.161 85.1903 137.161 85.0703V83.2777C137.161 83.1583 137.063 83.0601 136.944 83.0601Z" fill="#C8D2D3"/>
<path fill-rule="evenodd" clip-rule="evenodd" d="M139.864 83.2709H139.825C140.015 83.2709 140.17 83.1158 140.17 82.9264C140.17 82.7369 140.015 82.5825 139.825 82.5825H138.721C138.857 82.3674 139.041 82.0254 139.041 81.7459C139.041 81.3026 138.799 81.0569 138.641 81.0288C138.483 81.0006 138.367 81.085 138.321 81.2182C138.275 81.352 138.357 81.6052 138.325 81.6953C138.277 81.8347 138.033 82.0216 137.703 82.4449C137.407 82.8238 137.449 83.2709 137.449 83.2709V84.779C137.449 84.8966 137.546 84.9935 137.664 84.9935H139.717C139.853 84.9935 139.966 84.8809 139.966 84.7434C139.966 84.6064 139.853 84.4939 139.717 84.4939H139.752C139.92 84.4939 140.057 84.3563 140.057 84.1881C140.057 84.0199 139.92 83.8824 139.752 83.8824H139.864C140.032 83.8824 140.17 83.7448 140.17 83.5766C140.17 83.4085 140.032 83.2709 139.864 83.2709Z" fill="#C8D2D3"/>
<path fill-rule="evenodd" clip-rule="evenodd" d="M145.667 84.4945H146.314C146.434 84.4945 146.532 84.3957 146.532 84.2763V82.4837C146.532 82.3637 146.434 82.2661 146.314 82.2661H145.667C145.547 82.2661 145.449 82.3637 145.449 82.4837V84.2763C145.449 84.3957 145.547 84.4945 145.667 84.4945Z" fill="#C8D2D3"/>
<path fill-rule="evenodd" clip-rule="evenodd" d="M142.746 84.2832H142.785C142.595 84.2832 142.441 84.4382 142.441 84.6277C142.441 84.8171 142.595 84.9722 142.785 84.9722H143.89C143.754 85.1873 143.569 85.5293 143.569 85.8088C143.569 86.2514 143.811 86.4978 143.97 86.5259C144.127 86.5541 144.244 86.4697 144.289 86.3359C144.335 86.2027 144.254 85.9488 144.285 85.8588C144.333 85.7194 144.577 85.533 144.907 85.1091C145.203 84.7308 145.161 84.2832 145.161 84.2832V82.7757C145.161 82.6575 145.064 82.5612 144.947 82.5612H142.894C142.757 82.5612 142.644 82.6738 142.644 82.8107C142.644 82.9482 142.757 83.0602 142.894 83.0602H142.859C142.69 83.0602 142.553 83.1977 142.553 83.3659C142.553 83.5341 142.69 83.6717 142.859 83.6717H142.746C142.578 83.6717 142.441 83.8098 142.441 83.9774C142.441 84.1456 142.578 84.2832 142.746 84.2832Z" fill="#C8D2D3"/>
<path fill-rule="evenodd" clip-rule="evenodd" d="M136.944 116.198H136.296C136.176 116.198 136.079 116.297 136.079 116.416V118.209C136.079 118.329 136.176 118.426 136.296 118.426H136.944C137.063 118.426 137.161 118.329 137.161 118.209V116.416C137.161 116.297 137.063 116.198 136.944 116.198Z" fill="#C8D2D3"/>
<path fill-rule="evenodd" clip-rule="evenodd" d="M139.864 116.409H139.825C140.015 116.409 140.17 116.255 140.17 116.065C140.17 115.875 140.015 115.72 139.825 115.72H138.721C138.857 115.506 139.041 115.164 139.041 114.884C139.041 114.441 138.799 114.195 138.641 114.167C138.483 114.139 138.367 114.223 138.321 114.356C138.275 114.49 138.357 114.744 138.325 114.834C138.277 114.973 138.033 115.16 137.703 115.583C137.407 115.962 137.449 116.409 137.449 116.409V117.917C137.449 118.035 137.546 118.132 137.664 118.132H139.717C139.853 118.132 139.966 118.019 139.966 117.882C139.966 117.745 139.853 117.633 139.717 117.633H139.752C139.92 117.633 140.057 117.495 140.057 117.326C140.057 117.158 139.92 117.021 139.752 117.021H139.864C140.032 117.021 140.17 116.883 140.17 116.715C140.17 116.547 140.032 116.409 139.864 116.409Z" fill="#C8D2D3"/>
<path fill-rule="evenodd" clip-rule="evenodd" d="M145.667 117.633H146.314C146.434 117.633 146.532 117.534 146.532 117.415V115.622C146.532 115.502 146.434 115.404 146.314 115.404H145.667C145.547 115.404 145.449 115.502 145.449 115.622V117.415C145.449 117.534 145.547 117.633 145.667 117.633Z" fill="#C8D2D3"/>
<path fill-rule="evenodd" clip-rule="evenodd" d="M142.746 117.421H142.785C142.595 117.421 142.441 117.576 142.441 117.767C142.441 117.955 142.595 118.11 142.785 118.11H143.89C143.754 118.325 143.569 118.668 143.569 118.947C143.569 119.39 143.811 119.636 143.97 119.664C144.127 119.692 144.244 119.608 144.289 119.474C144.335 119.34 144.254 119.088 144.285 118.997C144.333 118.858 144.577 118.671 144.907 118.247C145.203 117.869 145.161 117.421 145.161 117.421V115.914C145.161 115.796 145.064 115.699 144.947 115.699H142.894C142.757 115.699 142.644 115.812 142.644 115.949C142.644 116.086 142.757 116.198 142.894 116.198H142.859C142.69 116.198 142.553 116.336 142.553 116.504C142.553 116.673 142.69 116.81 142.859 116.81H142.746C142.578 116.81 142.441 116.947 142.441 117.116C142.441 117.284 142.578 117.421 142.746 117.421Z" fill="#C8D2D3"/>
<path fill-rule="evenodd" clip-rule="evenodd" d="M136.944 148.12H136.296C136.176 148.12 136.079 148.218 136.079 148.338V150.13C136.079 150.25 136.176 150.348 136.296 150.348H136.944C137.063 150.348 137.161 150.25 137.161 150.13V148.338C137.161 148.218 137.063 148.12 136.944 148.12Z" fill="#C8D2D3"/>
<path fill-rule="evenodd" clip-rule="evenodd" d="M139.864 148.331H139.825C140.015 148.331 140.17 148.176 140.17 147.987C140.17 147.797 140.015 147.642 139.825 147.642H138.721C138.857 147.427 139.041 147.085 139.041 146.806C139.041 146.363 138.799 146.117 138.641 146.089C138.483 146.06 138.367 146.145 138.321 146.278C138.275 146.412 138.357 146.665 138.325 146.756C138.277 146.894 138.033 147.081 137.703 147.505C137.407 147.884 137.449 148.331 137.449 148.331V149.838C137.449 149.957 137.546 150.053 137.664 150.053H139.717C139.853 150.053 139.966 149.941 139.966 149.804C139.966 149.666 139.853 149.554 139.717 149.554H139.752C139.92 149.554 140.057 149.417 140.057 149.248C140.057 149.08 139.92 148.942 139.752 148.942H139.864C140.032 148.942 140.17 148.805 140.17 148.637C140.17 148.468 140.032 148.331 139.864 148.331Z" fill="#C8D2D3"/>
<path fill-rule="evenodd" clip-rule="evenodd" d="M145.667 149.554H146.314C146.434 149.554 146.532 149.456 146.532 149.337V147.544C146.532 147.424 146.434 147.326 146.314 147.326H145.667C145.547 147.326 145.449 147.424 145.449 147.544V149.337C145.449 149.456 145.547 149.554 145.667 149.554Z" fill="#C8D2D3"/>
<path fill-rule="evenodd" clip-rule="evenodd" d="M142.746 149.343H142.785C142.595 149.343 142.441 149.499 142.441 149.687C142.441 149.877 142.595 150.032 142.785 150.032H143.89C143.754 150.247 143.569 150.589 143.569 150.869C143.569 151.311 143.811 151.558 143.97 151.585C144.127 151.613 144.244 151.529 144.289 151.396C144.335 151.262 144.254 151.009 144.285 150.919C144.333 150.779 144.577 150.593 144.907 150.17C145.203 149.791 145.161 149.343 145.161 149.343V147.835C145.161 147.717 145.064 147.622 144.947 147.622H142.894C142.757 147.622 142.644 147.733 142.644 147.871C142.644 148.008 142.757 148.12 142.894 148.12H142.859C142.69 148.12 142.553 148.258 142.553 148.426C142.553 148.594 142.69 148.732 142.859 148.732H142.746C142.578 148.732 142.441 148.87 142.441 149.037C142.441 149.206 142.578 149.343 142.746 149.343Z" fill="#C8D2D3"/>
<path fill-rule="evenodd" clip-rule="evenodd" d="M57.6086 57.5893H151.174V47.8567H57.6086V57.5893Z" fill="#DD424B"/>
<path fill-rule="evenodd" clip-rule="evenodd" d="M57.6086 70.4057H151.174V57.5894H57.6086V70.4057Z" fill="#C8D2D3"/>
<path fill-rule="evenodd" clip-rule="evenodd" d="M68.8589 50.7503C68.8589 51.023 68.6388 51.2437 68.3656 51.2437H62.7439C62.4713 51.2437 62.2506 51.023 62.2506 50.7503C62.2506 50.4777 62.4713 50.257 62.7439 50.257H68.3656C68.6388 50.257 68.8589 50.4777 68.8589 50.7503Z" fill="#FFFFFE"/>
<path fill-rule="evenodd" clip-rule="evenodd" d="M68.8589 52.723C68.8589 52.995 68.6388 53.2163 68.3656 53.2163H62.7439C62.4713 53.2163 62.2506 52.995 62.2506 52.723C62.2506 52.451 62.4713 52.2297 62.7439 52.2297H68.3656C68.6388 52.2297 68.8589 52.451 68.8589 52.723Z" fill="#FFFFFE"/>
<path fill-rule="evenodd" clip-rule="evenodd" d="M68.8589 54.6957C68.8589 54.9683 68.6388 55.189 68.3656 55.189H62.7439C62.4713 55.189 62.2506 54.9683 62.2506 54.6957C62.2506 54.4231 62.4713 54.2024 62.7439 54.2024H68.3656C68.6388 54.2024 68.8589 54.4231 68.8589 54.6957Z" fill="#FFFFFE"/>
<path fill-rule="evenodd" clip-rule="evenodd" d="M144.335 52.7224C144.335 53.282 143.869 53.7372 143.298 53.7372C142.727 53.7372 142.262 53.282 142.262 52.7224C142.262 52.1635 142.727 51.7089 143.298 51.7089C143.87 51.7089 144.335 52.1635 144.335 52.7224ZM145.643 51.9971L145.479 51.6095C145.479 51.6095 145.86 50.7523 145.826 50.7191L145.323 50.2283C145.288 50.1945 144.431 50.5853 144.431 50.5853L144.036 50.4259C144.036 50.4259 143.686 49.5574 143.638 49.5574H142.928C142.879 49.5574 142.556 50.4278 142.556 50.4278L142.161 50.5878C142.161 50.5878 141.286 50.2158 141.253 50.2489L140.751 50.741C140.716 50.7748 141.115 51.6145 141.115 51.6145L140.952 52.0015C140.952 52.0015 140.065 52.3435 140.065 52.3898V53.0851C140.065 53.1332 140.954 53.4502 140.954 53.4502L141.117 53.8366C141.117 53.8366 140.737 54.6932 140.771 54.7257L141.273 55.2178C141.307 55.2516 142.165 54.8608 142.165 54.8608L142.561 55.0208C142.561 55.0208 142.91 55.8887 142.958 55.8887H143.668C143.717 55.8887 144.041 55.0183 144.041 55.0183L144.437 54.8577C144.437 54.8577 145.31 55.2303 145.344 55.1972L145.847 54.7057C145.882 54.6713 145.481 53.8322 145.481 53.8322L145.644 53.4452C145.644 53.4452 146.532 53.1026 146.532 53.0557V52.361C146.532 52.3129 145.643 51.9971 145.643 51.9971Z" fill="#FFFFFE"/>
<path fill-rule="evenodd" clip-rule="evenodd" d="M47.0157 122.552C46.1972 122.241 45.3663 121.963 44.5353 121.709L41.7467 134.849C46.4598 134.765 46.8556 127.374 47.0157 122.552Z" fill="#FDE6D5"/>
<path fill-rule="evenodd" clip-rule="evenodd" d="M128.259 63.9975C128.259 65.7832 126.811 67.2307 125.026 67.2307H83.7566C81.9709 67.2307 80.5228 65.7832 80.5228 63.9975C80.5228 62.2118 81.9709 60.7637 83.7566 60.7637H125.026C126.811 60.7637 128.259 62.2118 128.259 63.9975Z" fill="#FFFFFE"/>
<path fill-rule="evenodd" clip-rule="evenodd" d="M123.659 64.1188C123.331 64.4458 122.8 64.4458 122.473 64.1188C122.146 63.7924 122.146 63.2603 122.473 62.9333C122.8 62.6069 123.331 62.6069 123.659 62.9333C123.985 63.2603 123.985 63.7924 123.659 64.1188ZM124.077 62.515C123.519 61.9573 122.612 61.9573 122.055 62.515C121.497 63.0728 121.497 63.98 122.055 64.5371C122.503 64.986 123.176 65.0723 123.713 64.8003L124.809 65.8976L125.437 65.2699L124.34 64.1732C124.612 63.6367 124.525 62.9633 124.077 62.515Z" fill="#C8D2D3"/>
<path fill-rule="evenodd" clip-rule="evenodd" d="M154.261 131.973H210.343V88.7137H154.261V131.973Z" fill="#E9F3FE"/>
<path fill-rule="evenodd" clip-rule="evenodd" d="M161.608 127.354H202.996V93.333H161.608V127.354Z" fill="#2D4866"/>
<path fill-rule="evenodd" clip-rule="evenodd" d="M178.916 105.272L187.701 110.344L178.916 115.416V105.272Z" fill="#FFFFFE"/>
<path fill-rule="evenodd" clip-rule="evenodd" d="M182.302 102.923C178.211 102.923 174.882 106.252 174.882 110.344C174.882 114.435 178.211 117.763 182.302 117.763C186.393 117.763 189.722 114.435 189.722 110.344C189.722 106.252 186.393 102.923 182.302 102.923ZM182.302 118.971C177.545 118.971 173.674 115.101 173.674 110.344C173.674 105.586 177.545 101.715 182.302 101.715C187.059 101.715 190.93 105.586 190.93 110.344C190.93 115.101 187.059 118.971 182.302 118.971Z" fill="#FFFFFE"/>
<path fill-rule="evenodd" clip-rule="evenodd" d="M199.582 125.037C199.582 125.297 199.371 125.507 199.111 125.507H165.493C165.233 125.507 165.022 125.297 165.022 125.037C165.022 124.777 165.233 124.567 165.493 124.567H199.111C199.371 124.567 199.582 124.777 199.582 125.037Z" fill="#EFEDE9"/>
<path fill-rule="evenodd" clip-rule="evenodd" d="M182.7 125.037C182.7 125.297 182.489 125.507 182.229 125.507H165.493C165.233 125.507 165.022 125.297 165.022 125.037C165.022 124.777 165.233 124.567 165.493 124.567H182.229C182.489 124.567 182.7 124.777 182.7 125.037Z" fill="#DD424B"/>
<path fill-rule="evenodd" clip-rule="evenodd" d="M181.166 125.037C181.166 124.409 181.675 123.9 182.302 123.9C182.929 123.9 183.438 124.409 183.438 125.037C183.438 125.664 182.929 126.173 182.302 126.173C181.675 126.173 181.166 125.664 181.166 125.037Z" fill="#DD424B"/>
<path fill-rule="evenodd" clip-rule="evenodd" d="M210.343 95.0669C206.93 95.0669 204.164 92.3007 204.164 88.8881V88.5392C204.164 85.1266 206.93 82.3599 210.343 82.3599C213.756 82.3599 216.522 85.1266 216.522 88.5392V88.8881C216.522 92.3007 213.756 95.0669 210.343 95.0669Z" fill="#2D4866"/>
<path fill-rule="evenodd" clip-rule="evenodd" d="M210.885 88.7136L213.324 86.2739C213.474 86.1244 213.474 85.8819 213.324 85.7324C213.175 85.5824 212.932 85.5824 212.783 85.7324L210.343 88.1721L207.903 85.7324C207.754 85.5824 207.511 85.5824 207.362 85.7324C207.212 85.8819 207.212 86.1244 207.362 86.2739L209.802 88.7136L207.362 91.1527C207.212 91.3021 207.212 91.5454 207.362 91.6948C207.437 91.7692 207.535 91.8067 207.633 91.8067C207.731 91.8067 207.829 91.7692 207.903 91.6948L210.343 89.2551L212.783 91.6948C212.857 91.7692 212.955 91.8067 213.053 91.8067C213.152 91.8067 213.249 91.7692 213.324 91.6948C213.474 91.5454 213.474 91.3021 213.324 91.1527L210.885 88.7136Z" fill="#FFFFFE"/>
</svg>
